<svg width="33" height="30" viewBox="0 0 33 30" fill="none" xmlns="http://www.w3.org/2000/svg">
<path fill-rule="evenodd" clip-rule="evenodd" d="M13.3673 23.7456L15.0926 28.8167L15.9592 25.8063L15.5353 25.3394C15.3448 25.0604 15.3019 24.8162 15.4065 24.6042C15.6372 24.1481 16.1122 24.234 16.5576 24.234C17.0244 24.234 17.6013 24.1454 17.7462 24.7303C17.7972 24.9262 17.7354 25.1301 17.5986 25.3394L17.172 25.8063L18.0386 28.8167L19.6002 23.7456C20.7271 24.7599 24.0596 24.9611 25.3019 25.6533C25.6936 25.8734 26.0478 26.1497 26.3349 26.5253C27.1076 27.5476 27.1639 27.6147 27.3625 28.8838C27.2981 29.5519 26.9198 29.9383 26.1712 29.9973H6.79904C6.05044 29.941 5.67212 29.5546 5.60773 28.8838C5.80628 27.6147 5.86531 27.5476 6.63536 26.5253C6.91978 26.147 7.27395 25.8707 7.66837 25.6533C8.90797 24.9611 12.2431 24.7572 13.3673 23.7456ZM7.50738 23.4102C7.48591 23.3673 7.46177 23.3297 7.43494 23.2922C7.31419 23.0936 7.19345 22.8978 7.07003 22.6724C6.94929 22.4282 6.82855 22.2002 6.71854 21.9882C6.61122 21.7601 6.50657 21.516 6.41535 21.2745C6.34022 21.0625 6.249 20.821 6.15777 20.5313C6.02361 20.1207 5.63993 19.8658 5.23209 19.8658H2.608C2.51677 19.8658 2.42823 19.8524 2.36383 19.8202C2.3048 19.788 2.22968 19.7451 2.18406 19.6861C2.12503 19.6244 2.07674 19.5653 2.04991 19.5063C2.01771 19.4473 2.00429 19.3534 2.00429 19.2648V15.9512C2.00429 15.8599 2.01771 15.7848 2.03649 15.7231C2.06869 15.6614 2.11162 15.5889 2.18943 15.5111C2.24846 15.4521 2.31017 15.4038 2.3692 15.3904C2.43091 15.3582 2.52214 15.3448 2.61068 15.3448H5.02281C5.50845 15.3448 5.90287 14.9933 5.9941 14.5398C6.05313 14.2823 6.11484 14.0408 6.17387 13.8261C6.24899 13.582 6.32681 13.3539 6.41803 13.1124C6.50926 12.8844 6.5978 12.6402 6.72122 12.4148C6.82855 12.1706 6.94929 11.9614 7.05393 11.7494C7.2659 11.355 7.18809 10.8988 6.88758 10.5983L5.00671 8.70137C4.99329 8.68795 4.99329 8.68795 4.97451 8.68795C4.91548 8.62892 4.86719 8.56721 4.84036 8.50818C4.80816 8.44915 4.80816 8.38744 4.80816 8.29622C4.80816 8.20499 4.82157 8.12986 4.85377 8.06815C4.88597 7.99302 4.9289 7.93399 5.00671 7.85618L7.32761 5.5487C7.40274 5.47357 7.46177 5.42796 7.53958 5.39576C7.60129 5.36356 7.67373 5.35015 7.76764 5.35015C7.85887 5.35015 7.934 5.36356 7.99571 5.39576C8.05742 5.42796 8.12986 5.47089 8.19426 5.52992H8.20767L9.92219 7.24443C10.2549 7.57714 10.7862 7.62275 11.1672 7.35176C11.3657 7.23101 11.5616 7.11027 11.787 6.98685C12.0284 6.86611 12.2592 6.74537 12.4712 6.63536C12.6992 6.52804 12.9434 6.4234 13.1849 6.33217C13.3968 6.25704 13.6383 6.16582 13.9281 6.07459C14.3386 5.94043 14.5935 5.55675 14.5935 5.14891V2.51945C14.5935 2.42823 14.6069 2.33968 14.6391 2.27529C14.6713 2.21626 14.7142 2.15455 14.7599 2.09552C14.8216 2.03649 14.8806 1.98819 14.9396 1.97478C14.9987 1.94258 15.0926 1.92917 15.1838 1.92917H17.5154H17.5423H17.7811C17.8723 1.92917 17.9608 1.94258 18.0252 1.97478C18.0843 1.98819 18.146 2.03649 18.205 2.09552C18.2506 2.15455 18.2962 2.21626 18.3257 2.27529C18.3579 2.33432 18.3713 2.42823 18.3713 2.51945V5.14623C18.3713 5.55675 18.6289 5.93507 19.0368 6.07191C19.3239 6.16313 19.568 6.25168 19.78 6.32949C20.0242 6.42071 20.2656 6.52804 20.4937 6.63268C20.7057 6.74 20.9337 6.86074 21.1779 6.98417C21.406 7.10491 21.6018 7.22565 21.7977 7.34907C22.176 7.62275 22.7073 7.57714 23.0427 7.24175L24.7572 5.52723H24.7706C24.8296 5.4682 24.9048 5.41991 24.9691 5.39308C25.0282 5.36088 25.1033 5.34746 25.1972 5.34746C25.2884 5.34746 25.3636 5.36088 25.4253 5.39308C25.5031 5.42527 25.5594 5.4682 25.6372 5.54601L27.9581 7.8535C28.0333 7.92863 28.0789 7.98766 28.1111 8.06547C28.1433 8.12449 28.1567 8.19962 28.1567 8.29353C28.1567 8.38476 28.1567 8.44647 28.1245 8.5055C28.0923 8.56721 28.0494 8.62624 27.9903 8.68527C27.9769 8.68527 27.9769 8.68527 27.9581 8.69868L26.0773 10.5957C25.7741 10.8988 25.699 11.355 25.9109 11.7467C26.0182 11.9587 26.139 12.1706 26.2436 12.4121C26.3644 12.6402 26.4556 12.8844 26.5468 13.1097C26.6381 13.3512 26.7132 13.582 26.791 13.8234C26.85 14.0354 26.9117 14.2769 26.9708 14.5372C27.062 14.9906 27.4564 15.3421 27.942 15.3421H30.3515C30.4427 15.3421 30.5313 15.3555 30.5957 15.3877C30.6547 15.4011 30.7164 15.4467 30.7754 15.5084C30.8532 15.5863 30.8962 15.6614 30.9284 15.7204C30.9418 15.7794 30.9606 15.8546 30.9606 15.9485V19.2568C30.9606 19.348 30.9471 19.4365 30.915 19.5009C30.8828 19.5626 30.8371 19.6217 30.7808 19.6807C30.7352 19.7397 30.6601 19.788 30.601 19.8149C30.5393 19.8471 30.4481 19.8605 30.3595 19.8605H27.7328C27.3222 19.8605 26.9439 20.1181 26.8071 20.5259C26.7159 20.813 26.6273 21.0571 26.5495 21.2691C26.4583 21.5133 26.351 21.7548 26.2463 21.9828C26.0182 22.4309 25.7982 22.8602 25.5326 23.2868C25.5058 23.3244 25.4816 23.3619 25.4602 23.4049H27.7569C27.8535 23.2117 27.9501 23.0024 28.0521 22.7878C28.1728 22.5141 28.2935 22.2431 28.4035 21.9694C28.417 21.9238 28.4492 21.8621 28.4653 21.8165H30.4078C30.7566 21.8165 31.092 21.7574 31.3925 21.6367C31.6957 21.516 31.9855 21.3174 32.2297 21.0759C32.4738 20.8344 32.6697 20.5581 32.7905 20.2388C32.9112 19.9195 32.9702 19.6002 32.9702 19.2541V15.9485C32.9702 15.6158 32.8951 15.2831 32.7717 14.9772C32.6509 14.674 32.4685 14.4003 32.227 14.1588L32.2136 14.1454C31.9694 13.9013 31.6957 13.7054 31.3952 13.582C31.092 13.4478 30.7566 13.3834 30.4105 13.3834H28.755C28.755 13.3378 28.7416 13.3083 28.7228 13.2627C28.6316 12.9756 28.5431 12.6858 28.4357 12.4121C28.315 12.125 28.2077 11.8487 28.0869 11.5938C28.0735 11.5616 28.0413 11.5186 28.0279 11.473L29.3963 10.0912C29.6539 9.86316 29.8363 9.59216 29.9705 9.28629C30.0912 8.98309 30.169 8.6477 30.169 8.30158C30.169 7.95009 30.11 7.63617 29.9705 7.31687C29.8363 7.01368 29.6512 6.74 29.4097 6.49852H29.3963L27.0754 4.19104C26.8339 3.94956 26.5576 3.7671 26.2383 3.63026C25.919 3.49611 25.5997 3.43171 25.2536 3.43171C24.9209 3.43171 24.5881 3.49074 24.2689 3.63026C23.9496 3.75101 23.6759 3.94956 23.4317 4.19104L22.2485 5.36088L22.1572 5.31527C21.9131 5.18111 21.6394 5.05769 21.3523 4.92085C21.0786 4.80011 20.8076 4.67937 20.5339 4.56936C20.4883 4.55594 20.4266 4.52374 20.381 4.50765V2.56238C20.381 2.21089 20.322 1.87819 20.2012 1.57768C20.0805 1.2718 19.8819 0.984706 19.6405 0.740542C19.3829 0.496378 19.1092 0.30051 18.8033 0.179769C18.4867 0.0590287 18.1674 0 17.8159 0H16.6193H16.351H15.1543C14.8028 0 14.4889 0.0590287 14.1696 0.179769C13.8691 0.30051 13.5927 0.499061 13.3324 0.740542C13.0883 0.984706 12.8924 1.2718 12.7717 1.57768C12.6509 1.87819 12.5919 2.21626 12.5919 2.56238V4.50496C12.5463 4.51838 12.4846 4.55058 12.439 4.56667C12.1653 4.674 11.8943 4.79474 11.6206 4.91816C11.3335 5.05232 11.0598 5.17574 10.8157 5.31258L10.7244 5.3582L9.54119 4.18835C9.29971 3.94687 9.02334 3.74832 8.70405 3.62758C8.38476 3.49343 8.05205 3.42903 7.71935 3.42903C7.36786 3.42903 7.05393 3.48806 6.73464 3.62758C6.41535 3.76174 6.14167 3.94687 5.89751 4.18835L3.5766 6.49584H3.56319C3.32171 6.73732 3.13925 7.01368 3.00242 7.31419C2.86826 7.6308 2.80386 7.95009 2.80386 8.29622C2.80386 8.6477 2.87899 8.98041 3.00242 9.28092C3.13657 9.58411 3.32171 9.85779 3.57929 10.0859L4.945 11.4677C4.93158 11.5133 4.89938 11.5589 4.88597 11.5884C4.76523 11.846 4.6579 12.1197 4.53448 12.4068C4.42715 12.6804 4.33593 12.9675 4.24738 13.2573C4.23397 13.3029 4.21519 13.3324 4.21519 13.378H2.56507C2.21358 13.378 1.88087 13.4398 1.58036 13.5766C1.27717 13.6973 1.00349 13.8959 0.762007 14.1374L0.748591 14.1508C0.504427 14.3923 0.324658 14.6686 0.203917 14.9691C0.0751275 15.2777 0 15.6158 0 15.9485V19.2541C0 19.6056 0.0590287 19.9195 0.179769 20.2388C0.30051 20.5581 0.499061 20.8318 0.740542 21.0759C0.982023 21.3201 1.2718 21.516 1.57768 21.6367C1.88087 21.7574 2.21626 21.8165 2.56238 21.8165H4.50496C4.51838 21.8621 4.55058 21.9238 4.56668 21.9694C4.674 22.2431 4.79474 22.5141 4.91817 22.7878C5.02281 23.0051 5.11672 23.2144 5.21331 23.4049H7.50738V23.4102ZM12.5865 16.4905C12.3719 16.4985 12.2109 16.5441 12.1009 16.6166C12.0365 16.6595 11.9909 16.7132 11.9614 16.7776C11.9265 16.8473 11.9131 16.9359 11.9158 17.0351C11.9238 17.3303 12.0794 17.7113 12.3746 18.1513L12.3772 18.1594L13.3405 19.6914C13.7269 20.3059 14.132 20.9337 14.6338 21.3925C15.1167 21.8353 15.7043 22.1331 16.4824 22.1358C17.3222 22.1384 17.9394 21.8272 18.4357 21.3577C18.9536 20.872 19.3641 20.2066 19.7693 19.5385L20.8532 17.7515C21.0545 17.29 21.1296 16.9815 21.084 16.799C21.0545 16.6917 20.9364 16.638 20.7352 16.63C20.6922 16.6273 20.6493 16.6273 20.6037 16.6273C20.5554 16.63 20.5044 16.6327 20.4508 16.6354C20.4213 16.638 20.3944 16.6354 20.3676 16.63C20.271 16.6354 20.1717 16.6273 20.0698 16.6139L20.44 14.9691C18.4572 14.945 17.0969 14.5989 15.4924 13.5712C14.9638 13.2358 14.8055 12.8495 14.2769 12.887C13.8798 12.9622 13.5444 13.1419 13.2761 13.429C13.0212 13.7027 12.828 14.0783 12.7019 14.5586L12.9139 16.4958C12.8012 16.5093 12.6912 16.5039 12.5865 16.4905ZM21.1108 16.1443C21.3791 16.2248 21.5508 16.3966 21.6179 16.6702C21.6957 16.9761 21.6099 17.4027 21.355 17.985C21.3496 17.9957 21.3442 18.0064 21.3389 18.0172L20.2415 19.8256C19.8176 20.5232 19.3883 21.2208 18.8141 21.7574C18.2211 22.3128 17.4886 22.6831 16.4878 22.6804C15.5541 22.6778 14.8511 22.3209 14.2742 21.7923C13.7161 21.2825 13.2895 20.6252 12.8844 19.9785L11.9211 18.4465C11.5696 17.9206 11.3872 17.4403 11.3738 17.0459C11.3684 16.8607 11.4006 16.6917 11.4677 16.5441C11.5401 16.3885 11.6501 16.2597 11.7977 16.1604C11.8675 16.1148 11.9453 16.0746 12.0311 16.0424C11.9694 15.2133 11.9453 14.1642 11.9855 13.2868C12.007 13.0802 12.0445 12.8709 12.1036 12.6617C12.3504 11.7816 12.9675 11.0732 13.7322 10.5876C14.0005 10.4159 14.2957 10.2737 14.6096 10.161C16.4583 9.48752 18.9133 9.85511 20.2281 11.2745C20.762 11.854 21.1001 12.6214 21.1725 13.6356L21.1108 16.1443Z" fill="white"/>
</svg>
