<svg width="29" height="30" viewBox="0 0 29 30" fill="none" xmlns="http://www.w3.org/2000/svg">
<g clip-path="url(#clip0_1586_597)">
<path fill-rule="evenodd" clip-rule="evenodd" d="M18.6955 6.59178C19.49 7.05328 20.2057 7.63582 20.8162 8.31785C21.4181 8.98733 21.9011 9.75251 22.2448 10.581C22.4375 11.0503 22.5905 11.5345 22.7021 12.0288C22.9547 13.1525 22.9749 14.3151 22.7614 15.4468C22.6437 16.0569 22.4649 16.6539 22.2275 17.229L22.2003 17.29C21.706 18.5107 20.8211 19.6924 19.9758 20.8594C19.5458 21.4502 19.1182 22.0337 18.7598 22.6001C18.647 22.7763 18.4878 22.9189 18.2993 23.0126C18.1108 23.1064 17.9 23.1478 17.6895 23.1323L10.8875 24.1308C10.607 24.1712 10.3213 24.1088 10.0841 23.9554C9.84689 23.8021 9.67466 23.5684 9.59981 23.2983C9.43069 22.8103 9.22155 22.3367 8.97448 21.8823C8.76929 21.4916 8.52059 21.1247 8.23298 20.7886C7.882 20.393 7.52361 19.9878 7.1677 19.5312C6.77065 19.003 6.42787 18.4371 6.14443 17.8418C5.84636 17.216 5.61444 16.5615 5.45236 15.8887C5.2915 15.2151 5.21267 14.525 5.21756 13.833C5.22472 13.1135 5.32185 12.3976 5.50674 11.7016C5.7042 10.9546 5.98696 10.2322 6.34958 9.54832L6.39901 9.46043C6.8664 8.66727 7.45974 7.95343 8.15636 7.34617C8.84822 6.74888 9.63591 6.26951 10.4871 5.92771L10.5588 5.90086C11.1949 5.65117 11.8586 5.47662 12.5361 5.38084C13.2527 5.28148 13.9785 5.2651 14.6988 5.33201C15.4019 5.3952 16.0958 5.53521 16.7676 5.74949C17.4404 5.95749 18.0871 6.24005 18.6955 6.59178ZM17.7365 27.9175C17.3638 28.5522 16.8307 29.0805 16.1892 29.4507C15.6469 29.7627 15.0385 29.9458 14.4121 29.9853C13.7828 30.025 13.1538 29.9039 12.5856 29.6338C12.1787 29.4358 11.8118 29.1661 11.503 28.8379L17.7365 27.9175ZM18.3297 24.4726V24.8755V25.0146C18.3482 25.2788 18.3482 25.5439 18.3297 25.8081L18.2061 26.3891L10.6527 27.4975L10.5217 27.1997L10.2276 26.0083V25.6616L18.3099 24.4726H18.3297ZM13.8807 0.910624C13.8878 0.663682 13.9934 0.429497 14.1743 0.258974C14.3553 0.0884519 14.5971 -0.00462365 14.8471 -2.01193e-05H14.9114C15.1439 0.0204288 15.3608 0.12369 15.5219 0.290507C15.6921 0.467625 15.786 0.703073 15.7839 0.947246C15.7852 0.963496 15.7852 0.979823 15.7839 0.996074L15.732 2.99559C15.7332 3.01673 15.7332 3.03792 15.732 3.05906C15.7138 3.29541 15.6049 3.51597 15.4275 3.67569C15.2502 3.83541 15.0179 3.92223 14.7779 3.91844H14.7112C14.4796 3.9014 14.2627 3.79953 14.1032 3.63279C13.9319 3.45535 13.8379 3.21872 13.8412 2.97361C13.8399 2.95736 13.8399 2.94104 13.8412 2.92478L13.8906 0.917949L13.8807 0.910624ZM3.46021 4.41893C3.27758 4.24872 3.1694 4.01485 3.15867 3.76707C3.15303 3.64366 3.17222 3.52036 3.21511 3.40431C3.258 3.28826 3.32375 3.18176 3.40855 3.09096C3.49336 3.00015 3.59554 2.92685 3.70919 2.87528C3.82284 2.82371 3.94572 2.7949 4.07071 2.79051C4.32102 2.78009 4.56535 2.86785 4.75041 3.03465L6.26801 4.43357C6.45168 4.60274 6.5602 4.83676 6.56993 5.08463C6.57965 5.3325 6.48978 5.57412 6.31992 5.75682C6.14685 5.93757 5.90917 6.04444 5.65751 6.05467C5.40796 6.06497 5.16444 5.97718 4.98028 5.81053L3.46021 4.41893ZM0.988549 14.7265C0.86324 14.7311 0.738248 14.7112 0.620721 14.6681C0.503194 14.6249 0.395437 14.5592 0.303614 14.4749C0.211792 14.3905 0.137703 14.2891 0.0855869 14.1765C0.0334705 14.0638 0.00434826 13.9421 -0.000114314 13.8183C-0.00615596 13.6958 0.0125907 13.5733 0.0550296 13.4581C0.0974685 13.3428 0.162748 13.237 0.247052 13.147C0.332355 13.0573 0.434828 12.9852 0.548532 12.9349C0.662237 12.8846 0.784914 12.8571 0.909456 12.854L2.98071 12.7856C3.10605 12.7801 3.23127 12.7992 3.34907 12.8418C3.46687 12.8845 3.57491 12.9499 3.66691 13.0342C3.7589 13.1185 3.83301 13.22 3.88494 13.3328C3.93686 13.4456 3.96556 13.5675 3.96937 13.6914V13.706V13.7402C3.9668 13.9706 3.87887 14.1921 3.7222 14.3628C3.63511 14.4523 3.53076 14.5237 3.4153 14.5727C3.29984 14.6218 3.1756 14.6475 3.04991 14.6484H3.01284L0.966304 14.7168L0.988549 14.7265ZM27.0893 11.8237H27.1214C27.3583 11.8096 27.592 11.8836 27.7764 12.0312C27.9707 12.1894 28.0949 12.4163 28.1224 12.6636C28.1224 12.6636 28.1224 12.688 28.1224 12.6929C28.1338 12.9321 28.0521 13.1666 27.894 13.3482C27.7358 13.5298 27.5134 13.6447 27.2722 13.6694L25.2108 13.916C24.9608 13.9413 24.7108 13.8676 24.5157 13.711C24.3207 13.5545 24.1964 13.3279 24.1702 13.081C24.1447 12.8337 24.2196 12.5865 24.3786 12.3937C24.5376 12.2009 24.7676 12.0785 25.018 12.0532C25.7051 11.98 26.3972 11.9018 27.0868 11.8359L27.0893 11.8237ZM23.0061 3.6743C23.0748 3.5719 23.1634 3.48397 23.2668 3.41559C23.3701 3.3472 23.4862 3.29972 23.6082 3.27589C23.7302 3.25205 23.8558 3.25234 23.9778 3.27672C24.0997 3.3011 24.2155 3.3491 24.3185 3.41795C24.4216 3.48617 24.5098 3.57399 24.5782 3.67627C24.6465 3.77854 24.6935 3.89324 24.7165 4.01365C24.7646 4.25721 24.714 4.50968 24.5756 4.71678L23.4213 6.42576C23.2797 6.63167 23.0611 6.77358 22.8136 6.82028C22.5661 6.86698 22.3099 6.81465 22.1015 6.67479C21.893 6.53492 21.7493 6.319 21.702 6.0745C21.6548 5.83001 21.7078 5.57698 21.8493 5.37107L23.0061 3.66209V3.6743ZM15.1413 13.4057H16.5971C16.6471 13.4057 16.6966 13.4155 16.7427 13.4344C16.7889 13.4533 16.8309 13.481 16.8662 13.5159C16.9016 13.5508 16.9296 13.5922 16.9487 13.6378C16.9679 13.6835 16.9777 13.7323 16.9777 13.7817C16.9776 13.8564 16.9552 13.9294 16.9134 13.9917L13.4531 19.834C13.4275 19.8763 13.3936 19.9132 13.3534 19.9425C13.3133 19.9718 13.2676 19.993 13.2191 20.0048C13.1707 20.0166 13.1203 20.0188 13.0709 20.0113C13.0216 20.0037 12.9742 19.9866 12.9316 19.9609C12.8641 19.9207 12.8108 19.8609 12.7789 19.7897C12.7471 19.7185 12.7383 19.6393 12.7536 19.563L13.2653 15.979L11.5351 16.0083C11.4852 16.0093 11.4357 16.0005 11.3893 15.9824C11.3428 15.9644 11.3005 15.9375 11.2647 15.9032C11.2288 15.8689 11.2002 15.828 11.1804 15.7828C11.1607 15.7375 11.1502 15.6889 11.1495 15.6396C11.1474 15.5702 11.1654 15.5015 11.2014 15.4419L14.6099 9.60203C14.6618 9.51673 14.7456 9.45506 14.8432 9.43039C14.9408 9.40571 15.0444 9.42001 15.1314 9.4702C15.1983 9.50616 15.2526 9.56138 15.2871 9.62853C15.3215 9.69568 15.3344 9.77158 15.3242 9.84617L15.1512 13.4057H15.1413Z" fill="white"/>
</g>
<defs>
<clipPath id="clip0_1586_597">
<rect width="28.125" height="30" fill="white"/>
</clipPath>
</defs>
</svg>
