<svg width="25" height="30" viewBox="0 0 25 30" fill="none" xmlns="http://www.w3.org/2000/svg">
<path d="M16.0449 3.10547C15.9692 3.10547 15.9033 3.0957 15.8374 3.07373C15.5005 3.07373 15.2173 2.80029 15.2173 2.45361V1.23291H9.2041V2.45361C9.2041 2.76855 8.95264 3.04199 8.64746 3.06396C8.58154 3.08594 8.50586 3.0957 8.43017 3.0957H6.16455V5.62256H18.0273V3.09326H16.0229L16.0449 3.10547ZM5.57861 18.3179C6.25244 18.3179 6.79932 18.8647 6.79932 19.5386C6.79932 20.2124 6.25244 20.7593 5.57861 20.7593C4.90479 20.7593 4.35791 20.2124 4.35791 19.5386C4.35791 18.8647 4.90479 18.3179 5.57861 18.3179ZM4.16748 15.3076C3.99902 15.0562 4.06494 14.7144 4.31885 14.5459C4.57031 14.3774 4.91211 14.4434 5.08057 14.6973L5.38086 15.1416L6.56982 13.6963C6.76269 13.4619 7.10937 13.4277 7.34375 13.6206C7.57812 13.8135 7.6123 14.1602 7.41943 14.3945L5.77393 16.3965C5.7373 16.4429 5.69336 16.4844 5.64209 16.521C5.39062 16.6895 5.04883 16.6235 4.88037 16.3696L4.16748 15.3076ZM4.16748 11.0791C3.99902 10.8276 4.06494 10.4858 4.31885 10.3174C4.57031 10.1489 4.91211 10.2148 5.08057 10.4688L5.38086 10.9131L6.56982 9.46533C6.76269 9.23096 7.10937 9.19678 7.34375 9.38965C7.57812 9.58252 7.6123 9.9292 7.41943 10.1636L5.77393 12.1655C5.7373 12.2119 5.69336 12.2534 5.64209 12.29C5.39062 12.4585 5.04883 12.3926 4.88037 12.1387L4.16748 11.0791ZM16.8945 29.8364C16.7847 29.9341 16.6333 30 16.4795 30C16.4478 30 16.4136 30 16.3818 29.9902H1.37207C1.00098 29.9902 0.654297 29.8389 0.402832 29.5874C0.151367 29.3359 0 28.999 0 28.6157V4.84619C0 4.46533 0.151367 4.12842 0.402832 3.87695C0.654297 3.62549 0.991211 3.47412 1.37207 3.47412H4.94385V2.79785C4.94385 2.54639 5.0415 2.31934 5.21729 2.14355C5.38086 1.97998 5.61035 1.87012 5.87158 1.87012H7.98584V1.02295C7.98584 0.739746 8.10547 0.488281 8.29101 0.305176C8.47412 0.119629 8.72559 0 9.00879 0H15.4468C15.73 0 15.9814 0.119629 16.1645 0.305176C16.3501 0.490723 16.4697 0.739746 16.4697 1.02295V1.87256H18.3765C18.6279 1.87256 18.855 1.98242 19.0308 2.146C19.1943 2.30957 19.3042 2.54883 19.3042 2.80029V3.47656H22.876C23.2568 3.47656 23.5937 3.62793 23.8452 3.87939C24.0967 4.13086 24.248 4.46777 24.248 4.84863V21.9946C24.2969 22.2412 24.2456 22.4316 24.0625 22.6147L16.9702 29.7925C16.9482 29.8145 16.9385 29.8242 16.9165 29.8364H16.8945ZM15.8594 28.7573C15.8594 20.5493 14.8242 21.5234 22.9932 21.5234V4.84619C22.9932 4.81445 22.9834 4.77051 22.9492 4.74854C22.9272 4.72656 22.8955 4.70459 22.8516 4.70459H19.2798V5.94727C19.2798 6.19873 19.1821 6.42578 19.0063 6.60156C18.8428 6.76514 18.6133 6.875 18.352 6.875H5.85937C5.60791 6.875 5.36865 6.76514 5.20508 6.60156C5.1831 6.57959 5.17334 6.55762 5.15137 6.53564C5.01953 6.37207 4.93408 6.16455 4.93408 5.94727V4.70459H1.3623C1.33057 4.70459 1.28662 4.71436 1.26465 4.74854C1.24268 4.77051 1.2207 4.81445 1.2207 4.84619V28.6157C1.2207 28.6597 1.23047 28.6914 1.26465 28.7134C1.28662 28.7354 1.31836 28.7573 1.3623 28.7573H15.8496H15.8594ZM10.0659 19.9707C9.729 19.9707 9.4458 19.6973 9.4458 19.3506C9.4458 19.0137 9.71924 18.7305 10.0659 18.7305H15.957C16.2939 18.7305 16.5771 19.0039 16.5771 19.3506C16.5771 19.6875 16.3037 19.9707 15.957 19.9707H10.0659ZM10.0659 11.1133C9.729 11.1133 9.4458 10.8398 9.4458 10.4932C9.4458 10.1562 9.71924 9.87305 10.0659 9.87305H19.1382C19.4751 9.87305 19.7583 10.1465 19.7583 10.4932C19.7583 10.8301 19.4849 11.1133 19.1382 11.1133H10.0659ZM10.0659 15.542C9.729 15.542 9.4458 15.2686 9.4458 14.9219C9.4458 14.585 9.71924 14.3018 10.0659 14.3018H19.1382C19.4751 14.3018 19.7583 14.5752 19.7583 14.9219C19.7583 15.2588 19.4849 15.542 19.1382 15.542H10.0659Z" fill="white"/>
</svg>
