<svg width="34" height="30" viewBox="0 0 34 30" fill="none" xmlns="http://www.w3.org/2000/svg">
<g clip-path="url(#clip0_1586_602)">
<path fill-rule="evenodd" clip-rule="evenodd" d="M0.854622 15.568H5.87208C6.09852 15.5687 6.31547 15.659 6.47559 15.8191C6.6357 15.9792 6.72598 16.1962 6.7267 16.4226V26.6781C6.72598 26.9045 6.6357 27.1215 6.47559 27.2816C6.31547 27.4417 6.09852 27.532 5.87208 27.5327H0.854622C0.628186 27.532 0.411232 27.4417 0.251116 27.2816C0.0910007 27.1215 0.000726928 26.9045 0 26.6781L0 16.4226C0.000726928 16.1962 0.0910007 15.9792 0.251116 15.8191C0.411232 15.659 0.628186 15.5687 0.854622 15.568ZM7.83496 26.5292V16.5412H13.1695C15.0772 16.883 16.9849 17.9196 18.8899 19.1188H22.3856C23.9653 19.2126 24.7951 20.817 23.2595 21.8757C22.0327 22.7744 20.4172 22.722 18.7603 22.5759C17.6162 22.518 17.5666 24.0536 18.7603 24.0591C19.1739 24.0922 19.6232 23.9957 20.0175 23.9929C22.0851 23.9929 23.7888 23.5959 24.8309 21.9639L25.363 20.7206L30.5596 18.1429C33.1621 17.2883 35.0092 20.0093 33.0932 21.9005C29.4676 24.5473 25.5891 26.8291 21.5144 28.7126C18.6473 30.4577 15.7774 30.3971 12.9103 28.7126L7.83771 26.5292H7.83496ZM17.0924 2.10908C17.0607 2.083 17.0242 2.06333 16.9849 2.05119C16.9559 2.04457 16.9257 2.04457 16.8967 2.05119C16.8187 2.05903 16.7466 2.09653 16.6955 2.15595L15.998 2.983C15.9358 3.05778 15.8497 3.10878 15.7543 3.12736C15.6588 3.14595 15.5599 3.13099 15.4742 3.085C15.3804 3.03538 15.2812 2.98851 15.182 2.94716C15.0827 2.90581 14.9642 2.8617 14.8594 2.82586C14.7546 2.79002 14.6471 2.7597 14.5231 2.72386C14.399 2.68802 14.2942 2.66045 14.1867 2.63564C14.0976 2.61301 14.0183 2.56207 13.9606 2.49048C13.903 2.4189 13.8701 2.33052 13.8669 2.23865L13.7622 1.10283C13.7578 1.06263 13.7466 1.02348 13.7291 0.987043C13.7121 0.957324 13.6908 0.930364 13.6657 0.907094C13.6408 0.884207 13.6104 0.868074 13.5775 0.860228C13.5403 0.851726 13.5016 0.851726 13.4644 0.860228L12.0006 1.00358C11.9614 1.00885 11.9233 1.02 11.8875 1.03667C11.8517 1.05623 11.8199 1.08243 11.7938 1.11386C11.7721 1.14105 11.7553 1.17184 11.7442 1.20483C11.7385 1.23489 11.7385 1.26575 11.7442 1.29581L11.8462 2.36822C11.8556 2.46746 11.8299 2.56686 11.7734 2.64902C11.717 2.73118 11.6334 2.79085 11.5374 2.81759C11.4492 2.84791 11.3499 2.88375 11.2369 2.93062C11.1239 2.97749 11.0274 3.02435 10.9392 3.07122H10.9226C10.8289 3.12084 10.7296 3.17322 10.6469 3.22836H10.6194C10.5256 3.2835 10.4347 3.34139 10.3437 3.39928C10.2684 3.44904 10.1794 3.47371 10.0892 3.46975C9.9991 3.46579 9.91254 3.4334 9.84194 3.37723L8.88807 2.63839C8.85902 2.61503 8.82646 2.59642 8.79158 2.58326C8.76435 2.57719 8.73611 2.57719 8.70888 2.58326C8.66948 2.58889 8.63129 2.601 8.59585 2.6191H8.57931C8.55373 2.63722 8.53058 2.65853 8.51038 2.6825L7.58684 3.80454C7.55901 3.83805 7.53752 3.87635 7.52343 3.91757C7.51798 3.94672 7.51798 3.97664 7.52343 4.00579V4.02509C7.52632 4.05785 7.53569 4.08971 7.551 4.11882V4.1326C7.56926 4.15974 7.59158 4.18391 7.61717 4.20428L8.44422 4.90176C8.5201 4.96376 8.57186 5.05039 8.5905 5.14659C8.60914 5.24279 8.59347 5.34248 8.54622 5.42832C8.49673 5.51796 8.45165 5.60997 8.41114 5.70401C8.36529 5.80941 8.32481 5.91707 8.28984 6.02656C8.25675 6.12856 8.22092 6.23884 8.18508 6.36289C8.14924 6.48695 8.12167 6.59447 8.09686 6.69923C8.07978 6.78959 8.03363 6.8719 7.96545 6.93361C7.89727 6.99532 7.81078 7.03306 7.71917 7.04108L6.58059 7.14584C6.54127 7.15019 6.50302 7.16138 6.46756 7.17892C6.43642 7.19609 6.40845 7.21847 6.38486 7.24508C6.36341 7.27101 6.34747 7.30102 6.33799 7.3333C6.33056 7.36969 6.33056 7.40719 6.33799 7.44358L6.48135 8.90746C6.48532 8.94773 6.49652 8.98696 6.51443 9.02325C6.53283 9.05909 6.55812 9.09094 6.58886 9.11698C6.61672 9.13768 6.64735 9.15439 6.67984 9.1666C6.71359 9.17242 6.74809 9.17242 6.78184 9.1666L7.85425 9.0646C7.95088 9.05858 8.04663 9.08598 8.12544 9.14221C8.20425 9.19843 8.26132 9.28005 8.28708 9.37337C8.3174 9.46159 8.356 9.56359 8.40287 9.67387C8.44973 9.78414 8.49384 9.88063 8.54347 9.97436L8.56276 10.013C8.60687 10.0984 8.6565 10.1922 8.71163 10.2886L8.89634 10.5919C8.94407 10.6672 8.96706 10.7555 8.96212 10.8444C8.95718 10.9334 8.92454 11.0186 8.86877 11.0881L8.10513 12.0282C8.08504 12.0555 8.06837 12.0851 8.0555 12.1164C8.05118 12.1429 8.05118 12.1699 8.0555 12.1964C8.0591 12.2367 8.07033 12.276 8.08859 12.3122C8.10641 12.3452 8.1308 12.3743 8.16026 12.3976C8.54071 12.7147 8.93218 13.0262 9.30987 13.346C9.33504 13.3641 9.36297 13.3781 9.39258 13.3873C9.42713 13.3945 9.46278 13.3945 9.49734 13.3873C9.53929 13.3829 9.58025 13.3717 9.61864 13.3543H9.63242C9.65854 13.3367 9.68341 13.3174 9.70686 13.2964L10.3961 12.4693C10.458 12.3934 10.5444 12.3415 10.6405 12.3223C10.7366 12.3032 10.8363 12.3181 10.9226 12.3645C11.0176 12.4154 11.1152 12.4615 11.2149 12.5024C11.3224 12.5493 11.4299 12.5879 11.5374 12.6237C11.6449 12.6595 11.7469 12.6926 11.8737 12.7285C12.0006 12.7643 12.1026 12.7919 12.2101 12.8167C12.3009 12.8373 12.3824 12.8875 12.4417 12.9593C12.5011 13.0311 12.535 13.1205 12.5381 13.2137L12.6429 14.3357C12.6473 14.3754 12.6595 14.4138 12.6787 14.4487C12.694 14.4803 12.7156 14.5085 12.7421 14.5314C12.7688 14.5518 12.7986 14.5676 12.8304 14.5783C12.8677 14.5854 12.9061 14.5854 12.9434 14.5783L14.4045 14.4349C14.4457 14.4309 14.4858 14.4197 14.5231 14.4019C14.5559 14.3847 14.5857 14.3624 14.6113 14.3357C14.6361 14.3052 14.6557 14.2707 14.6692 14.2337C14.6776 14.2011 14.6776 14.167 14.6692 14.1344L14.5699 13.0593C14.56 12.9655 14.5817 12.8711 14.6317 12.7912C14.6817 12.7112 14.757 12.6503 14.8456 12.6182C14.9531 12.5823 15.0607 12.541 15.1654 12.4969H15.1985C15.2867 12.4583 15.3749 12.4142 15.4742 12.3645H15.4907C15.5955 12.3122 15.6975 12.257 15.7885 12.2019L16.0945 12.0172C16.1693 11.9693 16.2575 11.9464 16.3462 11.9518C16.4349 11.9573 16.5195 11.9908 16.5879 12.0475L17.5198 12.8084C17.5476 12.8291 17.5782 12.8458 17.6107 12.858C17.6397 12.8649 17.67 12.8649 17.699 12.858C17.7384 12.8561 17.7769 12.8458 17.812 12.8277C17.8435 12.8076 17.8714 12.7825 17.8947 12.7533C18.2117 12.3728 18.5232 11.9813 18.843 11.6037C18.8616 11.5798 18.8757 11.5527 18.8844 11.5237C18.8902 11.489 18.8902 11.4536 18.8844 11.4189C18.8796 11.3771 18.8685 11.3362 18.8513 11.2976C18.8335 11.2646 18.8102 11.2347 18.7824 11.2094L17.9553 10.5368C17.8779 10.4754 17.8246 10.3886 17.8049 10.2917C17.7852 10.1949 17.8004 10.0942 17.8478 10.0074C17.8987 9.91245 17.9447 9.81491 17.9857 9.71522C18.0325 9.60219 18.0739 9.49467 18.107 9.39542C18.14 9.29618 18.1731 9.18039 18.209 9.05633C18.2448 8.93227 18.2724 8.83027 18.2972 8.72C18.3182 8.6278 18.3696 8.54534 18.4431 8.48585C18.5165 8.42635 18.6079 8.39328 18.7024 8.39193L19.8493 8.27063C19.8895 8.26627 19.9286 8.25508 19.9651 8.23755C19.9942 8.2197 20.021 8.19841 20.045 8.17414C20.0654 8.1475 20.0812 8.1177 20.0919 8.08592C20.0978 8.05125 20.0978 8.01583 20.0919 7.98116L19.9485 6.52003C19.9438 6.4808 19.9326 6.44262 19.9155 6.407V6.39046C19.8965 6.36143 19.8732 6.33541 19.8465 6.31327C19.8193 6.29154 19.7886 6.27474 19.7556 6.26365C19.7255 6.25798 19.6946 6.25798 19.6646 6.26365L18.5811 6.34084C18.4875 6.34983 18.3936 6.32769 18.3138 6.27784C18.2341 6.228 18.173 6.15324 18.14 6.06515C18.1042 5.96315 18.0656 5.85563 18.016 5.74536C17.9664 5.63509 17.9195 5.5193 17.8726 5.42832V5.40902C17.8259 5.31457 17.7744 5.22255 17.7183 5.13334C17.6631 5.03961 17.5997 4.94587 17.5363 4.85766C17.4846 4.78146 17.459 4.6905 17.4635 4.5985C17.4679 4.5065 17.5022 4.41845 17.5611 4.34764L18.3165 3.41307C18.3404 3.3844 18.3591 3.35174 18.3716 3.31658C18.3775 3.29025 18.3775 3.26296 18.3716 3.23663C18.3659 3.19637 18.3538 3.15727 18.3358 3.12084V3.10154C18.3196 3.07695 18.3001 3.05469 18.2779 3.03538L17.2441 2.18627C17.1886 2.17164 17.1369 2.14532 17.0924 2.10908ZM28.5003 8.89092C28.4568 8.85392 28.4063 8.82605 28.3519 8.809C28.2974 8.79195 28.24 8.78606 28.1832 8.79167C28.0693 8.80459 27.9646 8.86085 27.891 8.94881L27.4692 9.45883C27.3352 9.38945 27.196 9.33046 27.0529 9.28239C26.9041 9.23553 26.7772 9.19417 26.6174 9.15834L26.5512 8.44707C26.5411 8.33349 26.4866 8.22848 26.3996 8.15484C26.3566 8.11837 26.3063 8.09141 26.2522 8.07573C26.198 8.06005 26.1411 8.05601 26.0853 8.06387L25.1865 8.15209C25.0796 8.16655 24.9816 8.21947 24.9109 8.30096C24.8734 8.34416 24.8453 8.3946 24.8282 8.44915C24.8112 8.50369 24.8055 8.56117 24.8116 8.61799L24.8723 9.27137C24.7266 9.31848 24.5855 9.37845 24.4505 9.45056C24.3166 9.51665 24.1876 9.5922 24.0645 9.67662L23.4966 9.21899C23.4555 9.18085 23.4066 9.15201 23.3533 9.13441C23.3 9.11681 23.2436 9.11087 23.1878 9.11698C23.0733 9.13004 22.9684 9.18743 22.8956 9.27688L22.3442 9.96333C22.3073 10.0068 22.2795 10.0573 22.2624 10.1117C22.2453 10.1661 22.2393 10.2234 22.2447 10.2802C22.2501 10.337 22.2668 10.3921 22.2938 10.4423C22.3209 10.4925 22.3577 10.5368 22.4021 10.5726L22.8818 10.9944C22.8122 11.128 22.7541 11.2672 22.7081 11.4107C22.6585 11.5595 22.6172 11.6864 22.5813 11.8463L21.8701 11.9124C21.7567 11.9234 21.652 11.9777 21.5778 12.0641C21.544 12.1088 21.5199 12.1601 21.5071 12.2147C21.4943 12.2693 21.493 12.326 21.5034 12.3811L21.5916 13.2771C21.6027 13.3896 21.6571 13.4934 21.7432 13.5665C21.7858 13.6042 21.8357 13.6325 21.8898 13.6495C21.944 13.6666 22.0011 13.6722 22.0575 13.6658L22.7109 13.6051C22.756 13.7493 22.8132 13.8895 22.8818 14.0242C22.9501 14.1604 23.0256 14.2929 23.1079 14.4212L22.6502 14.9725C22.6125 15.0138 22.584 15.0628 22.5669 15.1161C22.5498 15.1694 22.5443 15.2257 22.551 15.2813C22.5669 15.3897 22.623 15.4881 22.7081 15.557L23.4056 16.1552C23.4494 16.1913 23.5001 16.218 23.5547 16.2337C23.6092 16.2493 23.6664 16.2536 23.7227 16.2462C23.8369 16.2352 23.943 16.1821 24.0204 16.0973L24.445 15.579C24.5782 15.6501 24.7175 15.7091 24.8612 15.7555C25.004 15.8048 25.1495 15.8462 25.2968 15.8795L25.363 16.5935C25.3749 16.7058 25.4291 16.8093 25.5146 16.883C25.5581 16.9198 25.6087 16.9471 25.6633 16.9632C25.7179 16.9793 25.7752 16.9839 25.8316 16.9768L26.7276 16.8885C26.8398 16.8764 26.9432 16.8222 27.0171 16.7369C27.0545 16.6937 27.0826 16.6433 27.0997 16.5887C27.1168 16.5342 27.1224 16.4767 27.1163 16.4199L27.0529 15.7665C27.1989 15.7204 27.3402 15.6604 27.4747 15.5873C27.6103 15.5204 27.7419 15.4458 27.869 15.364L28.4203 15.8216C28.4635 15.8591 28.514 15.8872 28.5685 15.9043C28.6231 15.9213 28.6805 15.927 28.7374 15.9209C28.7941 15.9156 28.8493 15.899 28.8995 15.872C28.9497 15.845 28.9939 15.8082 29.0296 15.7637L29.603 15.069C29.6392 15.0252 29.6661 14.9745 29.6822 14.9201C29.6983 14.8656 29.7033 14.8084 29.6967 14.752C29.6861 14.637 29.6318 14.5305 29.5451 14.4542L29.0268 14.0352C29.105 13.9029 29.1705 13.7635 29.2226 13.6189C29.2715 13.4769 29.3129 13.3325 29.3466 13.1861L30.0607 13.1199C30.1683 13.1058 30.2667 13.0516 30.3363 12.9683C30.3732 12.9249 30.4006 12.8743 30.4168 12.8197C30.4329 12.7651 30.4374 12.7077 30.4301 12.6513L30.3418 11.7553C30.3264 11.648 30.2725 11.5501 30.1902 11.4796C30.1472 11.4417 30.0969 11.4131 30.0423 11.3955C29.9878 11.378 29.9302 11.3719 29.8732 11.3776L29.2198 11.441C29.1707 11.2961 29.1108 11.1551 29.0406 11.0192C28.9774 10.8838 28.9017 10.7546 28.8146 10.6332L29.275 10.0653C29.312 10.0236 29.34 9.97455 29.357 9.92139C29.3741 9.86824 29.38 9.81211 29.3742 9.75657C29.3613 9.6426 29.305 9.53796 29.2171 9.46434L28.5278 8.89919H28.5058L28.5003 8.89092ZM25.7765 10.7738C26.0104 10.7527 26.2461 10.776 26.4712 10.8428C26.687 10.9114 26.8881 11.0199 27.064 11.1626C27.2387 11.307 27.3839 11.4839 27.4913 11.6836C27.6036 11.8886 27.6713 12.115 27.6898 12.348C27.7111 12.5819 27.6877 12.8176 27.6208 13.0427C27.5572 13.2593 27.4514 13.4612 27.3095 13.6367C27.1675 13.8123 26.9923 13.958 26.7938 14.0655C26.5881 14.1756 26.3619 14.2423 26.1294 14.2613C25.8955 14.284 25.6595 14.2606 25.4347 14.1923C25.2182 14.1246 25.0162 14.0171 24.8392 13.8753C24.6659 13.729 24.5219 13.5513 24.4146 13.3515C24.2961 13.1463 24.2236 12.9177 24.2024 12.6816C24.1653 12.3376 24.2321 11.9904 24.3943 11.6847C24.5565 11.3791 24.8065 11.129 25.1121 10.9668C25.3168 10.8538 25.5434 10.7861 25.7765 10.7683V10.7738ZM17.2468 1.24067C17.3433 1.27098 17.4358 1.31263 17.5225 1.36473C17.5833 1.37928 17.6398 1.40757 17.6879 1.44744L18.7989 2.37098C18.902 2.45545 18.9897 2.55711 19.0581 2.67148L19.0801 2.70731C19.1504 2.83735 19.1953 2.97955 19.2125 3.12636C19.2317 3.28048 19.2157 3.43696 19.1656 3.58399C19.1219 3.71316 19.0556 3.83356 18.9699 3.93963L18.4019 4.64538L18.4378 4.70327C18.5101 4.82443 18.5754 4.94961 18.6335 5.0782C18.6997 5.20686 18.7548 5.3254 18.7989 5.43384L18.821 5.48897L19.5653 5.41729C19.7098 5.40056 19.8562 5.41369 19.9954 5.45589H20.0175C20.1453 5.49825 20.2647 5.56262 20.3703 5.64611L20.4089 5.6792C20.5074 5.7656 20.5903 5.86816 20.6543 5.98245L20.6763 6.01829C20.7397 6.14326 20.7799 6.27871 20.7949 6.41803C20.7949 6.78745 20.8886 7.50423 20.9382 7.89019C20.9547 8.02961 20.9444 8.1709 20.9079 8.30647V8.33128C20.8658 8.47343 20.7955 8.60564 20.7012 8.72C20.6106 8.83216 20.4992 8.92577 20.3731 8.99568C20.2422 9.06291 20.1002 9.10587 19.9541 9.1225L19.0774 9.19969L19.0553 9.27964C19.025 9.38991 18.9864 9.51397 18.9368 9.65457C18.8872 9.79517 18.8458 9.93025 18.7989 10.0323L18.7769 10.0791L19.3806 10.5671C19.4952 10.6662 19.5889 10.7871 19.6563 10.9227C19.7066 11.0438 19.7365 11.1723 19.7445 11.3032V11.3169C19.7631 11.4649 19.7509 11.615 19.7087 11.758C19.6704 11.8924 19.6078 12.0185 19.524 12.1302L18.5618 13.2936C18.47 13.4066 18.3566 13.5003 18.2283 13.5693C18.0983 13.642 17.9547 13.687 17.8065 13.7016C17.6594 13.7187 17.5104 13.7065 17.3681 13.6658H17.3461C17.2206 13.6232 17.1032 13.5598 16.9987 13.4783L16.2847 12.8966L16.213 12.938C16.0917 13.0096 15.9732 13.0731 15.8601 13.1282C15.7471 13.1833 15.6506 13.233 15.5376 13.2826L15.4383 13.3157L15.5155 14.06C15.5326 14.2132 15.5166 14.3684 15.4687 14.5149C15.4222 14.6507 15.3511 14.7769 15.2591 14.8871L15.2426 14.9036C15.1534 15.0039 15.0481 15.0887 14.9311 15.1545H14.9035C14.7792 15.2171 14.6448 15.2572 14.5065 15.273C14.1371 15.273 13.4203 15.3695 13.0344 15.4191C12.8864 15.4355 12.7367 15.4233 12.5933 15.3833C12.4509 15.3404 12.3187 15.2691 12.2046 15.1738H12.1908C12.0847 15.0797 11.9961 14.9677 11.9289 14.843C11.86 14.7127 11.817 14.5705 11.8021 14.4239L11.7221 13.55L11.6449 13.5279L11.27 13.4094C11.1377 13.3653 10.9943 13.3184 10.8923 13.2688L10.8399 13.2467L10.3437 13.8505C10.2527 13.9535 10.1433 14.0386 10.0211 14.1014L9.99081 14.1207C9.86969 14.1774 9.74036 14.2146 9.60761 14.2309H9.59382C9.44498 14.2493 9.29395 14.2371 9.14997 14.1951C9.01753 14.155 8.89335 14.0915 8.78331 14.0076L7.61717 13.0455C7.50474 12.953 7.41115 12.8397 7.34148 12.7119C7.27117 12.5829 7.22625 12.4416 7.20915 12.2956C7.1913 12.1469 7.20732 11.9961 7.25602 11.8545C7.2968 11.7274 7.36032 11.6088 7.44348 11.5044L8.02518 10.7904L7.99485 10.7215C7.9342 10.6195 7.87631 10.5092 7.81842 10.3934C7.7495 10.2666 7.6916 10.1453 7.63922 10.0212L7.61441 9.95782L6.87557 10.0267C6.72345 10.0447 6.56925 10.0296 6.42345 9.98263C6.29499 9.94048 6.17538 9.87507 6.07058 9.78965L6.02922 9.75933C5.91685 9.66246 5.82338 9.54562 5.75354 9.41472C5.69053 9.29057 5.65038 9.1561 5.63499 9.01774C5.63499 8.64556 5.5385 7.93981 5.48888 7.54834C5.46619 7.3966 5.47464 7.24183 5.51369 7.09346C5.55661 6.95108 5.62788 6.81886 5.72321 6.70474C5.81625 6.59394 5.92827 6.50058 6.05403 6.42906C6.18445 6.36116 6.32672 6.31904 6.47307 6.305L7.347 6.22505L7.36905 6.1451C7.40213 6.03759 7.44073 5.91077 7.48759 5.77293C7.53446 5.63509 7.58133 5.49724 7.62819 5.39248L7.65025 5.3401L7.08509 4.86041C6.97573 4.77562 6.88237 4.67199 6.80941 4.5544L6.79287 4.52683C6.72975 4.40488 6.69046 4.27202 6.67708 4.13536V4.11331C6.6614 3.9639 6.67641 3.81286 6.72119 3.66945C6.76698 3.52716 6.84001 3.39514 6.93622 3.28074L7.85977 2.15319C7.94415 2.04973 8.04697 1.9628 8.16302 1.8968L8.1961 1.87475C8.32549 1.80297 8.468 1.75797 8.61514 1.74242C8.76654 1.72319 8.92034 1.73923 9.06451 1.78929C9.19347 1.8335 9.3138 1.89972 9.42014 1.98502L10.1287 2.55569L10.2003 2.50055C10.3134 2.43439 10.4291 2.37374 10.5449 2.31584C10.6607 2.25795 10.7875 2.19454 10.9006 2.14492L10.9667 2.12011L10.8923 1.37852C10.8756 1.23403 10.8887 1.08764 10.9309 0.948447V0.926392C10.9733 0.798579 11.0376 0.679156 11.1211 0.573516L11.1625 0.551461C11.2573 0.439253 11.3724 0.345755 11.5016 0.275777C11.626 0.210077 11.7615 0.168014 11.9013 0.151719C12.2707 0.151719 12.9875 0.0579857 13.3735 0.0083625C13.5214 -0.00962028 13.6715 0.00257153 13.8146 0.0442015C13.9567 0.0862922 14.0889 0.156615 14.2033 0.250965C14.3142 0.342839 14.4076 0.453976 14.479 0.57903C14.5494 0.712928 14.5943 0.85877 14.6113 1.0091L14.6885 1.88577L14.7684 1.90783C14.8759 1.93815 15.0028 1.97675 15.1434 2.02362L15.521 2.16422L15.5762 2.18903L16.0531 1.61285C16.1462 1.49995 16.2605 1.4063 16.3895 1.33716C16.5214 1.26344 16.6666 1.21659 16.8168 1.19932C16.966 1.18084 17.1174 1.19495 17.2606 1.24067H17.2468ZM12.8772 4.44137C13.0891 4.42347 13.3022 4.42347 13.5141 4.44137C13.7347 4.46298 13.9526 4.50638 14.1647 4.57094C14.3667 4.63436 14.5624 4.71651 14.7491 4.8163L14.7739 4.83009C14.9486 4.9268 15.1147 5.0384 15.2702 5.16367C15.5938 5.43798 15.8639 5.76979 16.0669 6.14235C16.1739 6.33343 16.2589 6.53595 16.3205 6.74609C16.3847 6.95785 16.4254 7.17604 16.4418 7.39671C16.4611 7.60763 16.4611 7.81987 16.4418 8.03079C16.423 8.25158 16.3805 8.46971 16.315 8.6814V8.70897C16.2525 8.89943 16.1732 9.08395 16.0779 9.26034C15.9783 9.44449 15.863 9.61974 15.7333 9.78414L15.7058 9.81446C15.4373 10.1293 15.1129 10.392 14.7491 10.5891C14.5563 10.6945 14.353 10.7795 14.1426 10.8428C13.9311 10.9041 13.7141 10.9447 13.4948 10.9641C13.2792 10.982 13.0625 10.982 12.8469 10.9641C12.6262 10.9428 12.4083 10.8994 12.1963 10.8345C11.9953 10.7706 11.8006 10.6884 11.6146 10.5891C11.4306 10.4882 11.2554 10.372 11.0908 10.2418C10.9302 10.1069 10.7825 9.95741 10.6497 9.79517C10.5149 9.62957 10.395 9.45245 10.2913 9.26585C10.1867 9.07304 10.1026 8.86975 10.0404 8.65935C9.97623 8.44759 9.93555 8.2294 9.91913 8.00873C9.89988 7.79781 9.89988 7.58558 9.91913 7.37466C9.93794 7.15386 9.98045 6.93573 10.0459 6.72404C10.1088 6.52182 10.191 6.3261 10.2913 6.13959L10.3051 6.11478C10.4005 5.9384 10.5121 5.77134 10.6387 5.61579L10.6607 5.58822C10.7901 5.43403 10.9341 5.29277 11.0908 5.16642C11.2564 5.03256 11.4336 4.91356 11.6201 4.81079C11.8119 4.70527 12.0143 4.62026 12.2239 4.55716C12.4364 4.49609 12.6542 4.45548 12.8745 4.43586L12.8772 4.44137ZM13.4286 5.28772C13.2654 5.27256 13.1011 5.27256 12.9379 5.28772C12.7764 5.30116 12.6166 5.33071 12.4609 5.37594C12.3089 5.42104 12.1619 5.48203 12.0226 5.55789C11.8799 5.6381 11.7444 5.73033 11.6173 5.83358C11.5042 5.92554 11.399 6.02699 11.3031 6.13683C11.2097 6.25344 11.1267 6.37797 11.055 6.50901V6.53106C10.9811 6.67134 10.9202 6.81806 10.873 6.9694C10.8157 7.12833 10.775 7.29279 10.7517 7.46012C10.7379 7.6234 10.7379 7.78755 10.7517 7.95084C10.765 8.1135 10.7955 8.2743 10.8427 8.43053C10.8874 8.58583 10.9493 8.73563 11.0274 8.87714C11.1066 9.01956 11.1989 9.1543 11.3031 9.27964C11.4001 9.40055 11.5091 9.51138 11.6284 9.61046C11.7501 9.70723 11.8802 9.79303 12.0171 9.86685C12.1586 9.94094 12.3061 10.0027 12.4582 10.0516C12.6132 10.1003 12.7732 10.1317 12.9351 10.1453C13.1011 10.1605 13.2681 10.1605 13.4341 10.1453C13.5965 10.1316 13.7572 10.1021 13.9138 10.0571C14.0604 10.0113 14.2017 9.95028 14.3356 9.87511C14.4789 9.7959 14.6146 9.70361 14.7409 9.59943C14.8543 9.50572 14.9594 9.40241 15.0551 9.29066C15.1591 9.16712 15.2514 9.03423 15.3308 8.89368C15.4011 8.75875 15.461 8.61867 15.51 8.47464V8.4581C15.5579 8.30177 15.5902 8.14109 15.6065 7.97841C15.6203 7.81512 15.6203 7.65097 15.6065 7.48769C15.5933 7.32502 15.5628 7.16422 15.5155 7.008C15.4706 6.85583 15.4096 6.70889 15.3336 6.56966C15.255 6.42683 15.1627 6.29203 15.0579 6.16716C14.9608 6.04625 14.8518 5.93541 14.7326 5.83634C14.6174 5.74453 14.4947 5.66246 14.3659 5.59098H14.3439C14.2025 5.51675 14.0549 5.45495 13.9028 5.40627C13.7486 5.35787 13.5896 5.32644 13.4286 5.31254V5.28772ZM4.47988 23.6676C4.6741 23.6671 4.86412 23.7242 5.02588 23.8317C5.18764 23.9392 5.31386 24.0923 5.38857 24.2716C5.46327 24.4508 5.4831 24.6483 5.44555 24.8388C5.40799 25.0294 5.31473 25.2045 5.17759 25.3421C5.04044 25.4796 4.86557 25.5733 4.67512 25.6114C4.48466 25.6495 4.28719 25.6302 4.10769 25.556C3.9282 25.4818 3.77475 25.3561 3.66679 25.1946C3.55883 25.0331 3.5012 24.8433 3.50119 24.6491C3.50119 24.3892 3.60422 24.14 3.78768 23.956C3.97113 23.7721 4.22006 23.6683 4.47988 23.6676Z" fill="white"/>
</g>
<defs>
<clipPath id="clip0_1586_602">
<rect width="33.8761" height="30" fill="white"/>
</clipPath>
</defs>
</svg>
