<svg width="1400" height="272" viewBox="0 0 1400 272" fill="none" xmlns="http://www.w3.org/2000/svg">
<g clip-path="url(#clip0_15_32)">
<path d="M1095.47 266.463V239.276L1348 32.6354H1106.35V5.43923H1394.56V32.6254L1140.68 239.266H1400V266.453H1095.47V266.463Z" fill="#1C2323"/>
<path d="M1056.75 5.43923H1024.13V32.6155H1056.75V5.43923Z" fill="#1C2323"/>
<path d="M1056.75 59.7619H1024.13V266.463H1056.75V59.7619Z" fill="#1C2323"/>
<path d="M851.244 208.152L868.566 240.271L994.892 5.06136H958.02L851.244 208.152Z" fill="#1C2323"/>
<path d="M707.865 5.06136H670.487L811.191 266.085H845.099L707.865 5.06136Z" fill="#1C2323"/>
<path d="M649.645 74.3494C647.378 58.6582 643.47 45.8804 637.921 36.0262C632.373 26.1719 624.805 18.6346 615.239 13.4241C605.664 8.21353 593.632 4.67356 579.124 2.80414C564.616 0.934712 547.175 0 526.78 0H458.297C437.903 0 420.461 0.934712 405.953 2.80414C391.455 4.67356 379.414 8.21353 369.838 13.4241C360.262 18.6346 352.705 26.1719 347.156 36.0262C341.607 45.8804 337.7 58.6582 335.432 74.3494C333.165 90.0406 332.032 109.441 332.032 132.55V139.352C332.032 167.333 333.871 190.055 337.55 207.496C341.23 224.947 347.693 238.312 356.921 247.599C366.149 256.887 378.986 263.261 395.413 266.721C411.84 270.172 432.802 271.902 458.287 271.902H526.77C552.256 271.902 573.217 270.172 589.644 266.721C606.071 263.271 618.899 256.897 628.136 247.599C637.364 238.312 643.828 224.937 647.507 207.496C651.186 190.055 653.026 167.333 653.026 139.352V132.55C653.046 109.441 651.912 90.0406 649.645 74.3494ZM618.372 83.2689C619.734 96.1859 620.41 112.613 620.41 132.55V139.352C620.41 146.084 620.321 152.398 620.162 158.324H535.689C535.491 158.324 535.391 158.225 535.391 158.026L540.632 150.568L612.704 57.0373C615.369 63.9681 617.258 72.7087 618.372 83.2689ZM375.893 220.731C375.317 219.747 374.77 218.743 374.263 217.688C370.584 210.101 368.058 199.959 366.705 187.271C365.343 174.582 364.667 158.613 364.667 139.352V132.55C364.667 125.629 364.747 119.146 364.916 113.07H427.869L493.269 28.2104H523.976L458.516 113.15V113.369L375.893 220.731ZM401.926 239.227L563.681 29.3341C565.063 29.4335 566.426 29.5429 567.738 29.6523C576.658 30.4279 584.225 32.0189 590.48 34.4054L429.759 242.956C425.314 242.697 421.177 242.379 417.339 241.981C411.661 241.414 406.53 240.49 401.926 239.227Z" fill="url(#paint0_linear_15_32)"/>
<path d="M299.088 32.6254V5.43923H10.8785V32.6254H252.531H299.088Z" fill="#1C2323"/>
<path d="M45.2043 239.276L265.757 59.7619H219.369L0 239.276V266.463H304.527V239.276H45.2043Z" fill="#1C2323"/>
</g>
<defs>
<linearGradient id="paint0_linear_15_32" x1="362.947" y1="17.8987" x2="626.953" y2="247.102" gradientUnits="userSpaceOnUse">
<stop stop-color="#0DF485"/>
<stop offset="0.359375" stop-color="#09D88B"/>
<stop offset="0.681967" stop-color="#04BC92"/>
<stop offset="1" stop-color="#00A098"/>
</linearGradient>
<clipPath id="clip0_15_32">
<rect width="1400" height="271.902" fill="white"/>
</clipPath>
</defs>
</svg>
