<svg width="71" height="72" viewBox="0 0 71 72" fill="none" xmlns="http://www.w3.org/2000/svg">
<path d="M11.6253 57.7783C8.50365 48.4082 17.4843 35.4377 29.3465 27.4062C41.2567 19.3285 56.0485 16.2359 63.9246 21.8672C71.8007 27.4523 72.7612 41.7614 68.4869 52.6548C64.2127 63.5481 54.6557 71.0258 42.3133 71.9028C29.9228 72.826 14.7469 67.1023 11.6253 57.7783Z" fill="#E6FFF9"/>
<g clip-path="url(#clip0_258_586)">
<path d="M42.8908 37.9045C45.5499 37.9045 47.962 38.9868 49.7085 40.7266C51.4555 42.474 52.5311 44.8789 52.5311 47.5452C52.5311 49.4905 51.951 51.3077 50.9604 52.821L55.1338 57.3695L52.2549 60L48.2301 55.5728C46.7025 56.5911 44.8638 57.1851 42.8903 57.1851C40.2312 57.1851 37.8191 56.1037 36.0721 54.363C34.3251 52.6165 33.2496 50.2116 33.2496 47.5452C33.2496 44.8861 34.3319 42.474 36.0721 40.7266C37.8195 38.9796 40.224 37.9045 42.8908 37.9045ZM18.9127 40.5865C18.2019 40.5865 17.6254 39.9965 17.6254 39.2858C17.6254 38.562 18.2023 37.9859 18.9127 37.9859H27.3064C28.0172 37.9859 28.5937 38.575 28.5937 39.2858C28.5937 40.0104 28.0172 40.5865 27.3064 40.5865H18.9127ZM18.9127 22.2973C18.2019 22.2973 17.6254 21.7208 17.6254 21.01C17.6254 20.2997 18.2023 19.7232 18.9127 19.7232H35.9414C36.6522 19.7232 37.2287 20.2997 37.2287 21.01C37.2287 21.7208 36.6522 22.2973 35.9414 22.2973H18.9127ZM29.031 52.7082C29.7418 52.7082 30.3183 53.2843 30.3183 53.9951C30.3183 54.7058 29.7418 55.2828 29.031 55.2828H9.00381C8.17263 55.2828 7.42156 54.9471 6.88534 54.397C6.33525 53.8612 6 53.1102 6 52.279V8.00336C6 7.17218 6.33525 6.42111 6.88534 5.88489C7.43499 5.33525 8.17263 5 9.00381 5H45.8373C46.6685 5 47.4195 5.33525 47.9557 5.88534C48.5054 6.43499 48.8406 7.17218 48.8406 8.00381V34.1308C48.8406 34.8416 48.2641 35.4185 47.5534 35.4185C46.843 35.4185 46.2661 34.8416 46.2661 34.1308V8.00336C46.2661 7.88251 46.2128 7.78896 46.1452 7.7084C46.0647 7.62783 45.9577 7.58755 45.8507 7.58755H9.01724C8.89639 7.58755 8.80284 7.64126 8.72227 7.7084C8.6417 7.78896 8.60142 7.89594 8.60142 8.00336V52.2785C8.60142 52.3994 8.65513 52.4929 8.72227 52.5731C8.80284 52.6536 8.90981 52.6939 9.01724 52.6939H29.0444L29.031 52.7082ZM18.9127 31.4417C18.2019 31.4417 17.6254 30.8652 17.6254 30.1548C17.6254 29.444 18.2023 28.8675 18.9127 28.8675H35.9414C36.6522 28.8675 37.2287 29.444 37.2287 30.1548C37.2287 30.8652 36.6522 31.4417 35.9414 31.4417H18.9127ZM48.4369 41.9982C47.018 40.5793 45.0549 39.698 42.8908 39.698C40.7262 39.698 38.763 40.5793 37.3442 41.9982C35.9248 43.418 35.0435 45.3807 35.0435 47.5452C35.0435 49.7089 35.9248 51.6725 37.3442 53.0914C38.763 54.5103 40.7262 55.3916 42.8908 55.3916C45.0549 55.3916 47.018 54.5103 48.4369 53.0914C49.8562 51.6725 50.7375 49.7089 50.7375 47.5452C50.7371 45.3807 49.8558 43.418 48.4369 41.9982Z" fill="#009A77"/>
</g>
<defs>
<clipPath id="clip0_258_586">
<rect width="49.1338" height="55" fill="white" transform="translate(6 5)"/>
</clipPath>
</defs>
</svg>
