<svg width="71" height="72" viewBox="0 0 71 72" fill="none" xmlns="http://www.w3.org/2000/svg">
<path d="M11.6253 57.7783C8.50365 48.4082 17.4843 35.4377 29.3465 27.4062C41.2567 19.3285 56.0485 16.2359 63.9246 21.8672C71.8007 27.4523 72.7612 41.7614 68.4869 52.6548C64.2127 63.5481 54.6557 71.0258 42.3133 71.9028C29.9228 72.826 14.7469 67.1023 11.6253 57.7783Z" fill="#E6FFF9"/>
<g clip-path="url(#clip0_258_555)">
<path d="M40.5279 7.11711C40.5279 5.94889 41.6827 5 43.1105 5C44.5383 5 45.6931 5.94889 45.6931 7.11711V16.3912C45.6931 17.5594 44.5383 18.5083 43.1105 18.5083C41.6827 18.5083 40.5279 17.5594 40.5279 16.3912V7.11711ZM17.2532 7.11711C17.2532 5.94889 18.408 5 19.8358 5C21.2636 5 22.4184 5.94889 22.4184 7.11711V16.3912C22.4184 17.5594 21.2636 18.5083 19.8358 18.5083C18.408 18.5083 17.2532 17.5594 17.2532 16.3912V7.11711ZM22.3468 42.8483C21.7783 42.3022 21.7604 41.3981 22.3065 40.8297C22.8525 40.2612 23.7567 40.2433 24.3251 40.7894L28.7563 45.0728L38.6122 34.5186C39.1493 33.9412 40.0535 33.9099 40.6309 34.447C41.2083 34.9841 41.2396 35.8883 40.7025 36.4657L29.8573 48.0851L29.8394 48.103C29.2934 48.6715 28.3892 48.6894 27.8208 48.1433L22.3468 42.8483ZM6.86458 25.2848H56.1354V14.6098C56.1354 14.2517 55.9877 13.925 55.7505 13.6833C55.5133 13.446 55.1865 13.2983 54.824 13.2983H50.1019C49.3097 13.2983 48.6696 12.6583 48.6696 11.866C48.6696 11.0738 49.3097 10.4338 50.1019 10.4338H54.824C55.9743 10.4338 57.0172 10.9037 57.7736 11.6602C58.53 12.4166 59 13.4595 59 14.6098V26.7216V55.8284C59 56.9788 58.53 58.0216 57.7736 58.7781C57.0172 59.5345 55.9743 60.0045 54.824 60.0045H8.17603C7.02572 60.0045 5.98283 59.5345 5.2264 58.7781C4.46997 58.0172 4 56.9743 4 55.824V26.7216V14.6098C4 13.4595 4.46997 12.4166 5.2264 11.6602C5.98283 10.9037 7.02572 10.4338 8.17603 10.4338H13.2204C14.0126 10.4338 14.6527 11.0738 14.6527 11.866C14.6527 12.6583 14.0126 13.2983 13.2204 13.2983H8.17603C7.81795 13.2983 7.49121 13.446 7.24951 13.6833C7.01229 13.9205 6.86458 14.2472 6.86458 14.6098V25.2848ZM56.1354 28.1539H6.86458V55.824C6.86458 56.182 7.01229 56.5088 7.24951 56.7505C7.48674 56.9877 7.81348 57.1354 8.17603 57.1354H54.824C55.182 57.1354 55.5088 56.9877 55.7505 56.7505C55.9877 56.5133 56.1354 56.1865 56.1354 55.824V28.1539ZM26.572 13.2983C25.7798 13.2983 25.1397 12.6583 25.1397 11.866C25.1397 11.0738 25.7798 10.4338 26.572 10.4338H36.1908C36.983 10.4338 37.6231 11.0738 37.6231 11.866C37.6231 12.6583 36.983 13.2983 36.1908 13.2983H26.572Z" fill="#009A77"/>
</g>
<defs>
<clipPath id="clip0_258_555">
<rect width="55" height="55" fill="white" transform="translate(4 5)"/>
</clipPath>
</defs>
</svg>
