<svg width="71" height="72" viewBox="0 0 71 72" fill="none" xmlns="http://www.w3.org/2000/svg">
<path d="M11.6253 57.7783C8.50365 48.4082 17.4843 35.4377 29.3465 27.4062C41.2567 19.3285 56.0485 16.2359 63.9246 21.8672C71.8007 27.4523 72.7612 41.7614 68.4869 52.6548C64.2127 63.5481 54.6557 71.0258 42.3133 71.9028C29.9228 72.826 14.7469 67.1023 11.6253 57.7783Z" fill="#E6FFF9"/>
<g clip-path="url(#clip0_258_524)">
<path fill-rule="evenodd" clip-rule="evenodd" d="M41.8584 35.2348C44.7225 35.2361 47.4975 36.2304 49.7107 38.0483C51.9238 39.8661 53.4383 42.3951 53.996 45.2043C54.5537 48.0135 54.1202 50.9292 52.7693 53.4547C51.4184 55.9801 49.2337 57.9591 46.5873 59.0544C43.941 60.1497 40.9968 60.2936 38.2562 59.4616C35.5157 58.6297 33.1483 56.8732 31.5576 54.4916C29.9668 52.1099 29.251 49.2504 29.532 46.4002C29.8131 43.5499 31.0737 40.8853 33.099 38.8603C34.2487 37.7094 35.6143 36.7967 37.1174 36.1745C38.6205 35.5524 40.2316 35.2331 41.8584 35.2348ZM46.7371 50.6274C46.817 50.6239 46.8964 50.6134 46.9744 50.5961C47.0531 50.5818 47.1298 50.5577 47.2026 50.5245C47.4465 50.4274 47.6566 50.2609 47.8069 50.0456C47.9608 49.8309 48.048 49.5755 48.0575 49.3115V49.2175C48.051 48.9167 47.9458 48.6263 47.7582 48.391C47.5706 48.1557 47.311 47.9885 47.0191 47.915C46.9322 47.8962 46.8439 47.8843 46.755 47.8792C46.2358 47.8792 43.5145 47.8345 42.955 47.8031L42.4761 47.7763L42.6283 43.1706C42.6349 43.0827 42.6349 42.9944 42.6283 42.9065C42.6112 42.8211 42.5873 42.7373 42.5566 42.6558C42.5245 42.5729 42.484 42.4934 42.4358 42.4186C42.387 42.3437 42.3316 42.2733 42.2702 42.2083C42.2072 42.1468 42.1399 42.09 42.0688 42.0382C41.9964 41.9861 41.9183 41.9426 41.836 41.9084C41.7549 41.8734 41.6711 41.8449 41.5854 41.8233C41.5014 41.8058 41.416 41.7953 41.3302 41.792H41.2855C41.1124 41.7904 40.9407 41.8224 40.7797 41.886C40.6146 41.9519 40.4629 42.0475 40.3321 42.168L40.3008 42.1993C40.2466 42.2575 40.1958 42.3188 40.1486 42.3828C40.1025 42.4549 40.0607 42.5296 40.0233 42.6066C39.9538 42.768 39.9158 42.9412 39.9114 43.1169L39.6742 49.0475C39.6673 49.1353 39.6673 49.2236 39.6742 49.3115C39.6891 49.3988 39.7131 49.4843 39.7458 49.5667C39.7745 49.6503 39.8136 49.73 39.8621 49.8039C39.9067 49.8794 39.9592 49.95 40.0188 50.0142C40.0734 50.0751 40.135 50.1291 40.2023 50.1754C40.2699 50.22 40.3401 50.2603 40.4127 50.2962C40.4919 50.3334 40.5743 50.3633 40.6589 50.3857C40.7399 50.4039 40.8222 50.4159 40.905 50.4216C41.3258 50.4216 41.7644 50.4708 42.212 50.5021C42.9819 50.5558 45.927 50.6095 46.6342 50.5916L46.7371 50.6274ZM47.046 30.732V32.3031C46.1035 31.9893 45.1341 31.763 44.1501 31.6272V30.732V21.1894H32.0248C31.6366 21.1894 31.2644 21.0352 30.9899 20.7607C30.7154 20.4862 30.5612 20.1139 30.5612 19.7258V7.9004H9.91829V51.9971H26.3046V52.0374V52.0821V52.109V52.1448V52.1806V52.2209V52.2567V52.2835V52.3238V52.3507V52.382V52.4223V52.4581V52.485V52.5252L26.3315 52.6013V52.6416V52.6729L26.3673 52.7893V52.8251V52.8565V52.8833V52.9146L26.3986 52.9952V53.0221V53.0668L26.4255 53.1429V53.1742C26.4792 53.313 26.5329 53.4517 26.5911 53.5905L26.6672 53.7695L26.7432 53.9486L26.8417 54.1679C26.9223 54.3469 27.0073 54.5215 27.0924 54.6961H9.60946C8.9179 54.694 8.25513 54.4189 7.76538 53.9307C7.32085 53.4949 7.04899 52.913 7 52.2925V7.60946C7.00118 6.91776 7.27649 6.25472 7.7656 5.76561C8.25471 5.2765 8.91775 5.00119 9.60946 5.00001H32.0248C32.24 4.99931 32.4525 5.04678 32.6469 5.13895C32.8413 5.23112 33.0126 5.36564 33.1483 5.53264L45.9941 18.0652C46.2991 18.1512 46.5674 18.3348 46.7582 18.5878C46.949 18.8408 47.0516 19.1493 47.0505 19.4662V30.732H47.046ZM33.4795 10.1025L42.1986 18.2756H33.4795V10.1025ZM15.4416 29.6936C15.5354 29.5853 15.6507 29.4975 15.7801 29.4359C15.9095 29.3743 16.0503 29.3401 16.1935 29.3355H33.3318C33.4786 29.3359 33.6237 29.3676 33.7572 29.4286C33.8908 29.4895 34.0097 29.5784 34.1061 29.6891C34.3042 29.9178 34.4133 30.2102 34.4133 30.5127C34.4133 30.8152 34.3042 31.1076 34.1061 31.3363C34.0103 31.4468 33.8921 31.5359 33.7595 31.5976C33.6268 31.6593 33.4826 31.6923 33.3363 31.6943H16.2114C16.0647 31.6937 15.9197 31.6619 15.7862 31.6009C15.6527 31.54 15.5337 31.4513 15.4371 31.3407C15.2366 31.1115 15.1261 30.8173 15.1261 30.5127C15.1261 30.2081 15.2366 29.9139 15.4371 29.6847L15.4416 29.6936ZM15.4416 21.9413C15.5376 21.8314 15.6559 21.743 15.7886 21.6821C15.9213 21.6211 16.0654 21.589 16.2114 21.5877H26.3404C26.4846 21.5885 26.627 21.6191 26.7588 21.6776C26.8905 21.7362 27.0087 21.8214 27.1058 21.9279C27.3066 22.1579 27.4173 22.4529 27.4173 22.7582C27.4173 23.0635 27.3066 23.3585 27.1058 23.5885C27.0099 23.699 26.8918 23.7881 26.7591 23.8498C26.6265 23.9115 26.4822 23.9445 26.3359 23.9465H16.2114C16.0647 23.9459 15.9197 23.9141 15.7862 23.8531C15.6527 23.7922 15.5337 23.7035 15.4371 23.5929C15.2362 23.363 15.1256 23.068 15.1256 22.7627C15.1256 22.4573 15.2362 22.1624 15.4371 21.9324L15.4416 21.9413ZM27.9204 39.4645H16.2249C16.0774 39.4643 15.9316 39.4326 15.7974 39.3716C15.6631 39.3107 15.5433 39.2218 15.446 39.1109C15.2462 38.88 15.1379 38.5838 15.1417 38.2784C15.1388 37.9751 15.2489 37.6815 15.4505 37.4548C15.5472 37.3442 15.6662 37.2551 15.7996 37.1934C15.933 37.1317 16.0779 37.0988 16.2249 37.0968H29.6123C28.9781 37.8334 28.4118 38.6259 27.9204 39.4645ZM15.4505 45.1892C15.5472 45.0785 15.6662 44.9895 15.7996 44.9278C15.933 44.8661 16.0779 44.8332 16.2249 44.8311H25.9465C25.8097 45.6134 25.7319 46.4049 25.7138 47.1989H16.2249C16.0774 47.1986 15.9316 47.167 15.7974 47.106C15.6631 47.045 15.5433 46.9562 15.446 46.8453C15.2469 46.6157 15.1386 46.3212 15.1417 46.0173C15.1381 45.7125 15.2482 45.4173 15.4505 45.1892ZM49.0199 40.4716C47.3674 38.8217 45.1942 37.7955 42.8702 37.5677C40.5462 37.34 38.2151 37.9247 36.2737 39.2224C34.3324 40.5201 32.9008 42.4506 32.2227 44.6851C31.5446 46.9196 31.662 49.32 32.5547 51.4778C33.4475 53.6355 35.0605 55.4171 37.1191 56.5193C39.1778 57.6215 41.5548 57.9761 43.8455 57.5228C46.1362 57.0695 48.199 55.8363 49.6827 54.0331C51.1664 52.2299 51.9793 49.9682 51.9829 47.6331C51.9872 46.3027 51.7275 44.9847 51.2189 43.7555C50.7103 42.5262 49.9628 41.41 49.0199 40.4716Z" fill="#009A77"/>
</g>
<defs>
<clipPath id="clip0_258_524">
<rect width="47.2388" height="55" fill="white" transform="translate(7 5)"/>
</clipPath>
</defs>
</svg>
