<svg width="254" height="42" viewBox="0 0 254 42" fill="none" xmlns="http://www.w3.org/2000/svg">
<path d="M100.184 9.28371C100.101 9.34545 100.039 14.8611 100.039 21.5292V33.6306H102.622H105.205V26.6332V19.6358H111.364C117.956 19.6358 118.142 19.6564 118.927 20.7266C119.34 21.2822 119.361 21.591 119.423 27.477L119.485 33.6306H122.068H124.651L124.589 26.9831C124.486 19.5123 124.383 18.8331 123.04 17.3513C121.324 15.4579 120.394 15.2727 112.087 15.1698L105.205 15.0669V12.1033V9.13965H102.767C101.424 9.13965 100.246 9.20139 100.184 9.28371Z" fill="#0D4048"/>
<path d="M49.6558 9.82915C49.6202 11.7054 49.4616 14.9348 49.2364 16.2905C48.5606 20.3456 46.9764 23.2533 44.8423 25.5532C42.7794 27.7805 40.7165 28.6883 38.0252 28.5552C35.8319 28.4462 34.184 27.7199 32.7494 26.2432C31.2674 24.7059 30.5561 22.8659 30.5561 20.5418C30.5561 18.2177 31.22 16.5231 32.7494 14.9616C33.8876 13.7995 35.0969 13.1095 36.6737 12.7222C37.5629 12.5043 37.9897 12.4801 39.3887 12.5164C40.8469 12.5648 41.167 12.6132 42.0799 12.9401C43.3841 13.4 44.2614 13.9327 45.2336 14.8526C46.0279 15.6031 46.6919 16.511 47.1542 17.4914C47.5336 18.3267 47.664 18.0846 47.6047 16.5836C47.6047 15.9706 47.5218 15.2521 47.1305 14.4289C46.3836 12.8674 45.0083 11.7659 42.8861 11.0396C40.3846 10.1802 36.9108 10.2407 34.6108 11.197C33.3422 11.7175 32.5479 12.2743 31.386 13.4606C29.7499 15.131 28.9792 16.7167 28.6473 19.1619C28.3865 21.0623 28.8133 23.568 29.6787 25.178C31.8365 29.1362 36.7092 30.9882 41.0603 29.4993C45.447 27.9984 48.9159 23.3528 49.8762 16.6104C50.1134 14.8795 49.9048 11.9959 49.7862 10.3133C49.6914 9.00603 49.6795 8.98182 49.6558 9.82915Z" fill="#0D4048" stroke="#0D4048"/>
<path d="M51.1563 17.5703C51.1316 17.6535 50.702 20.8504 50.5164 21.4095C50.1331 22.5872 49.1778 24.9501 47.3171 27.6347C46.6245 28.634 44.3969 30.573 43.2838 31.2748C40.291 33.1662 36.0739 33.5588 32.7595 32.286C29.5194 31.0369 27.046 28.3723 25.7969 24.756C25.5743 24.1374 25.4135 23.495 25.4383 23.3285C25.4754 23.043 25.5248 23.0192 26.2668 22.9835L27.046 22.9478L26.9841 22.5672C26.947 22.3531 26.8728 21.8772 26.8234 21.4966L26.7492 20.8066L24.8694 20.8423L23.002 20.878L23.0391 21.9367C23.0885 23.5545 23.7563 25.9812 24.622 27.6347C25.5372 29.3715 27.2191 31.3819 28.666 32.4644C30.1253 33.5469 31.9804 34.3915 33.7612 34.8078C34.8619 35.0577 37.9166 35.1647 39.0914 34.9863C41.1072 34.6889 43.1478 33.9157 44.8792 32.8094C45.8933 32.1551 48.2031 29.4596 48.9575 28.3771C50.2931 25.9182 51.1208 24.2889 51.4763 21.0895C51.62 19.7958 51.2676 17.2729 51.1563 17.5703Z" fill="#FA420C" stroke="#FA420C"/>
<path d="M56.8486 20.9118C56.8486 24.1224 56.952 27.333 57.0553 28.0739C57.4686 30.9963 58.9772 32.6634 61.7876 33.3014C63.8748 33.7747 74.0009 33.7747 76.0881 33.3014C79.0432 32.6428 80.4278 30.9757 80.8204 27.6623C80.9444 26.695 81.0064 23.505 80.9857 20.5619L80.9237 15.2109L78.4026 15.1492L75.8607 15.0875L75.8401 21.0147C75.8401 27.4359 75.7574 28.0327 74.7655 28.7736C74.2075 29.1852 73.9389 29.2058 69.0618 29.2058C63.4202 29.2058 63.1102 29.1441 62.4696 27.971C62.1596 27.4359 62.1183 26.4686 62.0563 21.2205L61.9943 15.108H59.4111H56.8486V20.9118Z" fill="#0D4048"/>
<path d="M90.8841 15.3344C89.1482 15.5814 87.3296 16.4664 86.4824 17.4542C85.1184 19.0389 84.9531 20.068 84.9531 27.2712V33.6306H87.5363H90.1195V27.4564C90.1195 20.6031 90.1608 20.3561 91.4214 19.7181C91.876 19.4711 92.806 19.3271 94.5005 19.2653L96.939 19.1624V17.1455V15.108L94.5212 15.1286C93.1779 15.1492 91.5454 15.2315 90.8841 15.3344Z" fill="#0D4048"/>
<path d="M153.449 11.7488C153.413 13.625 153.255 16.8544 153.029 18.2101C152.354 22.2652 150.769 25.1729 148.635 27.4728C146.572 29.7001 144.509 30.6079 141.818 30.4748C139.625 30.3658 137.977 29.6396 136.542 28.1628C135.06 26.6255 134.349 24.7856 134.349 22.4615C134.349 20.1373 135.013 18.4427 136.542 16.8812C137.681 15.7191 138.89 15.0291 140.467 14.6418C141.356 14.4239 141.783 14.3997 143.182 14.436C144.64 14.4844 144.96 14.5329 145.873 14.8597C147.177 15.3197 148.054 15.8523 149.027 16.7722C149.821 17.5227 150.485 18.4306 150.947 19.4111C151.327 20.2463 151.457 20.0042 151.398 18.5032C151.362 17.3654 151.315 17.1717 150.923 16.3486C150.177 14.7871 148.801 13.6855 146.679 12.9592C144.178 12.0998 140.704 12.1603 138.404 13.1166C137.135 13.6371 136.341 14.1939 135.179 15.3802C133.543 17.0506 132.772 18.6364 132.44 21.0815C132.179 22.982 132.606 25.4876 133.472 27.0976C135.629 31.0558 140.502 32.9078 144.853 31.419C149.24 29.918 152.709 25.2724 153.669 18.5301C153.906 16.7991 153.698 13.9155 153.579 12.233C153.484 10.9256 153.472 10.9014 153.449 11.7488Z" fill="#0D4048" stroke="#0D4048"/>
<path d="M154.949 19.4899C154.925 19.5731 154.495 22.77 154.309 23.3291C153.926 24.5068 152.971 26.8697 151.11 29.5544C150.418 30.5536 148.19 32.4926 147.077 33.1944C144.084 35.0859 139.867 35.4784 136.552 34.2056C133.312 32.9565 130.839 30.2919 129.59 26.6756C129.367 26.057 129.206 25.4147 129.231 25.2481C129.268 24.9626 129.318 24.9388 130.06 24.9032L130.839 24.8675L130.777 24.4868C130.74 24.2727 130.666 23.7969 130.616 23.4162L130.542 22.7262L128.662 22.7619L126.795 22.7976L126.832 23.8563C126.881 25.4741 127.549 27.9009 128.415 29.5544C129.33 31.2911 131.012 33.3015 132.459 34.384C133.918 35.4665 135.773 36.3111 137.554 36.7275C138.655 36.9773 141.71 37.0843 142.884 36.9059C144.9 36.6085 146.941 35.8353 148.672 34.729C149.686 34.0747 151.996 31.3792 152.75 30.2967C154.086 27.8378 154.914 26.2085 155.269 23.0092C155.413 21.7155 155.061 19.1925 154.949 19.4899Z" fill="#FA420C" stroke="#FA420C"/>
<path d="M163.788 15.3344C161.949 15.602 159.944 16.631 159.201 17.6806C158.085 19.3065 158.002 20.0886 158.002 30.0702V39.1874H160.585H163.168V36.4296V33.6512L170.256 33.5895C176.518 33.5278 177.448 33.466 178.419 33.1161C179.866 32.6222 181.188 31.4285 181.788 30.0908C182.263 29.0412 182.284 28.8148 182.284 24.4517V19.9033L181.56 18.4833C180.94 17.2896 180.651 16.9603 179.721 16.4046C179.122 16.0548 178.192 15.6432 177.655 15.5197C176.456 15.211 165.627 15.0669 163.788 15.3344ZM175.836 19.9033C176.993 20.3973 177.221 21.1176 177.221 24.4723C177.221 27.7857 176.993 28.5472 175.898 29C175.32 29.247 173.976 29.3087 169.161 29.3087H163.168V25.3984C163.168 19.3477 163.065 19.43 170.711 19.5123C174.204 19.5535 175.196 19.6152 175.836 19.9033Z" fill="#0D4048"/>
<path d="M191.769 15.3139C188.008 15.8695 186.706 17.269 186.272 21.1999C186.003 23.7313 186.189 28.2179 186.644 29.6997C187.057 31.0786 188.462 32.5399 189.93 33.0956C190.818 33.4454 191.665 33.5072 195.778 33.5895L200.572 33.6718V31.8196V29.9673L196.666 29.885C193.071 29.8232 192.699 29.7821 192.161 29.391C191.727 29.0617 191.541 28.6913 191.397 27.9092C191.087 26.0775 190.26 26.2216 200.986 26.2216H210.492V22.5583C210.492 18.9566 210.471 18.8743 209.934 17.7835C209.231 16.4252 207.95 15.6431 205.945 15.3344C204.437 15.0875 193.401 15.0669 191.769 15.3139ZM204.271 19.2242C204.664 19.3271 205.057 19.5329 205.16 19.677C205.243 19.821 205.325 20.6237 205.325 21.4263V22.9287H198.299H191.273V22.2495C191.293 21.2617 191.624 20.0268 191.975 19.677C192.141 19.5123 192.637 19.3065 193.071 19.2242C194.269 18.9772 203.465 18.9978 204.271 19.2242Z" fill="#0D4048"/>
<path d="M220.824 15.2316C218.138 15.6432 216.96 16.1165 215.947 17.2073C214.274 18.9772 214.005 20.3767 214.005 28.0122V33.6307H216.567H219.151L219.213 27.3947C219.275 21.8585 219.316 21.097 219.647 20.6031C220.328 19.5535 220.866 19.3683 223.635 19.2654L226.218 19.1625L226.156 17.1867L226.094 15.211L223.718 15.1904C222.416 15.1698 221.114 15.1904 220.824 15.2316Z" fill="#0D4048"/>
<path d="M231.963 15.2933C230.744 15.5403 229.855 16.1783 229.338 17.1661C228.904 18.0099 228.863 18.2981 228.925 20.7677C229.008 23.9989 229.256 24.5958 230.847 25.3984C231.88 25.9129 231.901 25.9129 238.7 25.9747C242.998 26.0158 245.623 26.1393 245.767 26.2628C245.933 26.3863 246.036 26.9831 246.036 27.7858C246.036 29.8232 246.532 29.7203 237.005 29.7203H228.884V31.6755V33.6512L238.555 33.5895L248.206 33.5278L249.239 33.0132C250.872 32.19 251.099 31.6138 251.099 28.2797C251.099 25.1308 250.83 24.2253 249.59 23.4021C248.433 22.6406 247.152 22.5171 240.663 22.5171C234.505 22.5171 234.484 22.5171 234.174 22.0643C233.699 21.3852 233.74 19.9445 234.257 19.43C234.629 19.0596 234.939 19.0184 237.873 19.0184H241.076V17.0632V15.1081L236.902 15.1286C234.587 15.1492 232.376 15.211 231.963 15.2933Z" fill="#0D4048"/>
<path d="M27.3371 9.80224C26.2796 10.7242 0.574241 30.193 0.492895 30.1116C0.438665 30.0574 2.0927 27.5357 4.18058 24.5259C6.24135 21.5161 7.94961 18.9943 7.94961 18.913C7.94961 18.8588 6.10577 18.2351 3.88231 17.5301C1.63174 16.8251 -0.103642 16.1472 0.00481941 16.0388C0.140396 15.9574 1.87578 15.4693 3.88231 15.0084C10.9052 13.3272 20.0431 11.1309 22.9986 10.3717C26.0084 9.61243 27.798 9.36839 27.3371 9.80224Z" fill="#FA420C"/>
<path d="M17.1978 30.7331C16.3917 30.4644 16.1384 29.1208 16.1384 29.1208V27.2398V25.041C16.0842 22.7904 15.9757 20.9466 15.8672 20.9466C15.7588 20.9466 14.1861 22.0854 12.3694 23.4683L9.03418 25.9358V28.9456C9.03418 32.0367 9.46802 33.6094 10.6069 34.8567C11.3932 35.7244 13.1286 36.4565 14.7555 36.5921C16.0299 36.7277 16.5451 36.6192 17.8195 36.0498C18.6601 35.6702 19.7176 34.9381 20.1786 34.45C21.209 33.3654 22.7003 30.3285 22.2936 30.1929C22.158 30.1658 21.4801 30.2471 20.8293 30.4098C18.9042 30.8979 18.004 31.0018 17.1978 30.7331Z" fill="#0D4048"/>
<path d="M16.0842 10.3174V5.46375C16.0842 2.80644 16.0028 1.77163 15.8944 1.79875C15.7588 1.79875 14.1861 2.17836 12.3694 2.63932L9.03418 3.45278V6.95509C9.03418 9.53105 9.11553 11.7003 9.19687 11.8087C9.27822 11.8901 9.92899 11.7816 10.6069 11.5918C11.3119 11.402 12.8303 11.0224 13.9963 10.7784L16.0842 10.3174Z" fill="#0D4048"/>
</svg>
