<svg width="400" height="299" viewBox="0 0 400 299" fill="none" xmlns="http://www.w3.org/2000/svg">
<g clip-path="url(#clip0_435_40)">
<path d="M397.534 18.5421H142.531C141.971 18.5297 141.527 18.0656 141.54 17.5056C141.552 16.9629 141.989 16.5259 142.531 16.5139H397.534C398.094 16.5263 398.538 16.9903 398.525 17.5504C398.513 18.093 398.076 18.5301 397.534 18.5421Z" fill="#E6E6E6"/>
<path d="M187.44 122.75H290.32C290.582 122.75 290.794 122.962 290.794 123.224V183.045C290.794 183.307 290.582 183.519 290.32 183.519H187.44V122.75Z" fill="#E6E6E6"/>
<path d="M290.2 183.842L187.304 123.209L187.575 122.292L290.471 182.924C290.724 182.999 290.869 183.265 290.794 183.519C290.719 183.772 290.453 183.917 290.2 183.842Z" fill="white"/>
<path d="M187.575 183.978L187.304 183.06L290.2 122.427C290.453 122.352 290.719 122.497 290.794 122.75C290.869 123.004 290.724 123.27 290.471 123.345L187.575 183.978Z" fill="white"/>
<path d="M278.636 62.907H199.482C198.245 62.907 197.242 63.9099 197.242 65.1471V65.1471C197.242 66.3843 198.245 67.3873 199.482 67.3873H278.636C279.873 67.3873 280.876 66.3843 280.876 65.1471C280.876 63.9099 279.873 62.907 278.636 62.907Z" fill="#E6E6E6"/>
<path d="M289.277 76.8918H188.841C187.604 76.8918 186.601 77.8948 186.601 79.132V79.132C186.601 80.3692 187.604 81.3721 188.841 81.3721H289.277C290.514 81.3721 291.517 80.3692 291.517 79.132C291.517 77.8948 290.514 76.8918 289.277 76.8918Z" fill="#E6E6E6"/>
<path d="M289.277 90.8767H188.841C187.604 90.8767 186.601 91.8797 186.601 93.1169C186.601 94.3541 187.604 95.357 188.841 95.357H289.277C290.514 95.357 291.517 94.3541 291.517 93.1169C291.517 91.8797 290.514 90.8767 289.277 90.8767Z" fill="#181818"/>
<path d="M384.517 138.087C384.509 155.381 373.58 170.784 357.259 176.504C356.913 176.628 356.566 176.741 356.216 176.85C334.809 183.694 311.908 171.888 305.065 150.481C298.221 129.075 310.027 106.174 331.433 99.3304C352.84 92.487 375.741 104.293 382.584 125.699C383.865 129.704 384.517 133.882 384.517 138.087Z" fill="#E6E6E6"/>
<path d="M289.259 96.2557C289.095 98.1418 290.491 99.8036 292.377 99.9674C292.578 99.9848 292.781 99.9845 292.982 99.9664L297.993 111.07L301.376 105.72L296.099 95.9957C295.803 94.1153 294.039 92.8309 292.158 93.1269C290.585 93.3745 289.386 94.668 289.259 96.2557Z" fill="#FFB6B6"/>
<path d="M338.64 138.071C338.567 137.743 338.474 137.42 338.362 137.103C337.643 135.062 336.181 133.368 334.266 132.36C334.221 132.334 334.172 132.307 334.127 132.285L311.236 120.669L309.205 116.71L300.999 100.724L298.988 101.323L294.233 102.736L294.124 102.766L302.005 129.289L303.814 130.676L324.298 146.341L324.964 146.853C328.367 149.451 333.158 149.169 336.233 146.19C336.54 145.896 336.823 145.579 337.081 145.241C338.642 143.203 339.214 140.574 338.64 138.071Z" fill="#009A77"/>
<path d="M351.367 167.202L351.246 162.831L350.9 150.158C352.154 142.046 353.043 141.146 346.993 135.6C346.525 135.5 346.122 135.207 345.881 134.794C345.331 133.671 346.654 131.765 345.512 128.83L336.504 129.346L334.266 132.36L325.262 144.491C324.909 145.091 324.587 145.708 324.298 146.341C320.443 154.712 325.669 159.162 326.076 159.927L328.57 167.782L329.945 175.4L330.39 176.458L331.644 176.918C339.648 179.417 348.226 179.394 356.216 176.85C354.871 173.504 353.249 170.277 351.367 167.202Z" fill="#009A77"/>
<path d="M368.814 198.011C369.585 196.282 368.808 194.255 367.078 193.484C366.894 193.402 366.703 193.337 366.507 193.288L365.396 181.157L360.451 185.109L362.264 196.023C361.93 197.897 363.178 199.687 365.052 200.021C366.62 200.301 368.175 199.47 368.814 198.011Z" fill="#FFB6B6"/>
<path d="M351.585 138.527C350.279 136.551 348.215 135.2 345.881 134.794C345.382 134.703 344.875 134.658 344.367 134.658C342.674 134.658 341.019 135.158 339.608 136.094C339.161 136.389 338.743 136.727 338.361 137.103C334.938 140.419 334.85 145.883 338.166 149.307L338.169 149.31L351.246 162.831L356.012 167.759L357.259 176.504L359.177 189.957L361.272 190.048L366.23 190.266L366.343 190.27L367.168 171.418L367.552 162.628L351.585 138.527Z" fill="#009A77"/>
<path d="M333.715 108.15C330.531 114.427 332.611 121.698 338.521 125.521C344.912 129.656 353.209 128.751 355.893 120.716C358.881 111.768 356.426 107.93 351.087 103.344C344.831 97.9703 337.157 101.367 333.715 108.15Z" fill="#181818"/>
<path d="M349.393 122.133C346.015 126.561 339.687 127.412 335.26 124.034C330.838 120.661 329.983 114.344 333.348 109.916L333.435 109.801C336.911 105.45 343.256 104.741 347.607 108.217C351.859 111.614 352.648 117.772 349.39 122.131L349.393 122.133Z" fill="#FFB6B6"/>
<path d="M330.629 107.133C332.268 108.693 334.265 109.824 336.445 110.429C336.882 109.923 337.4 109.494 337.978 109.159C337.701 109.734 337.511 110.347 337.415 110.979C338.387 112.996 342.358 114.446 346.153 115.93L351.179 107.059L344.526 103.289C339.18 99.593 332.887 101.17 330.629 107.133Z" fill="#181818"/>
<path d="M354.971 103.355C355.957 102.992 357.06 103.153 357.901 103.783C358.711 104.399 359.365 105.196 359.813 106.109C360.627 107.588 361.211 109.181 361.547 110.835C361.834 112.266 361.785 113.996 360.501 114.743C359.43 115.366 357.899 114.973 356.914 114.142C356.002 113.269 355.309 112.193 354.895 111C354.414 109.859 353.96 108.676 353.106 107.729L353.993 108.143C353.713 107.291 353.582 106.398 353.607 105.502C353.648 104.595 354.167 103.778 354.971 103.355Z" fill="#181818"/>
<path d="M343.464 104.518L350.601 108.563C354.621 110.84 356.033 115.944 353.755 119.963C350.454 125.788 343.265 128.148 337.154 125.412L343.677 119.654L334.829 124.162L332.939 123.091C342.429 121.366 344.259 113.922 343.464 104.518Z" fill="#181818"/>
<path d="M356.947 111.627C358.149 113.025 360.03 113.569 361.726 114.297C367.806 116.964 372.176 122.46 373.406 128.984C373.875 131.601 373.813 134.31 374.554 136.862C375.291 139.413 377.115 141.917 379.732 142.36C381.503 142.662 383.279 141.978 384.945 141.303C385.861 140.935 386.777 140.565 387.694 140.194C386.738 137.796 385.784 135.398 384.831 132.999C386.362 135.263 388.143 137.347 390.14 139.212C393.424 137.888 396.71 136.564 400 135.24C391.907 135.27 393.288 127.414 391.477 119.531C390.482 115.2 382.007 112.267 380.346 108.146C377.751 101.685 370.409 98.5507 363.948 101.146C361.164 102.264 358.87 104.339 357.478 106.997C355.816 107.659 355.768 110.246 356.947 111.627Z" fill="#181818"/>
<path d="M121.851 187.516C120.335 185.595 120.662 182.81 122.582 181.293C122.768 181.146 122.966 181.015 123.173 180.899L120.861 158.94L126.778 156.807L129.333 182.909C130.359 185.126 129.395 187.756 127.178 188.782C125.323 189.642 123.121 189.118 121.851 187.516Z" fill="#FFB6B6"/>
<path d="M118.687 107.006C118.687 107.006 128.292 111.692 128.323 117.202C128.354 122.711 129.15 127.694 128.398 129.826C127.647 131.958 130.309 147.453 129.063 148.988C127.817 150.522 130.384 151.308 129.035 153.934C127.686 156.56 127.088 157.054 127.583 157.652C128.077 158.249 128.803 169.633 128.803 169.633L120.889 170.623L112.469 133.879L118.687 107.006Z" fill="#009A77"/>
<path d="M73.0092 189.746C74.8094 188.089 74.9254 185.287 73.2684 183.487C73.1079 183.312 72.9336 183.151 72.7473 183.005L78.492 161.684L72.9855 158.645L66.3475 184.018C64.9839 186.045 65.522 188.794 67.5493 190.158C69.2457 191.299 71.5029 191.129 73.0092 189.746Z" fill="#FFB6B6"/>
<path d="M88.8278 110.742C88.8278 110.742 78.6038 113.856 77.7043 119.292C76.8048 124.727 75.2335 129.523 75.6396 131.746C76.0457 133.97 70.974 148.852 71.9625 150.564C72.951 152.275 70.2922 152.646 71.2102 155.452C72.1282 158.258 72.6401 158.84 72.0577 159.352C71.4754 159.864 68.9634 170.991 68.9634 170.991L76.6231 173.217L90.7308 138.26L88.8278 110.742Z" fill="#009A77"/>
<path d="M128.091 285.133L134.91 285.132L138.155 258.829L128.09 258.83L128.091 285.133Z" fill="#FFB6B6"/>
<path d="M137.18 285.747V281.124L135.387 281.233L128.089 281.666L126.4 281.769L125.109 297.253L125.04 298.083H129.882L130.038 297.258L130.741 293.512L132.557 297.258L132.955 298.083H145.792C147.382 298.073 148.667 296.785 148.674 295.195C149.216 292.664 138.54 287.194 137.18 285.747Z" fill="#181818"/>
<path d="M48.1987 277.71L54.13 281.075L69.9322 259.799L61.1785 254.833L48.1987 277.71Z" fill="#FFB6B6"/>
<path d="M55.8036 282.726L58.0806 278.708L56.4781 277.919L49.9124 274.696L48.3906 273.947L40.9142 284.894L39.156 287.465L41.1447 288.594L43.3641 289.857L46.373 286.306L46.0387 291.373L56.5242 297.327H56.53L57.2044 297.708C58.591 298.491 60.3501 298.004 61.1357 296.618C62.8536 294.682 56.2706 284.663 55.8036 282.726Z" fill="#181818"/>
<path d="M94.2492 156.016C79.1351 156.559 73.8234 218.182 78.4388 219.3L56.8999 259.441L87.5575 273.183L107.715 203.19L111.075 228.948L106.595 269.824L126.412 274.616L140.119 273.637C136.557 224.914 127.664 173.526 120.295 153.648L94.2492 156.016Z" fill="#181818"/>
<path d="M87.311 160.337L87.2116 160.711C96.8721 166.086 103.469 164.936 114.029 161.682L121.739 160.062C123.421 157.868 122.05 155.722 120.186 153.632L124.807 115.619C124.776 110.694 120.759 106.726 115.834 106.758C115.631 106.759 115.429 106.767 115.227 106.782L108.285 101.639L98.4017 101.98L91.7909 109.282L87.8414 110.694L84.7727 111.787C84.1524 112.346 83.4752 112.99 82.8264 113.701L87.6804 142.588L89.7451 151.225C86.9774 154.381 85.4525 157.461 87.311 160.337Z" fill="#009A77"/>
<path d="M31.2426 293.312C24.051 292.455 17.6302 288.399 13.7686 282.272C11.2891 278.251 10.0097 273.476 8.77242 268.857C8.41216 267.514 8.03989 266.124 7.64565 264.784C6.73368 261.789 7.73553 258.54 10.176 256.579C12.5353 254.602 15.8604 254.258 18.5738 255.712L18.8633 255.866L19.3706 267.268C20.1223 265.741 21.7719 262.29 23.0788 258.844L23.1884 258.556L23.4388 258.737C26.0663 260.624 28.4456 262.835 30.5207 265.317C37.9366 274.333 41.0114 286.154 38.9282 297.64L38.8651 297.978L31.2426 293.312Z" fill="#F2F2F2"/>
<path d="M2.54187e-06 297.895C-0.000920896 298.205 0.24988 298.458 0.560183 298.459H399.436C399.748 298.459 400 298.206 400 297.895C400 297.584 399.748 297.332 399.436 297.332H0.563541C0.253223 297.331 0.000925979 297.581 7.27745e-06 297.892L2.54187e-06 297.895Z" fill="#CCCCCC"/>
<path d="M117.399 95.1544L117.409 95.1519C118.485 94.8671 119.127 93.7636 118.842 92.6873L115.971 81.8097C115.458 79.8604 114.559 78.034 113.326 76.4392C110.916 73.3283 107.398 71.2675 103.506 70.6864C101.497 70.3887 99.4486 70.5009 97.4843 71.0161C89.4479 73.124 87.2033 75.7819 86.7497 89.3838C86.2962 102.986 89.6254 100.278 89.6254 100.278C89.6944 100.54 89.8154 100.786 89.9813 101C90.3059 101.419 90.7795 101.695 91.3032 101.772C91.5718 101.812 91.8456 101.796 92.1083 101.728C102.144 100.695 112.308 99.7541 117.401 95.1541L117.399 95.1544Z" fill="#181818"/>
<path d="M93.8031 83.6706C92.3303 89.6155 95.9557 95.6288 101.901 97.1015C104.75 97.8074 107.763 97.3548 110.279 95.8431C112.794 94.3424 114.604 91.8974 115.305 89.0535C116.773 83.1073 113.143 77.0971 107.197 75.6292C104.355 74.9275 101.35 75.3782 98.8392 76.8828C96.3205 78.3812 94.5067 80.8256 93.8031 83.6706Z" fill="#FFB6B6"/>
<path d="M119.654 81.7842C119.249 80.2426 118.538 78.7982 117.563 77.5368C116.178 74.0847 114.006 71.2945 109.797 72.9884C108.219 72.7551 106.609 72.8418 105.065 73.2431L102.885 73.8069C102.86 73.8132 102.836 73.8196 102.812 73.8261C96.4724 75.5036 92.6934 82.0023 94.3709 88.3414L94.4284 88.5593L99.039 87.3622L99.4513 82.5602L100.926 86.8732L103.307 86.2558L103.515 83.8332L104.259 86.0077C108.775 87.7621 114.008 86.0215 119.71 82.0031L119.654 81.7842Z" fill="#181818"/>
<path d="M109.076 96.9846C109.241 97.3172 109.309 97.6895 109.273 98.059C109.256 98.2477 109.212 98.4332 109.144 98.6099C109.085 98.7605 109.008 98.9037 108.915 99.0363C108.641 99.4283 108.236 99.7095 107.772 99.8297C107.744 99.837 107.714 99.8438 107.685 99.8501C107.656 99.8563 107.627 99.8619 107.597 99.8669C107.567 99.8721 107.538 99.8765 107.508 99.8801C107.478 99.8837 107.448 99.8868 107.417 99.8893L105.704 100.024L102.183 95.8078L103.346 100.214L95.5607 100.838L90.6252 82.1404L103.1 78.9114L102.887 79.3504C102.181 80.8206 101.895 82.457 102.06 84.0794C102.234 85.7206 102.689 87.3197 103.404 88.8073C104.115 90.3158 104.969 91.7525 105.955 93.0976C106.822 94.2911 107.756 95.4337 108.754 96.5197C108.883 96.6588 108.991 96.8154 109.076 96.9846Z" fill="#181818"/>
<path d="M170.84 8.18787C173.052 8.18787 174.845 6.35495 174.845 4.09394C174.845 1.83292 173.052 0 170.84 0C168.628 0 166.835 1.83292 166.835 4.09394C166.835 6.35495 168.628 8.18787 170.84 8.18787Z" fill="#3F3D56"/>
<path d="M184.674 8.18787C186.886 8.18787 188.679 6.35495 188.679 4.09394C188.679 1.83292 186.886 0 184.674 0C182.463 0 180.67 1.83292 180.67 4.09394C180.67 6.35495 182.463 8.18787 184.674 8.18787Z" fill="#3F3D56"/>
<path d="M198.509 8.18787C200.72 8.18787 202.513 6.35495 202.513 4.09394C202.513 1.83292 200.72 0 198.509 0C196.297 0 194.504 1.83292 194.504 4.09394C194.504 6.35495 196.297 8.18787 198.509 8.18787Z" fill="#3F3D56"/>
<path d="M214.284 7.32958C214.161 7.32958 214.038 7.28194 213.945 7.18714L211.243 4.42488C211.063 4.24082 211.063 3.94669 211.243 3.76264L213.945 1.0006C214.129 0.81377 214.429 0.810763 214.615 0.993206C214.802 1.17611 214.805 1.47601 214.622 1.66284L212.244 4.09376L214.622 6.5249C214.805 6.71173 214.802 7.01164 214.615 7.19454C214.523 7.28472 214.403 7.32958 214.284 7.32958Z" fill="#3F3D56"/>
<path d="M218.824 7.32968C218.705 7.32968 218.585 7.28482 218.493 7.19464C218.306 7.01174 218.303 6.71207 218.486 6.52501L220.864 4.09386L218.486 1.66295C218.303 1.47611 218.306 1.17621 218.493 0.993309C218.68 0.810174 218.98 0.813646 219.163 1.00071L221.865 3.76274C222.045 3.9468 222.045 4.24092 221.865 4.42498L219.163 7.18725C219.07 7.28205 218.947 7.32968 218.824 7.32968Z" fill="#3F3D56"/>
<path d="M360.186 0.473877H355.161C354.588 0.473877 354.124 0.937954 354.124 1.51097V6.54014C354.124 7.11316 354.588 7.57723 355.161 7.57723H360.186C360.759 7.57723 361.228 7.11316 361.228 6.54014V1.51097C361.228 0.937954 360.759 0.473877 360.186 0.473877Z" fill="#3F3D56"/>
<path d="M347.873 0.473877H342.849C342.276 0.473877 341.812 0.937954 341.812 1.51097V6.54014C341.812 7.11316 342.276 7.57723 342.849 7.57723H347.873C348.446 7.57723 348.915 7.11316 348.915 6.54014V1.51097C348.915 0.937954 348.446 0.473877 347.873 0.473877Z" fill="#3F3D56"/>
<path d="M371.788 0.710693H366.764C366.191 0.710693 365.727 1.17477 365.727 1.74778V6.77696C365.727 7.34997 366.191 7.81405 366.764 7.81405H371.788C372.361 7.81405 372.83 7.34997 372.83 6.77696V1.74778C372.83 1.17477 372.361 0.710693 371.788 0.710693Z" fill="#3F3D56"/>
<path d="M296.056 2.62402H255.893C255.192 2.62402 254.629 3.1923 254.629 3.88844C254.629 4.58458 255.192 5.15283 255.893 5.15283H296.056C296.752 5.15283 297.32 4.58456 297.32 3.88844C297.32 3.19233 296.752 2.62402 296.056 2.62402Z" fill="#3F3D56"/>
</g>
<defs>
<clipPath id="clip0_435_40">
<rect width="400" height="298.459" fill="white"/>
</clipPath>
</defs>
</svg>
