<svg width="33" height="24" viewBox="0 0 33 24" fill="none" xmlns="http://www.w3.org/2000/svg">
<g clip-path="url(#clip0_555_561)">
<path fill-rule="evenodd" clip-rule="evenodd" d="M0 2.29817C4.60698 -0.543869 9.3206 -0.981105 14.1995 2.29817V23.5308C10.8269 21.0327 5.92668 21.3339 0 23.5308V2.29817ZM15.7538 2.35149H17.1615C17.4495 2.35149 17.6841 2.5861 17.6841 2.87137V23.4775C17.6841 23.7654 17.4495 24 17.1615 24H15.7538C15.6155 23.9993 15.483 23.944 15.3851 23.8462C15.2873 23.7483 15.232 23.6158 15.2313 23.4775V2.87137C15.2339 2.5861 15.4686 2.35149 15.7538 2.35149ZM32.7607 2.29817C28.1537 -0.543869 23.4375 -0.981105 18.5585 2.29817V23.5308C21.9311 21.0327 26.8314 21.3339 32.7607 23.5308V2.29817Z" fill="#FF6584"/>
</g>
<defs>
<clipPath id="clip0_555_561">
<rect width="32.7607" height="24" fill="white"/>
</clipPath>
</defs>
</svg>
