<svg width="35" height="35" viewBox="0 0 35 35" fill="none" xmlns="http://www.w3.org/2000/svg">
<rect width="35" height="35" rx="4" fill="white"/>
<path d="M14.785 10.3643C15.476 10.0745 15.7658 9.24974 15.4537 8.58102L14.3615 6.2851C14.0494 5.6389 13.2916 5.3489 12.6228 5.6389C10.7281 6.44135 9.10093 7.48901 7.80808 8.75957C6.22545 10.2528 5.1555 11.9692 4.57595 13.8639C3.99639 15.7811 3.68432 18.3889 3.68432 21.7101L3.68432 28.5533C3.68432 29.2889 4.28617 29.8908 5.02175 29.8908L13.7819 29.8908C14.5175 29.8908 15.1194 29.2889 15.1194 28.5533L15.1194 19.7932C15.1194 19.0574 14.5175 18.4557 13.7819 18.4557L9.59132 18.4557C9.6359 16.2042 10.1709 14.3989 11.1517 13.0389C11.9541 11.9471 13.1578 11.0555 14.785 10.3643Z" fill="#009A77" fill-opacity="0.2"/>
<path d="M30.4466 10.3642C31.1376 10.0744 31.4271 9.24969 31.1153 8.58097L30.023 6.30756C29.711 5.66114 28.9531 5.37136 28.2844 5.66114C26.412 6.46359 24.8068 7.51125 23.4919 8.75952C21.9091 10.2753 20.817 11.9916 20.2373 13.8863C19.6577 15.7585 19.3682 18.3667 19.3682 21.7103L19.3682 28.5535C19.3682 29.2891 19.97 29.8909 20.7056 29.8909L29.4658 29.8909C30.2014 29.8909 30.8032 29.2891 30.8032 28.5535L30.8032 19.7933C30.8032 19.0575 30.2014 18.4559 29.4658 18.4559L25.2529 18.4559C25.2974 16.2043 25.8326 14.399 26.8132 13.0391C27.6157 11.9471 28.8194 11.0554 30.4466 10.3642Z" fill="#009A77" fill-opacity="0.2"/>
</svg>
