<?xml version="1.0" encoding="UTF-8"?>
<!DOCTYPE svg PUBLIC "-//W3C//DTD SVG 1.1//EN" "http://www.w3.org/Graphics/SVG/1.1/DTD/svg11.dtd">
<!-- Creator: CorelDRAW 2018 (64-Bit) -->
<svg xmlns="http://www.w3.org/2000/svg" xml:space="preserve" width="182px" height="36px" version="1.1" style="shape-rendering:geometricPrecision; text-rendering:geometricPrecision; image-rendering:optimizeQuality; fill-rule:evenodd; clip-rule:evenodd"
viewBox="0 0 20.21 3.94"
 xmlns:xlink="http://www.w3.org/1999/xlink">
 <defs>
  <style type="text/css">
   <![CDATA[
    .fil2 {fill:#040404}
    .fil0 {fill:#2B2A29;fill-rule:nonzero}
    .fil1 {fill:#129E79;fill-rule:nonzero}
   ]]>
  </style>
 </defs>
 <g id="Layer_x0020_1">
  <metadata id="CorelCorpID_0Corel-Layer"/>
  <g id="_2885031838256">
   <polygon class="fil0" points="2.42,0.04 2.59,0.04 2.59,2.99 2.24,2.99 2.24,0.71 1.3,1.75 0.38,0.73 0.38,2.99 0.03,2.99 0.03,0.04 0.21,0.04 1.31,1.26 "/>
   <g>
    <polygon class="fil1" points="2.42,0.04 2.59,0.04 2.59,2.99 2.24,2.99 2.24,0.71 1.3,1.75 0.38,0.73 0.38,2.99 0.03,2.99 0.03,0.04 0.21,0.04 1.31,1.26 "/>
    <path id="1" class="fil1" d="M2.59 0.07l-0.17 0 0 -0.07 0.17 0 0.03 0.04 -0.03 0.03zm0 -0.07l0.03 0 0 0.04 -0.03 -0.04zm-0.04 2.99l0 -2.95 0.07 0 0 2.95 -0.03 0.03 -0.04 -0.03zm0.07 0l0 0.03 -0.03 0 0.03 -0.03zm-0.38 -0.04l0.35 0 0 0.07 -0.35 0 -0.03 -0.03 0.03 -0.04zm0 0.07l-0.03 0 0 -0.03 0.03 0.03zm0.04 -2.31l0 2.28 -0.07 0 0 -2.28 0.01 -0.02 0.06 0.02zm-0.06 -0.02l0.06 -0.07 0 0.09 -0.06 -0.02zm-0.94 1.04l0.94 -1.04 0.05 0.05 -0.94 1.04 -0.05 0 0 -0.05zm0.05 0.05l-0.03 0.03 -0.02 -0.03 0.05 0zm-0.93 -1.07l0.93 1.02 -0.05 0.05 -0.93 -1.02 -0.01 -0.03 0.06 -0.02zm-0.06 0.02l0 -0.09 0.06 0.07 -0.06 0.02zm0 2.26l0 -2.26 0.07 0 0 2.26 -0.03 0.03 -0.04 -0.03zm0.07 0l0 0.03 -0.03 0 0.03 -0.03zm-0.38 -0.04l0.35 0 0 0.07 -0.35 0 -0.03 -0.03 0.03 -0.04zm0 0.07l-0.03 0 0 -0.03 0.03 0.03zm0.04 -2.98l0 2.95 -0.07 0 0 -2.95 0.03 -0.04 0.04 0.04zm-0.07 0l0 -0.04 0.03 0 -0.03 0.04zm0.21 0.03l-0.18 0 0 -0.07 0.18 0 0.02 0.01 -0.02 0.06zm0 -0.07l0.01 0 0.01 0.01 -0.02 -0.01zm1.08 1.28l-1.11 -1.22 0.05 -0.05 1.11 1.22 0 0.05 -0.05 0zm0.05 0l-0.03 0.03 -0.02 -0.03 0.05 0zm1.1 -1.22l-1.1 1.22 -0.05 -0.05 1.1 -1.22 0.03 -0.01 0.02 0.06zm-0.05 -0.05l0.01 -0.01 0.02 0 -0.03 0.01z"/>
   </g>
   <path class="fil0" d="M4.05 3.01c-0.15,0 -0.29,-0.03 -0.41,-0.08 -0.13,-0.05 -0.24,-0.13 -0.33,-0.23 -0.09,-0.1 -0.16,-0.21 -0.21,-0.34 -0.05,-0.13 -0.08,-0.27 -0.08,-0.42 0,-0.15 0.03,-0.29 0.08,-0.42 0.05,-0.14 0.12,-0.25 0.21,-0.35 0.1,-0.1 0.21,-0.18 0.34,-0.23 0.12,-0.06 0.26,-0.08 0.41,-0.08 0.21,0 0.4,0.06 0.55,0.19l-0.09 0.27c-0.06,-0.05 -0.14,-0.09 -0.22,-0.12 -0.08,-0.02 -0.15,-0.04 -0.23,-0.04 -0.08,0 -0.16,0.02 -0.24,0.04 -0.09,0.03 -0.17,0.07 -0.24,0.14 -0.07,0.06 -0.13,0.14 -0.18,0.24 -0.05,0.11 -0.07,0.22 -0.07,0.36 0,0.22 0.07,0.4 0.2,0.55 0.14,0.15 0.31,0.22 0.52,0.22 0.21,0 0.39,-0.07 0.52,-0.2 0.14,-0.13 0.21,-0.3 0.21,-0.52l0 -1.1 0.33 0 0 2.1 -0.31 0 0 -0.39c-0.07,0.13 -0.17,0.23 -0.3,0.3 -0.13,0.07 -0.29,0.11 -0.46,0.11z"/>
   <g>
    <path class="fil1" d="M4.05 2.99c-0.15,0 -0.29,-0.03 -0.41,-0.09 -0.13,-0.05 -0.24,-0.13 -0.33,-0.22 -0.09,-0.1 -0.16,-0.22 -0.21,-0.35 -0.05,-0.13 -0.08,-0.27 -0.08,-0.41 0,-0.15 0.03,-0.3 0.08,-0.43 0.05,-0.13 0.12,-0.25 0.21,-0.35 0.1,-0.09 0.21,-0.17 0.34,-0.23 0.12,-0.05 0.26,-0.08 0.41,-0.08 0.21,0 0.4,0.06 0.55,0.19l-0.09 0.27c-0.06,-0.05 -0.14,-0.09 -0.22,-0.11 -0.08,-0.03 -0.15,-0.04 -0.23,-0.04 -0.08,0 -0.16,0.01 -0.24,0.04 -0.09,0.02 -0.17,0.07 -0.24,0.13 -0.07,0.06 -0.13,0.15 -0.18,0.25 -0.05,0.1 -0.07,0.22 -0.07,0.35 0,0.22 0.07,0.41 0.2,0.55 0.14,0.15 0.31,0.22 0.52,0.22 0.21,0 0.39,-0.06 0.52,-0.19 0.14,-0.14 0.21,-0.31 0.21,-0.52l0 -1.11 0.33 0 0 2.1 -0.31 0 0 -0.38c-0.07,0.12 -0.17,0.22 -0.3,0.3 -0.13,0.07 -0.29,0.11 -0.46,0.11z"/>
    <path id="1" class="fil1" d="M3.62 2.94l0.03 -0.07 0 0 0.01 0.01 0.01 0 0.01 0.01 0.02 0 0.01 0 0.01 0.01 0.01 0 0.01 0.01 0.01 0 0.02 0 0.01 0.01 0.01 0 0.01 0 0.02 0.01 0.01 0 0.01 0 0.01 0 0.02 0.01 0.01 0 0.01 0 0.01 0 0.02 0 0.01 0 0.01 0.01 0.02 0 0.01 0 0.01 0 0.02 0 0.01 0 0.01 0 0.02 0 0.01 0 0 0.07 -0.01 0 -0.02 0 -0.01 0 -0.02 0 -0.01 0 -0.02 0 -0.01 0 -0.01 0 -0.02 0 -0.01 -0.01 -0.01 0 -0.02 0 -0.01 0 -0.01 0 -0.02 -0.01 -0.01 0 -0.02 0 -0.01 0 -0.01 -0.01 -0.01 0 -0.02 0 -0.01 -0.01 -0.01 0 -0.02 -0.01 -0.01 0 -0.01 0 -0.01 -0.01 -0.02 0 -0.01 -0.01 -0.01 0 -0.02 -0.01 -0.01 0 0 0zm-0.34 -0.24l0.05 -0.05 0 0 0.01 0.01 0.01 0.01 0.01 0.01 0.01 0.01 0 0 0.01 0.01 0.01 0.01 0.01 0.01 0.01 0.01 0.01 0 0.01 0.01 0.01 0.01 0.01 0.01 0.01 0 0.01 0.01 0.01 0.01 0.01 0 0.01 0.01 0.01 0.01 0.01 0 0.01 0.01 0.01 0.01 0.01 0 0.01 0.01 0.01 0 0.01 0.01 0.01 0 0.01 0.01 0.01 0.01 0.02 0 0.01 0.01 0.01 0 -0.03 0.07 -0.01 -0.01 -0.01 0 -0.01 -0.01 -0.02 0 -0.01 -0.01 -0.01 -0.01 -0.01 0 -0.01 -0.01 -0.01 0 -0.02 -0.01 -0.01 -0.01 -0.01 0 -0.01 -0.01 -0.01 -0.01 -0.01 -0.01 -0.01 0 -0.01 -0.01 -0.01 -0.01 -0.01 -0.01 -0.01 0 -0.01 -0.01 -0.01 -0.01 -0.01 -0.01 -0.01 -0.01 -0.01 -0.01 -0.01 0 -0.01 -0.01 -0.01 -0.01 -0.01 -0.01 -0.01 -0.01 -0.01 -0.01 -0.01 -0.01 0 0zm-0.22 -0.35l0.07 -0.03 0 0 0 0.01 0.01 0.01 0 0.01 0.01 0.02 0 0.01 0.01 0.01 0 0.01 0.01 0.01 0 0.01 0.01 0.01 0 0.01 0.01 0.02 0.01 0.01 0 0.01 0.01 0.01 0 0.01 0.01 0.01 0.01 0.01 0 0.01 0.01 0.01 0.01 0.01 0 0.01 0.01 0.01 0.01 0.01 0.01 0.01 0 0.01 0.01 0.01 0.01 0 0.01 0.01 0.01 0.01 0 0.01 0.01 0.01 -0.05 0.05 -0.01 -0.01 0 -0.01 -0.01 -0.01 -0.01 -0.01 -0.01 -0.01 -0.01 -0.01 -0.01 -0.01 0 -0.01 -0.01 -0.01 -0.01 -0.01 -0.01 -0.01 0 -0.01 -0.01 -0.01 -0.01 -0.01 -0.01 -0.01 0 -0.01 -0.01 -0.01 -0.01 -0.02 0 -0.01 -0.01 -0.01 -0.01 -0.01 0 -0.01 -0.01 -0.01 0 -0.02 -0.01 -0.01 0 -0.01 -0.01 -0.01 -0.01 -0.01 0 -0.02 -0.01 -0.01 0 -0.01 -0.01 -0.01 0 0zm0.07 -0.03l0 0 -0.02 -0.04 0.02 0.04zm-0.14 -0.4l0.07 0 0 0 0 0.01 0 0.01 0 0.02 0 0.01 0 0.01 0 0.02 0 0.01 0 0.01 0 0.01 0 0.02 0.01 0.01 0 0.01 0 0.02 0 0.01 0 0.01 0 0.01 0.01 0.02 0 0.01 0 0.01 0 0.01 0.01 0.02 0 0.01 0 0.01 0.01 0.01 0 0.01 0 0.02 0.01 0.01 0 0.01 0.01 0.01 0 0.02 0 0.01 0.01 0.01 -0.07 0.03 0 -0.02 0 -0.01 -0.01 -0.01 0 -0.02 -0.01 -0.01 0 -0.01 -0.01 -0.01 0 -0.02 0 -0.01 -0.01 -0.01 0 -0.02 0 -0.01 0 -0.01 -0.01 -0.02 0 -0.01 0 -0.01 0 -0.02 -0.01 -0.01 0 -0.01 0 -0.02 0 -0.01 0 -0.01 -0.01 -0.02 0 -0.01 0 -0.02 0 -0.01 0 -0.01 0 -0.02 0 -0.01 0 -0.01 0 -0.02 0 -0.01 0 0zm0.08 -0.44l0.06 0.03 0 0 0 0.01 -0.01 0.01 0 0.01 -0.01 0.01 0 0.02 0 0.01 -0.01 0.01 0 0.01 -0.01 0.02 0 0.01 0 0.01 0 0.01 -0.01 0.02 0 0.01 0 0.01 0 0.01 -0.01 0.02 0 0.01 0 0.01 0 0.02 0 0.01 -0.01 0.01 0 0.02 0 0.01 0 0.01 0 0.02 0 0.01 0 0.01 0 0.02 0 0.01 0 0.01 0 0.02 -0.07 0 0 -0.02 0 -0.01 0 -0.02 0 -0.01 0 -0.01 0 -0.02 0 -0.01 0 -0.02 0 -0.01 0.01 -0.02 0 -0.01 0 -0.01 0 -0.02 0 -0.01 0.01 -0.01 0 -0.02 0 -0.01 0 -0.02 0.01 -0.01 0 -0.01 0 -0.02 0.01 -0.01 0 -0.01 0 -0.02 0.01 -0.01 0 -0.01 0 -0.02 0.01 -0.01 0 -0.01 0.01 -0.02 0 -0.01 0.01 -0.01 0 0zm0.22 -0.36l0.05 0.05 0 0 -0.01 0.01 -0.01 0.01 -0.01 0.01 0 0.01 -0.01 0.01 -0.01 0.01 -0.01 0 -0.01 0.01 0 0.01 -0.01 0.01 -0.01 0.01 0 0.01 -0.01 0.01 -0.01 0.01 0 0.01 -0.01 0.02 -0.01 0.01 0 0.01 -0.01 0.01 -0.01 0.01 0 0.01 -0.01 0.01 0 0.01 -0.01 0.01 0 0.01 -0.01 0.02 -0.01 0.01 0 0.01 -0.01 0.01 0 0.01 -0.01 0.01 0 0.02 -0.06 -0.03 0 -0.01 0.01 -0.02 0 -0.01 0.01 -0.01 0 -0.01 0.01 -0.02 0 -0.01 0.01 -0.01 0.01 -0.01 0 -0.01 0.01 -0.02 0 -0.01 0.01 -0.01 0.01 -0.01 0 -0.01 0.01 -0.01 0.01 -0.02 0.01 -0.01 0 -0.01 0.01 -0.01 0.01 -0.01 0.01 -0.01 0 -0.01 0.01 -0.01 0.01 -0.01 0.01 -0.01 0.01 -0.01 0 -0.01 0.01 -0.01 0.01 -0.01 0.01 -0.01 0.01 -0.01 0 0zm0 0l0 0 0 0 0 0zm0.34 -0.24l0.03 0.07 0 0 -0.01 0 -0.01 0.01 -0.02 0 -0.01 0.01 -0.01 0 -0.01 0.01 -0.01 0 -0.01 0.01 -0.01 0.01 -0.01 0 -0.01 0.01 -0.01 0.01 -0.01 0 -0.02 0.01 -0.01 0.01 -0.01 0 -0.01 0.01 -0.01 0.01 0 0 -0.01 0.01 -0.01 0.01 -0.01 0.01 -0.01 0 -0.01 0.01 -0.01 0.01 -0.01 0.01 -0.01 0.01 -0.01 0 -0.01 0.01 -0.01 0.01 0 0.01 -0.01 0.01 -0.05 -0.05 0.01 -0.01 0.01 -0.01 0.01 -0.01 0.01 -0.01 0.01 -0.01 0.01 -0.01 0 -0.01 0.01 0 0.01 -0.01 0.01 -0.01 0.01 -0.01 0.02 -0.01 0.01 0 0.01 -0.01 0.01 -0.01 0.01 -0.01 0.01 -0.01 0.01 0 0.01 -0.01 0.01 -0.01 0.01 0 0.01 -0.01 0.02 -0.01 0.01 0 0.01 -0.01 0.01 -0.01 0.01 0 0.01 -0.01 0.02 0 0.01 -0.01 0.01 0 0.01 -0.01 0 0zm0.43 -0.08l0 0.07 0 0 -0.02 0 -0.01 0 -0.01 0 -0.02 0 -0.01 0 -0.01 0 -0.01 0 -0.02 0 -0.01 0 -0.01 0.01 -0.02 0 -0.01 0 -0.01 0 -0.01 0 -0.02 0.01 -0.01 0 -0.01 0 -0.01 0 -0.02 0.01 -0.01 0 -0.01 0 -0.01 0.01 -0.01 0 -0.02 0 -0.01 0.01 -0.01 0 -0.01 0 -0.01 0.01 -0.02 0 -0.01 0.01 -0.01 0 -0.01 0.01 -0.03 -0.07 0.02 0 0.01 -0.01 0.01 0 0.01 -0.01 0.02 0 0.01 -0.01 0.01 0 0.01 -0.01 0.02 0 0.01 0 0.01 -0.01 0.02 0 0.01 0 0.01 -0.01 0.02 0 0.01 0 0.01 -0.01 0.02 0 0.01 0 0.01 0 0.02 0 0.01 -0.01 0.01 0 0.02 0 0.01 0 0.01 0 0.02 0 0.01 0 0.02 0 0.01 0 0.01 0 0.02 0 0 0zm0.59 0.23l-0.07 -0.02 0.01 0.04 -0.01 -0.01 -0.01 -0.01 -0.02 -0.01 -0.01 -0.01 -0.02 -0.01 -0.01 -0.01 -0.02 -0.01 -0.01 -0.01 -0.02 -0.01 -0.02 -0.01 -0.01 0 -0.02 -0.01 -0.01 -0.01 -0.02 0 -0.02 -0.01 -0.01 -0.01 -0.02 0 -0.02 -0.01 -0.01 0 -0.02 -0.01 -0.02 0 -0.02 0 -0.01 -0.01 -0.02 0 -0.02 0 -0.02 -0.01 -0.02 0 -0.02 0 -0.01 0 -0.02 0 -0.02 0 -0.02 0 0 -0.07 0.02 0 0.02 0 0.02 0 0.02 0 0.02 0 0.02 0 0.02 0.01 0.02 0 0.02 0 0.02 0.01 0.02 0 0.01 0 0.02 0.01 0.02 0 0.02 0.01 0.02 0 0.02 0.01 0.01 0.01 0.02 0.01 0.02 0 0.02 0.01 0.01 0.01 0.02 0.01 0.02 0.01 0.01 0.01 0.02 0.01 0.02 0.01 0.01 0.01 0.02 0.01 0.01 0.01 0.02 0.01 0.02 0.01 0.01 0.04zm-0.01 -0.04l0.02 0.02 -0.01 0.02 -0.01 -0.04zm-0.15 0.29l0.09 -0.27 0.07 0.02 -0.1 0.28 -0.05 0.01 -0.01 -0.04zm0.06 0.03l-0.02 0.04 -0.03 -0.03 0.05 -0.01zm-0.26 -0.1l0.02 -0.07 0 0 0.01 0 0.01 0.01 0.01 0 0 0 0.01 0 0.01 0.01 0.01 0 0.01 0 0 0.01 0.01 0 0.01 0 0 0.01 0.01 0 0.01 0 0.01 0.01 0 0 0.01 0.01 0.01 0 0 0 0.01 0.01 0.01 0 0.01 0.01 0 0 0.01 0.01 0 0 0.01 0.01 0.01 0 0 0 0.01 0.01 0.01 0 0 0.01 0.01 0.01 -0.04 0.05 -0.01 0 0 -0.01 -0.01 0 -0.01 -0.01 0 0 -0.01 -0.01 0 0 -0.01 0 -0.01 -0.01 0 0 -0.01 -0.01 0 0 -0.01 0 -0.01 -0.01 0 0 -0.01 0 0 -0.01 -0.01 0 -0.01 0 0 -0.01 -0.01 0 -0.01 0 0 -0.01 -0.01 0 -0.01 0 0 0 -0.01 -0.01 -0.01 0 0 0 -0.01 -0.01 -0.01 0 -0.01 0 0 0zm0 0l0 0 0 0 0 0zm-0.22 -0.04l0 -0.07 0 0 0.01 0 0 0 0.01 0 0.01 0 0.01 0 0 0 0.01 0 0.01 0 0.01 0.01 0 0 0.01 0 0.01 0 0.01 0 0.01 0 0 0 0.01 0 0.01 0 0.01 0 0 0.01 0.01 0 0.01 0 0.01 0 0 0 0.01 0 0.01 0.01 0.01 0 0.01 0 0 0 0.01 0 0.01 0.01 0.01 0 0 0 -0.02 0.07 0 0 -0.01 0 -0.01 -0.01 0 0 -0.01 0 -0.01 0 -0.01 0 0 -0.01 -0.01 0 -0.01 0 0 0 -0.01 0 -0.01 0 -0.01 0 0 -0.01 -0.01 0 -0.01 0 0 0 -0.01 0 -0.01 0 0 0 -0.01 0 -0.01 0 -0.01 0 0 0 -0.01 0 -0.01 -0.01 0 0 -0.01 0 -0.01 0 0 0 -0.01 0 0 0zm-0.23 0.04l-0.02 -0.07 0 0 0.01 0 0 0 0.01 0 0.01 -0.01 0.01 0 0.01 0 0 0 0.01 0 0.01 -0.01 0.01 0 0.01 0 0 0 0.01 0 0.01 0 0.01 -0.01 0.01 0 0 0 0.01 0 0.01 0 0.01 0 0 0 0.01 0 0.01 0 0.01 -0.01 0.01 0 0 0 0.01 0 0.01 0 0.01 0 0 0 0.01 0 0.01 0 0 0.07 -0.01 0 0 0 -0.01 0 -0.01 0 -0.01 0 0 0.01 -0.01 0 -0.01 0 0 0 -0.01 0 -0.01 0 -0.01 0 0 0 -0.01 0 -0.01 0 0 0 -0.01 0 -0.01 0.01 -0.01 0 0 0 -0.01 0 -0.01 0 -0.01 0 0 0.01 -0.01 0 -0.01 0 -0.01 0 0 0 -0.01 0.01 -0.01 0 -0.01 0 0 0 0 0zm-0.23 0.13l-0.04 -0.06 0 0 0.01 0 0 -0.01 0.01 0 0.01 -0.01 0.01 -0.01 0 0 0.01 -0.01 0.01 0 0 -0.01 0.01 0 0.01 -0.01 0.01 0 0 -0.01 0.01 0 0.01 -0.01 0.01 0 0.01 0 0 -0.01 0.01 0 0.01 -0.01 0.01 0 0.01 0 0 -0.01 0.01 0 0.01 -0.01 0.01 0 0.01 0 0 -0.01 0.01 0 0.01 0 0.01 0 0.01 -0.01 0.02 0.07 -0.01 0 -0.01 0.01 -0.01 0 0 0 -0.01 0.01 -0.01 0 -0.01 0 0 0 -0.01 0.01 -0.01 0 0 0 -0.01 0.01 -0.01 0 -0.01 0.01 0 0 -0.01 0 -0.01 0.01 0 0 -0.01 0.01 -0.01 0 0 0 -0.01 0.01 -0.01 0 0 0.01 -0.01 0 -0.01 0.01 0 0 -0.01 0.01 -0.01 0 0 0.01 -0.01 0 -0.01 0.01 0 0zm-0.17 0.24l-0.06 -0.04 0 0 0 -0.01 0.01 -0.01 0 -0.01 0.01 -0.01 0 -0.01 0.01 0 0.01 -0.01 0 -0.01 0.01 -0.01 0 -0.01 0.01 -0.01 0 -0.01 0.01 -0.01 0 0 0.01 -0.01 0.01 -0.01 0 -0.01 0.01 -0.01 0 0 0.01 -0.01 0.01 -0.01 0 -0.01 0.01 0 0.01 -0.01 0 -0.01 0.01 -0.01 0.01 0 0 -0.01 0.01 -0.01 0.01 0 0 -0.01 0.01 -0.01 0.04 0.06 0 0.01 -0.01 0 -0.01 0.01 0 0 -0.01 0.01 0 0.01 -0.01 0 -0.01 0.01 0 0 -0.01 0.01 0 0.01 -0.01 0 0 0.01 -0.01 0.01 0 0.01 -0.01 0 -0.01 0.01 0 0.01 -0.01 0.01 0 0 -0.01 0.01 0 0.01 -0.01 0.01 0 0.01 -0.01 0 0 0.01 -0.01 0.01 0 0.01 -0.01 0.01 0 0.01 0 0.01 -0.01 0.01 0 0zm-0.07 0.33l-0.07 0 0 0 0 -0.01 0 -0.01 0 -0.02 0 -0.01 0 -0.01 0.01 -0.01 0 -0.02 0 -0.01 0 -0.01 0 -0.01 0 -0.01 0 -0.02 0.01 -0.01 0 -0.01 0 -0.01 0 -0.01 0 -0.02 0.01 -0.01 0 -0.01 0 -0.01 0.01 -0.01 0 -0.01 0 -0.01 0.01 -0.01 0 -0.01 0 -0.01 0.01 -0.02 0 -0.01 0.01 -0.01 0 -0.01 0.01 -0.01 0 -0.01 0.06 0.04 0 0 -0.01 0.01 0 0.01 -0.01 0.01 0 0.01 0 0.01 -0.01 0.01 0 0.01 0 0.01 -0.01 0.01 0 0.01 0 0.01 0 0.01 -0.01 0.01 0 0.01 0 0.01 0 0.01 -0.01 0.01 0 0.01 0 0.02 0 0.01 0 0.01 0 0.01 0 0.01 -0.01 0.01 0 0.01 0 0.01 0 0.02 0 0.01 0 0.01 0 0.01 0 0.01 0 0zm0.2 0.53l-0.05 0.05 0 0 -0.02 -0.01 -0.01 -0.02 -0.01 -0.01 -0.01 -0.02 -0.01 -0.02 -0.02 -0.01 -0.01 -0.02 -0.01 -0.01 -0.01 -0.02 -0.01 -0.02 0 -0.01 -0.01 -0.02 -0.01 -0.02 -0.01 -0.01 -0.01 -0.02 0 -0.02 -0.01 -0.02 -0.01 -0.02 0 -0.02 -0.01 -0.01 0 -0.02 -0.01 -0.02 0 -0.02 0 -0.02 -0.01 -0.02 0 -0.02 0 -0.02 0 -0.02 -0.01 -0.02 0 -0.02 0 -0.03 0 -0.02 0.07 0 0 0.02 0 0.02 0 0.02 0 0.02 0.01 0.02 0 0.02 0 0.02 0 0.02 0.01 0.01 0 0.02 0 0.02 0.01 0.02 0 0.01 0.01 0.02 0 0.02 0.01 0.01 0.01 0.02 0 0.02 0.01 0.01 0.01 0.02 0.01 0.01 0 0.02 0.01 0.01 0.01 0.02 0.01 0.01 0.01 0.02 0.01 0.01 0.01 0.02 0.01 0.01 0.01 0.01 0.01 0.02 0.02 0.01 0 0zm0.49 0.21l0 0.07 0 0 -0.02 0 -0.02 0 -0.02 0 -0.02 0 -0.02 -0.01 -0.02 0 -0.02 0 -0.02 0 -0.01 -0.01 -0.02 0 -0.02 -0.01 -0.02 0 -0.02 -0.01 -0.01 0 -0.02 -0.01 -0.02 -0.01 -0.02 0 -0.01 -0.01 -0.02 -0.01 -0.01 -0.01 -0.02 -0.01 -0.02 -0.01 -0.01 -0.01 -0.02 -0.01 -0.01 -0.01 -0.02 -0.01 -0.01 -0.01 -0.02 -0.02 -0.01 -0.01 -0.02 -0.01 -0.01 -0.02 -0.01 -0.01 0.05 -0.05 0.01 0.01 0.01 0.01 0.01 0.02 0.02 0.01 0.01 0.01 0.01 0.01 0.02 0.01 0.01 0.01 0.01 0.01 0.02 0.01 0.01 0.01 0.02 0.01 0.01 0 0.02 0.01 0.01 0.01 0.02 0.01 0.01 0 0.02 0.01 0.01 0 0.02 0.01 0.02 0 0.01 0.01 0.02 0 0.02 0.01 0.01 0 0.02 0 0.02 0 0.02 0.01 0.02 0 0.01 0 0.02 0 0.02 0 0 0zm0.5 -0.19l0.05 0.05 0 0 -0.02 0.01 -0.01 0.02 -0.01 0.01 -0.02 0.01 -0.01 0.01 -0.02 0.01 -0.01 0.01 -0.02 0.01 -0.01 0.01 -0.02 0.01 -0.02 0.01 -0.01 0.01 -0.02 0.01 -0.02 0 -0.01 0.01 -0.02 0.01 -0.02 0 -0.01 0.01 -0.02 0.01 -0.02 0 -0.02 0.01 -0.02 0 -0.01 0 -0.02 0.01 -0.02 0 -0.02 0 -0.02 0.01 -0.02 0 -0.02 0 -0.02 0 -0.02 0 -0.02 0 0 -0.07 0.02 0 0.02 0 0.02 0 0.02 0 0.01 -0.01 0.02 0 0.02 0 0.02 0 0.01 -0.01 0.02 0 0.02 0 0.01 -0.01 0.02 0 0.02 -0.01 0.01 0 0.02 -0.01 0.01 -0.01 0.02 0 0.01 -0.01 0.02 -0.01 0.01 0 0.02 -0.01 0.01 -0.01 0.02 -0.01 0.01 -0.01 0.01 -0.01 0.02 -0.01 0.01 -0.01 0.01 -0.01 0.02 -0.01 0.01 -0.01 0.01 -0.01 0 0zm0.2 -0.49l0.07 0 0 0 0 0.02 0 0.02 0 0.02 -0.01 0.02 0 0.02 0 0.02 0 0.02 -0.01 0.02 0 0.02 0 0.01 -0.01 0.02 0 0.02 -0.01 0.02 0 0.02 -0.01 0.01 -0.01 0.02 0 0.02 -0.01 0.01 -0.01 0.02 -0.01 0.02 -0.01 0.01 -0.01 0.02 -0.01 0.01 -0.01 0.02 -0.01 0.01 -0.01 0.02 -0.01 0.01 -0.01 0.02 -0.01 0.01 -0.02 0.02 -0.01 0.01 -0.01 0.01 -0.05 -0.05 0.01 -0.01 0.02 -0.02 0.01 -0.01 0.01 -0.01 0.01 -0.01 0.01 -0.02 0.01 -0.01 0.01 -0.01 0.01 -0.02 0.01 -0.01 0 -0.01 0.01 -0.02 0.01 -0.01 0.01 -0.02 0 -0.01 0.01 -0.02 0.01 -0.01 0 -0.02 0.01 -0.01 0 -0.02 0.01 -0.02 0 -0.01 0 -0.02 0.01 -0.02 0 -0.01 0 -0.02 0 -0.02 0.01 -0.02 0 -0.02 0 -0.01 0 -0.02 0 -0.02 0 0zm0.07 -1.11l0 1.11 -0.07 0 0 -1.11 0.03 -0.03 0.04 0.03zm-0.07 0l0 -0.03 0.03 0 -0.03 0.03zm0.36 0.04l-0.33 0 0 -0.07 0.33 0 0.03 0.03 -0.03 0.04zm0 -0.07l0.03 0 0 0.03 -0.03 -0.03zm-0.04 2.13l0 -2.1 0.07 0 0 2.1 -0.03 0.04 -0.04 -0.04zm0.07 0l0 0.04 -0.03 0 0.03 -0.04zm-0.34 -0.03l0.31 0 0 0.07 -0.31 0 -0.04 -0.04 0.04 -0.03zm0 0.07l-0.04 0 0 -0.04 0.04 0.04zm0.03 -0.42l0 0.38 -0.07 0 0 -0.38 0.01 -0.02 0.06 0.02zm-0.06 -0.02l0.06 -0.12 0 0.14 -0.06 -0.02zm-0.26 0.35l-0.03 -0.07 0 0 0.02 0 0.01 -0.01 0.01 -0.01 0.01 0 0.01 -0.01 0.01 -0.01 0.01 -0.01 0.01 0 0.01 -0.01 0.01 -0.01 0.01 -0.01 0.01 -0.01 0.01 0 0.01 -0.01 0.01 -0.01 0.01 -0.01 0.01 -0.01 0.01 -0.01 0.01 -0.01 0 -0.01 0.01 -0.01 0.01 -0.01 0.01 0 0 -0.01 0.01 -0.01 0.01 -0.01 0 -0.01 0.01 -0.01 0.01 -0.02 0 -0.01 0.01 -0.01 0.01 -0.01 0.06 0.04 -0.01 0.01 -0.01 0.01 0 0.01 -0.01 0.01 -0.01 0.02 -0.01 0.01 0 0.01 -0.01 0.01 -0.01 0.01 -0.01 0.01 -0.01 0.01 -0.01 0.01 0 0.01 -0.01 0.01 -0.01 0.01 -0.01 0.01 -0.01 0.01 -0.01 0.01 -0.01 0.01 -0.01 0.01 -0.01 0.01 -0.02 0.01 -0.01 0.01 -0.01 0 -0.01 0.01 -0.01 0.01 -0.01 0.01 -0.01 0.01 -0.02 0 -0.01 0.01 -0.01 0.01 -0.02 0.01 0 0zm-0.47 0.11l0 -0.07 0 0 0.02 0 0.01 0 0.02 0 0.01 0 0.02 0 0.01 0 0.02 0 0.01 -0.01 0.02 0 0.01 0 0.02 0 0.01 0 0.01 -0.01 0.02 0 0.01 0 0.02 -0.01 0.01 0 0.01 0 0.02 -0.01 0.01 0 0.01 -0.01 0.02 0 0.01 0 0.01 -0.01 0.02 -0.01 0.01 0 0.01 -0.01 0.01 0 0.02 -0.01 0.01 0 0.01 -0.01 0.01 -0.01 0.03 0.07 -0.01 0 -0.01 0.01 -0.01 0.01 -0.02 0 -0.01 0.01 -0.02 0.01 -0.01 0 -0.01 0.01 -0.02 0 -0.01 0.01 -0.02 0 -0.01 0.01 -0.01 0 -0.02 0.01 -0.01 0 -0.02 0 -0.01 0.01 -0.02 0 -0.01 0 -0.02 0.01 -0.01 0 -0.02 0 -0.02 0 -0.01 0.01 -0.02 0 -0.01 0 -0.02 0 -0.01 0 -0.02 0 -0.02 0 -0.01 0 -0.02 0 0 0z"/>
   </g>
   <path class="fil0" d="M5.63 2.99l0 -2.1 0.32 0 0 0.38c0.04,-0.09 0.11,-0.17 0.19,-0.24 0.08,-0.07 0.17,-0.12 0.26,-0.15 0.1,-0.03 0.19,-0.04 0.27,-0.04 0.24,0 0.44,0.08 0.58,0.24 0.15,0.16 0.22,0.38 0.22,0.66l0 1.25 -0.32 0 0 -1.22c0,-0.19 -0.06,-0.34 -0.16,-0.45 -0.1,-0.12 -0.24,-0.17 -0.4,-0.17 -0.18,0 -0.34,0.06 -0.46,0.18 -0.11,0.12 -0.17,0.28 -0.17,0.48l0 1.18 -0.33 0z"/>
   <g>
    <path class="fil1" d="M5.63 2.99l0 -2.1 0.32 0 0 0.38c0.04,-0.09 0.11,-0.17 0.19,-0.24 0.08,-0.07 0.17,-0.12 0.26,-0.15 0.1,-0.03 0.19,-0.04 0.27,-0.04 0.24,0 0.44,0.08 0.58,0.24 0.15,0.16 0.22,0.38 0.22,0.66l0 1.25 -0.32 0 0 -1.22c0,-0.19 -0.06,-0.34 -0.16,-0.45 -0.1,-0.12 -0.24,-0.17 -0.4,-0.17 -0.18,0 -0.34,0.06 -0.46,0.18 -0.11,0.12 -0.17,0.28 -0.17,0.48l0 1.18 -0.33 0z"/>
    <path id="1" class="fil1" d="M5.66 0.89l0 2.1 -0.07 0 0 -2.1 0.04 -0.04 0.03 0.04zm-0.07 0l0 -0.04 0.04 0 -0.04 0.04zm0.36 0.03l-0.32 0 0 -0.07 0.32 0 0.03 0.04 -0.03 0.03zm0 -0.07l0.03 0 0 0.04 -0.03 -0.04zm-0.04 0.42l0 -0.38 0.07 0 0 0.38 0 0.01 -0.07 -0.01zm0.07 0.01l-0.07 0.13 0 -0.14 0.07 0.01zm0.13 -0.28l0.05 0.06 0 0 -0.01 0 -0.01 0.01 0 0.01 -0.01 0 -0.01 0.01 0 0.01 -0.01 0 -0.01 0.01 0 0.01 -0.01 0 -0.01 0.01 0 0.01 -0.01 0 0 0.01 -0.01 0.01 -0.01 0 0 0.01 -0.01 0.01 0 0.01 -0.01 0 0 0.01 -0.01 0.01 0 0.01 -0.01 0 0 0.01 -0.01 0.01 0 0.01 -0.01 0 0 0.01 0 0.01 -0.01 0.01 0 0 -0.06 -0.03 0 -0.01 0.01 -0.01 0 -0.01 0.01 0 0 -0.01 0.01 -0.01 0 -0.01 0.01 -0.01 0 -0.01 0.01 0 0 -0.01 0.01 -0.01 0 -0.01 0.01 -0.01 0.01 0 0 -0.01 0.01 -0.01 0 -0.01 0.01 0 0.01 -0.01 0 -0.01 0.01 -0.01 0.01 0 0.01 -0.01 0 -0.01 0.01 -0.01 0.01 0 0 -0.01 0.01 -0.01 0.01 0 0.01 -0.01 0 -0.01 0 0zm0.28 -0.15l0.02 0.07 0 0 -0.01 0 -0.01 0 -0.01 0 0 0.01 -0.01 0 -0.01 0 -0.01 0.01 -0.01 0 0 0 -0.01 0.01 -0.01 0 -0.01 0.01 -0.01 0 -0.01 0 0 0.01 -0.01 0 -0.01 0.01 -0.01 0 0 0.01 -0.01 0 -0.01 0.01 -0.01 0 0 0.01 -0.01 0 -0.01 0.01 -0.01 0 -0.01 0.01 0 0 -0.01 0.01 -0.01 0 0 0.01 -0.01 0.01 -0.05 -0.06 0.01 -0.01 0.01 0 0.01 -0.01 0.01 -0.01 0 0 0.01 -0.01 0.01 0 0.01 -0.01 0.01 -0.01 0.01 0 0 -0.01 0.01 0 0.01 -0.01 0.01 0 0.01 -0.01 0.01 0 0.01 -0.01 0 0 0.01 -0.01 0.01 0 0.01 0 0.01 -0.01 0.01 0 0.01 -0.01 0.01 0 0.01 0 0.01 -0.01 0 0 0.01 0 0.01 -0.01 0.01 0 0.01 0 0 0zm0.28 -0.05l0 0.08 0 0 -0.01 0 -0.01 0 0 0 -0.01 0 -0.01 0 -0.01 0 0 0 -0.01 0 -0.01 0 -0.01 0 -0.01 0 0 0 -0.01 0 -0.01 0 -0.01 0.01 -0.01 0 0 0 -0.01 0 -0.01 0 -0.01 0 -0.01 0 0 0.01 -0.01 0 -0.01 0 -0.01 0 -0.01 0 -0.01 0.01 -0.01 0 0 0 -0.01 0 -0.01 0 -0.01 0.01 -0.02 -0.07 0.01 0 0.01 -0.01 0.01 0 0.01 0 0.01 0 0.01 -0.01 0.01 0 0 0 0.01 0 0.01 -0.01 0.01 0 0.01 0 0.01 0 0.01 0 0.01 0 0 0 0.01 -0.01 0.01 0 0.01 0 0.01 0 0.01 0 0.01 0 0 0 0.01 0 0.01 0 0.01 0 0.01 0 0.01 0 0 -0.01 0.01 0 0.01 0 0.01 0 0 0zm0.61 0.25l-0.05 0.05 0 0 -0.02 -0.01 -0.01 -0.01 -0.01 -0.02 -0.02 -0.01 -0.01 -0.01 -0.02 -0.01 -0.01 -0.01 -0.02 -0.02 -0.01 -0.01 -0.02 -0.01 -0.01 -0.01 -0.02 0 -0.02 -0.01 -0.01 -0.01 -0.02 -0.01 -0.02 -0.01 -0.01 0 -0.02 -0.01 -0.02 -0.01 -0.02 0 -0.02 -0.01 -0.02 0 -0.01 -0.01 -0.02 0 -0.02 0 -0.02 -0.01 -0.03 0 -0.02 0 -0.02 0 -0.02 0 -0.02 0 -0.02 0 0 -0.08 0.02 0 0.02 0.01 0.03 0 0.02 0 0.02 0 0.02 0 0.03 0.01 0.02 0 0.02 0 0.02 0.01 0.02 0 0.02 0.01 0.02 0.01 0.02 0 0.02 0.01 0.02 0.01 0.02 0 0.02 0.01 0.01 0.01 0.02 0.01 0.02 0.01 0.02 0.01 0.02 0.01 0.01 0.01 0.02 0.02 0.01 0.01 0.02 0.01 0.02 0.02 0.01 0.01 0.02 0.01 0.01 0.02 0.02 0.01 0 0zm0.22 0.69l-0.07 0 0 0 0 -0.02 0 -0.03 0 -0.02 0 -0.03 0 -0.02 0 -0.03 -0.01 -0.02 0 -0.02 0 -0.03 -0.01 -0.02 0 -0.02 -0.01 -0.02 0 -0.02 -0.01 -0.02 0 -0.02 -0.01 -0.02 -0.01 -0.02 0 -0.02 -0.01 -0.02 -0.01 -0.02 -0.01 -0.02 -0.01 -0.02 0 -0.01 -0.01 -0.02 -0.01 -0.02 -0.01 -0.01 -0.01 -0.02 -0.02 -0.02 -0.01 -0.01 -0.01 -0.02 -0.01 -0.01 -0.01 -0.02 0.05 -0.05 0.01 0.02 0.01 0.02 0.02 0.01 0.01 0.02 0.01 0.02 0.01 0.02 0.01 0.01 0.01 0.02 0.02 0.02 0.01 0.02 0 0.02 0.01 0.02 0.01 0.02 0.01 0.02 0.01 0.02 0.01 0.02 0 0.02 0.01 0.03 0 0.02 0.01 0.02 0.01 0.02 0 0.03 0 0.02 0.01 0.03 0 0.02 0 0.03 0.01 0.02 0 0.03 0 0.02 0 0.03 0 0.02 0 0.03 0 0zm-0.07 1.25l0 -1.25 0.07 0 0 1.25 -0.03 0.03 -0.04 -0.03zm0.07 0l0 0.03 -0.03 0 0.03 -0.03zm-0.35 -0.04l0.32 0 0 0.07 -0.32 0 -0.04 -0.03 0.04 -0.04zm0 0.07l-0.04 0 0 -0.03 0.04 0.03zm0.03 -1.25l0 1.22 -0.07 0 0 -1.22 0 0 0.07 0zm-0.21 -0.43l0.04 -0.05 0 0 0.01 0.01 0.01 0.01 0.01 0.02 0.01 0.01 0.01 0.01 0.01 0.01 0.01 0.02 0.01 0.01 0 0.01 0.01 0.02 0.01 0.01 0.01 0.01 0 0.02 0.01 0.01 0 0.02 0.01 0.01 0 0.02 0.01 0.01 0 0.02 0.01 0.01 0 0.02 0 0.02 0.01 0.01 0 0.02 0 0.02 0 0.01 0.01 0.02 0 0.02 0 0.02 0 0.01 0 0.02 0 0.02 -0.07 0 0 -0.02 0 -0.01 0 -0.02 0 -0.02 0 -0.01 0 -0.02 -0.01 -0.01 0 -0.02 0 -0.01 0 -0.02 -0.01 -0.01 0 -0.02 0 -0.01 -0.01 -0.02 0 -0.01 -0.01 -0.01 0 -0.02 -0.01 -0.01 0 -0.01 -0.01 -0.01 0 -0.02 -0.01 -0.01 0 -0.01 -0.01 -0.01 -0.01 -0.01 -0.01 -0.02 0 -0.01 -0.01 -0.01 -0.01 -0.01 -0.01 -0.01 -0.01 -0.01 0 -0.01 0 0zm-0.38 -0.16l0 -0.07 0 0 0.01 0 0.02 0 0.02 0 0.01 0 0.02 0 0.01 0.01 0.02 0 0.01 0 0.02 0 0.01 0.01 0.02 0 0.01 0.01 0.01 0 0.02 0 0.01 0.01 0.01 0.01 0.02 0 0.01 0.01 0.01 0 0.02 0.01 0.01 0.01 0.01 0.01 0.01 0 0.02 0.01 0.01 0.01 0.01 0.01 0.01 0.01 0.01 0.01 0.01 0.01 0.01 0.01 0.01 0.01 0.01 0.01 -0.04 0.05 -0.01 -0.01 -0.01 -0.01 -0.01 -0.01 -0.01 -0.01 -0.01 0 -0.01 -0.01 -0.01 -0.01 -0.01 -0.01 -0.01 -0.01 -0.01 0 -0.01 -0.01 -0.02 -0.01 -0.01 0 -0.01 -0.01 -0.01 0 -0.01 -0.01 -0.01 0 -0.01 -0.01 -0.02 0 -0.01 -0.01 -0.01 0 -0.01 0 -0.02 0 -0.01 -0.01 -0.01 0 -0.02 0 -0.01 0 -0.01 0 -0.02 -0.01 -0.01 0 -0.02 0 -0.01 0 0 0zm-0.43 0.18l-0.05 -0.05 0 0 0.01 -0.02 0.01 -0.01 0.02 -0.01 0.01 -0.01 0.01 -0.01 0.01 -0.01 0.02 -0.01 0.01 -0.01 0.01 -0.01 0.02 -0.01 0.01 -0.01 0.02 0 0.01 -0.01 0.02 -0.01 0.01 0 0.02 -0.01 0.01 -0.01 0.02 0 0.01 -0.01 0.02 0 0.01 -0.01 0.02 0 0.01 0 0.02 -0.01 0.02 0 0.01 0 0.02 0 0.02 -0.01 0.02 0 0.01 0 0.02 0 0.02 0 0 0.07 -0.02 0 -0.01 0 -0.02 0 -0.02 0.01 -0.01 0 -0.02 0 -0.01 0 -0.02 0 -0.01 0.01 -0.02 0 -0.01 0 -0.02 0.01 -0.01 0 -0.01 0.01 -0.02 0 -0.01 0.01 -0.01 0 -0.02 0.01 -0.01 0 -0.01 0.01 -0.01 0.01 -0.02 0 -0.01 0.01 -0.01 0.01 -0.01 0.01 -0.01 0.01 -0.02 0.01 -0.01 0.01 -0.01 0.01 -0.01 0.01 -0.01 0.01 -0.01 0.01 0 0zm-0.17 0.45l-0.07 0 0 0 0 -0.02 0 -0.02 0 -0.01 0 -0.02 0.01 -0.02 0 -0.02 0 -0.02 0 -0.02 0.01 -0.01 0 -0.02 0 -0.02 0.01 -0.01 0 -0.02 0.01 -0.02 0 -0.01 0.01 -0.02 0 -0.02 0.01 -0.01 0.01 -0.02 0 -0.01 0.01 -0.02 0.01 -0.01 0.01 -0.02 0.01 -0.01 0.01 -0.01 0.01 -0.02 0.01 -0.01 0.01 -0.01 0.01 -0.02 0.01 -0.01 0.01 -0.01 0.01 -0.01 0.05 0.05 -0.01 0.01 -0.01 0.01 -0.01 0.01 -0.01 0.01 -0.01 0.01 -0.01 0.02 -0.01 0.01 -0.01 0.01 0 0.01 -0.01 0.02 -0.01 0.01 0 0.01 -0.01 0.02 -0.01 0.01 0 0.01 -0.01 0.02 0 0.01 -0.01 0.02 0 0.01 -0.01 0.02 0 0.01 0 0.02 -0.01 0.01 0 0.02 0 0.01 0 0.02 -0.01 0.02 0 0.01 0 0.02 0 0.02 0 0.01 0 0.02 0 0zm-0.07 1.18l0 -1.18 0.07 0 0 1.18 -0.03 0.03 -0.04 -0.03zm0.07 0l0 0.03 -0.03 0 0.03 -0.03zm-0.36 -0.04l0.33 0 0 0.07 -0.33 0 -0.04 -0.03 0.04 -0.04zm0 0.07l-0.04 0 0 -0.03 0.04 0.03z"/>
   </g>
   <path class="fil0" d="M11.28 3.92l0 -0.31c0.11,0 0.21,-0.02 0.31,-0.06 0.1,-0.04 0.18,-0.09 0.26,-0.17 0.07,-0.07 0.13,-0.15 0.17,-0.25 0.04,-0.1 0.06,-0.2 0.06,-0.31l0 -0.22c-0.07,0.13 -0.17,0.23 -0.31,0.3 -0.13,0.07 -0.28,0.11 -0.45,0.11 -0.11,0 -0.22,-0.02 -0.34,-0.05 -0.12,-0.04 -0.23,-0.11 -0.34,-0.21 -0.12,-0.1 -0.2,-0.22 -0.26,-0.37 -0.05,-0.15 -0.08,-0.29 -0.08,-0.44 0,-0.15 0.03,-0.29 0.08,-0.42 0.05,-0.14 0.12,-0.25 0.21,-0.35 0.09,-0.1 0.2,-0.18 0.33,-0.23 0.13,-0.06 0.27,-0.08 0.42,-0.08 0.22,0 0.4,0.06 0.55,0.19l-0.1 0.27c-0.06,-0.05 -0.13,-0.09 -0.21,-0.12 -0.08,-0.02 -0.16,-0.04 -0.24,-0.04 -0.21,0 -0.38,0.08 -0.52,0.23 -0.14,0.14 -0.2,0.33 -0.2,0.54 0,0.08 0.01,0.17 0.03,0.25 0.02,0.09 0.06,0.17 0.12,0.25 0.06,0.08 0.13,0.14 0.23,0.2 0.09,0.05 0.21,0.08 0.34,0.08 0.13,0 0.25,-0.03 0.37,-0.09 0.12,-0.05 0.21,-0.13 0.27,-0.24 0.06,-0.1 0.09,-0.21 0.09,-0.32l0 -1.17 0.32 0 0 1.92c0,0.15 -0.02,0.29 -0.08,0.42 -0.05,0.13 -0.12,0.25 -0.22,0.35 -0.1,0.1 -0.22,0.18 -0.35,0.24 -0.14,0.06 -0.3,0.09 -0.46,0.1z"/>
   <g>
    <path class="fil1" d="M11.28 3.9l0 -0.3c0.11,0 0.21,-0.02 0.31,-0.06 0.1,-0.04 0.18,-0.1 0.26,-0.17 0.07,-0.07 0.13,-0.16 0.17,-0.25 0.04,-0.1 0.06,-0.2 0.06,-0.31l0 -0.22c-0.07,0.12 -0.17,0.22 -0.31,0.3 -0.13,0.07 -0.28,0.11 -0.45,0.11 -0.11,0 -0.22,-0.02 -0.34,-0.06 -0.12,-0.03 -0.23,-0.1 -0.34,-0.2 -0.12,-0.1 -0.2,-0.22 -0.26,-0.37 -0.05,-0.15 -0.08,-0.3 -0.08,-0.44 0,-0.15 0.03,-0.3 0.08,-0.43 0.05,-0.13 0.12,-0.25 0.21,-0.35 0.09,-0.09 0.2,-0.17 0.33,-0.23 0.13,-0.05 0.27,-0.08 0.42,-0.08 0.22,0 0.4,0.07 0.55,0.19l-0.1 0.28c-0.06,-0.06 -0.13,-0.1 -0.21,-0.12 -0.08,-0.03 -0.16,-0.04 -0.24,-0.04 -0.21,0 -0.38,0.07 -0.52,0.22 -0.14,0.15 -0.2,0.33 -0.2,0.55 0,0.08 0.01,0.16 0.03,0.25 0.02,0.09 0.06,0.17 0.12,0.25 0.06,0.07 0.13,0.14 0.23,0.19 0.09,0.06 0.21,0.08 0.34,0.08 0.13,0 0.25,-0.02 0.37,-0.08 0.12,-0.06 0.21,-0.14 0.27,-0.24 0.06,-0.11 0.09,-0.22 0.09,-0.33l0 -1.17 0.32 0 0 1.93c0,0.14 -0.02,0.28 -0.08,0.41 -0.05,0.14 -0.12,0.26 -0.22,0.36 -0.1,0.1 -0.22,0.18 -0.35,0.24 -0.14,0.06 -0.3,0.09 -0.46,0.09z"/>
    <path id="1" class="fil1" d="M11.31 3.6l0 0.3 -0.06 0 0 -0.3 0.03 -0.04 0.03 0.04zm-0.06 0l0 -0.04 0.03 0 -0.03 0.04zm0.33 -0.1l0.02 0.07 0 0 -0.01 0 -0.01 0.01 -0.01 0 -0.01 0 -0.01 0.01 -0.01 0 -0.01 0 -0.01 0.01 -0.01 0 -0.01 0 -0.01 0.01 -0.01 0 -0.01 0 0 0 -0.01 0 -0.02 0.01 -0.01 0 -0.01 0 -0.01 0 -0.01 0 -0.01 0 -0.01 0.01 -0.01 0 -0.01 0 -0.01 0 -0.01 0 -0.01 0 -0.01 0 -0.01 0 -0.01 0 -0.01 0 -0.01 0 0 -0.07 0.01 0 0.01 0 0.01 0 0.01 0 0.01 0 0.01 0 0.01 0 0.01 0 0.01 0 0.01 -0.01 0.01 0 0.01 0 0 0 0.01 0 0.01 0 0.01 0 0.01 -0.01 0.01 0 0.01 0 0.01 0 0.01 0 0.01 -0.01 0.01 0 0.01 0 0.01 0 0 -0.01 0.01 0 0.01 0 0.01 -0.01 0.01 0 0.01 0 0.01 -0.01 0 0zm0.24 -0.16l0.05 0.06 0 0 -0.01 0 0 0.01 -0.01 0.01 -0.01 0 -0.01 0.01 0 0.01 -0.01 0 -0.01 0.01 -0.01 0.01 -0.01 0 0 0.01 -0.01 0 -0.01 0.01 -0.01 0 -0.01 0.01 0 0.01 -0.01 0 -0.01 0.01 -0.01 0 -0.01 0.01 -0.01 0 -0.01 0.01 0 0 -0.01 0.01 -0.01 0 -0.01 0.01 -0.01 0 -0.01 0 -0.01 0.01 -0.01 0 -0.01 0.01 -0.01 0 -0.02 -0.07 0.01 0 0.01 0 0 -0.01 0.01 0 0.01 -0.01 0.01 0 0.01 0 0.01 -0.01 0 0 0.01 -0.01 0.01 0 0.01 -0.01 0.01 0 0 -0.01 0.01 0 0.01 -0.01 0.01 0 0 -0.01 0.01 0 0.01 -0.01 0.01 0 0 -0.01 0.01 0 0.01 -0.01 0.01 0 0 -0.01 0.01 -0.01 0.01 0 0 -0.01 0.01 0 0.01 -0.01 0 -0.01 0 0zm0.16 -0.24l0.07 0.03 0 0 -0.01 0.01 0 0.01 -0.01 0.01 0 0.01 0 0.01 -0.01 0.01 0 0 -0.01 0.01 0 0.01 -0.01 0.01 0 0.01 -0.01 0.01 0 0.01 -0.01 0.01 0 0 -0.01 0.01 0 0.01 -0.01 0.01 -0.01 0.01 0 0 -0.01 0.01 0 0.01 -0.01 0.01 -0.01 0.01 0 0 -0.01 0.01 -0.01 0.01 0 0.01 -0.01 0 -0.01 0.01 0 0.01 -0.01 0.01 -0.05 -0.06 0.01 0 0.01 -0.01 0 -0.01 0.01 0 0 -0.01 0.01 -0.01 0.01 0 0 -0.01 0.01 -0.01 0 -0.01 0.01 0 0 -0.01 0.01 -0.01 0.01 0 0 -0.01 0.01 -0.01 0 -0.01 0.01 0 0 -0.01 0.01 -0.01 0 -0.01 0 -0.01 0.01 0 0 -0.01 0.01 -0.01 0 -0.01 0.01 -0.01 0 0 0 -0.01 0.01 -0.01 0 -0.01 0 -0.01 0 0zm0.06 -0.29l0.07 0 0 0 0 0.01 0 0.01 0 0.01 0 0.01 0 0.01 0 0.01 0 0.01 0 0.01 -0.01 0.01 0 0.01 0 0.01 0 0.01 0 0.01 0 0.01 0 0.01 -0.01 0.01 0 0.01 0 0.01 0 0.01 0 0.01 -0.01 0.01 0 0.01 0 0.01 -0.01 0.01 0 0.01 0 0.01 0 0.01 -0.01 0.01 0 0.01 -0.01 0.01 0 0.01 0 0.01 -0.07 -0.03 0.01 -0.01 0 -0.01 0 0 0.01 -0.01 0 -0.01 0 -0.01 0.01 -0.01 0 -0.01 0 -0.01 0 -0.01 0.01 -0.01 0 0 0 -0.01 0 -0.01 0.01 -0.01 0 -0.01 0 -0.01 0 -0.01 0 -0.01 0 -0.01 0 -0.01 0.01 -0.01 0 -0.01 0 -0.01 0 0 0 -0.01 0 -0.01 0 -0.01 0 -0.01 0 -0.01 0 -0.01 0 -0.01 0 0zm0.07 -0.22l0 0.22 -0.07 0 0 -0.22 0.01 -0.02 0.06 0.02zm-0.06 -0.02l0.06 -0.12 0 0.14 -0.06 -0.02zm-0.26 0.35l-0.03 -0.07 0 0 0.01 0 0.01 -0.01 0.01 -0.01 0.01 0 0.01 -0.01 0.02 -0.01 0.01 -0.01 0.01 0 0.01 -0.01 0.01 -0.01 0.01 -0.01 0.01 -0.01 0.01 -0.01 0.01 0 0.01 -0.01 0 -0.01 0.01 -0.01 0.01 -0.01 0.01 -0.01 0.01 -0.01 0.01 -0.01 0.01 -0.01 0 -0.01 0.01 -0.01 0.01 -0.01 0.01 -0.01 0 -0.01 0.01 -0.01 0.01 -0.01 0 -0.01 0.01 -0.01 0.01 -0.01 0.06 0.03 -0.01 0.02 -0.01 0.01 -0.01 0.01 0 0.01 -0.01 0.01 -0.01 0.01 -0.01 0.02 -0.01 0.01 0 0.01 -0.01 0.01 -0.01 0.01 -0.01 0.01 -0.01 0.01 -0.01 0.01 -0.01 0.01 -0.01 0.01 -0.01 0.01 -0.01 0.01 -0.01 0.01 -0.01 0.01 -0.01 0.01 -0.01 0.01 -0.01 0.01 -0.01 0 -0.02 0.01 -0.01 0.01 -0.01 0.01 -0.01 0.01 -0.01 0 -0.02 0.01 -0.01 0.01 -0.01 0.01 0 0zm-0.47 0.11l0 -0.07 0 0 0.02 0 0.01 0 0.02 0 0.01 0 0.02 0 0.01 0 0.01 -0.01 0.02 0 0.01 0 0.02 0 0.01 0 0.02 0 0.01 -0.01 0.01 0 0.02 0 0.01 -0.01 0.02 0 0.01 0 0.01 -0.01 0.02 0 0.01 -0.01 0.01 0 0.02 -0.01 0.01 0 0.01 -0.01 0.01 0 0.02 -0.01 0.01 0 0.01 -0.01 0.01 0 0.02 -0.01 0.01 -0.01 0.03 0.07 -0.01 0 -0.02 0.01 -0.01 0.01 -0.01 0 -0.02 0.01 -0.01 0.01 -0.01 0 -0.02 0.01 -0.01 0 -0.02 0.01 -0.01 0 -0.01 0.01 -0.02 0 -0.01 0.01 -0.02 0 -0.01 0 -0.02 0.01 -0.01 0 -0.02 0 -0.01 0.01 -0.02 0 -0.01 0 -0.02 0 -0.01 0.01 -0.02 0 -0.01 0 -0.02 0 -0.02 0 -0.01 0 -0.02 0 -0.01 0 -0.02 0 0 0zm-0.35 -0.05l0.02 -0.07 0 0 0.01 0 0.01 0 0.01 0.01 0.01 0 0.01 0 0.01 0.01 0.02 0 0.01 0 0.01 0 0.01 0.01 0.01 0 0.01 0 0.01 0 0.01 0 0.01 0.01 0.01 0 0.01 0 0.01 0 0.01 0 0.01 0 0.01 0 0.01 0 0.01 0.01 0.01 0 0.01 0 0.01 0 0.01 0 0.01 0 0.01 0 0.01 0 0.01 0 0.01 0 0 0.07 -0.01 0 -0.01 0 -0.01 0 -0.01 0 -0.01 0 -0.01 0 -0.01 0 -0.02 0 -0.01 0 -0.01 0 -0.01 0 -0.01 -0.01 -0.01 0 -0.01 0 -0.01 0 -0.01 0 -0.01 0 -0.01 -0.01 -0.01 0 -0.02 0 -0.01 0 -0.01 0 -0.01 -0.01 -0.01 0 -0.01 0 -0.01 0 -0.01 -0.01 -0.01 0 -0.01 0 -0.02 -0.01 -0.01 0 -0.01 0 0 0zm-0.35 -0.21l0.04 -0.06 0 0 0.01 0.01 0.01 0.01 0.01 0.01 0.01 0.01 0.01 0 0.01 0.01 0.01 0.01 0.01 0.01 0.01 0.01 0.01 0 0.01 0.01 0.01 0.01 0.01 0 0.01 0.01 0.01 0.01 0.01 0 0.01 0.01 0.02 0 0.01 0.01 0.01 0.01 0.01 0 0.01 0.01 0.01 0 0.01 0.01 0.01 0 0.01 0 0.01 0.01 0.01 0 0.01 0.01 0.01 0 0.01 0 0.01 0.01 -0.02 0.07 -0.01 -0.01 -0.01 0 -0.01 -0.01 -0.01 0 -0.02 0 -0.01 -0.01 -0.01 0 -0.01 -0.01 -0.01 0 -0.01 -0.01 -0.01 0 -0.01 -0.01 -0.02 -0.01 -0.01 0 -0.01 -0.01 -0.01 0 -0.01 -0.01 -0.01 -0.01 -0.01 -0.01 -0.01 0 -0.01 -0.01 -0.02 -0.01 -0.01 -0.01 -0.01 0 -0.01 -0.01 -0.01 -0.01 -0.01 -0.01 -0.01 -0.01 -0.01 -0.01 -0.01 -0.01 -0.01 0 -0.01 -0.01 0 0zm0.04 -0.06l0 0 0 0 0 0zm-0.31 -0.33l0.07 -0.03 0 0 0 0.02 0.01 0.01 0 0.01 0.01 0.02 0 0.01 0.01 0.01 0.01 0.01 0 0.02 0.01 0.01 0 0.01 0.01 0.01 0.01 0.01 0 0.02 0.01 0.01 0.01 0.01 0.01 0.01 0 0.01 0.01 0.01 0.01 0.01 0.01 0.01 0.01 0.01 0.01 0.01 0 0.01 0.01 0.02 0.01 0 0.01 0.01 0.01 0.01 0.01 0.01 0.01 0.01 0.01 0.01 0.01 0.01 0.01 0.01 -0.04 0.06 -0.02 -0.01 -0.01 -0.01 -0.01 -0.01 -0.01 -0.01 -0.01 -0.01 -0.01 -0.01 -0.01 -0.02 -0.01 -0.01 -0.01 -0.01 -0.01 -0.01 -0.01 -0.01 0 -0.01 -0.01 -0.01 -0.01 -0.01 -0.01 -0.02 -0.01 -0.01 -0.01 -0.01 0 -0.01 -0.01 -0.01 -0.01 -0.02 -0.01 -0.01 0 -0.01 -0.01 -0.02 -0.01 -0.01 -0.01 -0.01 0 -0.02 -0.01 -0.01 0 -0.01 -0.01 -0.02 -0.01 -0.01 0 -0.01 -0.01 -0.02 0 0zm-0.08 -0.45l0.06 0 0 0 0.01 0.01 0 0.01 0 0.02 0 0.01 0 0.01 0 0.02 0 0.01 0 0.01 0 0.02 0 0.01 0 0.01 0.01 0.02 0 0.01 0 0.01 0 0.02 0.01 0.01 0 0.01 0 0.02 0 0.01 0.01 0.01 0 0.02 0 0.01 0.01 0.01 0 0.02 0 0.01 0.01 0.01 0 0.02 0.01 0.01 0 0.01 0.01 0.02 0 0.01 0.01 0.01 -0.07 0.03 0 -0.01 -0.01 -0.02 0 -0.01 -0.01 -0.02 0 -0.01 -0.01 -0.01 0 -0.02 0 -0.01 -0.01 -0.02 0 -0.01 -0.01 -0.02 0 -0.01 0 -0.01 -0.01 -0.02 0 -0.01 0 -0.02 0 -0.01 -0.01 -0.01 0 -0.02 0 -0.01 0 -0.02 -0.01 -0.01 0 -0.02 0 -0.01 0 -0.01 0 -0.02 0 -0.01 0 -0.02 0 -0.01 0 -0.01 0 -0.02 0 -0.01 0 0zm0.07 -0.44l0.07 0.03 0 0 -0.01 0.01 0 0.01 0 0.01 -0.01 0.01 0 0.02 -0.01 0.01 0 0.01 0 0.01 -0.01 0.02 0 0.01 0 0.01 -0.01 0.01 0 0.02 0 0.01 0 0.01 -0.01 0.01 0 0.02 0 0.01 0 0.01 0 0.02 -0.01 0.01 0 0.01 0 0.02 0 0.01 0 0.01 0 0.02 0 0.01 0 0.01 0 0.02 0 0.01 0 0.01 -0.01 0.02 -0.06 0 0 -0.02 0 -0.01 0 -0.02 0 -0.01 0 -0.01 0 -0.02 0 -0.01 0 -0.02 0 -0.01 0 -0.02 0.01 -0.01 0 -0.01 0 -0.02 0 -0.01 0 -0.01 0.01 -0.02 0 -0.01 0 -0.02 0 -0.01 0.01 -0.01 0 -0.02 0 -0.01 0.01 -0.01 0 -0.02 0 -0.01 0.01 -0.01 0 -0.02 0.01 -0.01 0 -0.01 0.01 -0.02 0 -0.01 0 -0.01 0 0zm0.07 0.03l0 0 0 0 0 0zm0.16 -0.39l0.05 0.05 0 0 -0.01 0.01 -0.01 0.01 -0.01 0.01 -0.01 0.01 0 0.01 -0.01 0.01 -0.01 0 -0.01 0.01 -0.01 0.01 0 0.01 -0.01 0.01 -0.01 0.01 0 0.01 -0.01 0.01 -0.01 0.01 0 0.02 -0.01 0.01 -0.01 0.01 0 0.01 -0.01 0.01 0 0.01 -0.01 0.01 -0.01 0.01 0 0.01 -0.01 0.01 0 0.02 -0.01 0.01 0 0.01 -0.01 0.01 0 0.01 -0.01 0.01 0 0.02 -0.07 -0.03 0.01 -0.01 0 -0.02 0.01 -0.01 0.01 -0.01 0 -0.01 0.01 -0.02 0 -0.01 0.01 -0.01 0 -0.01 0.01 -0.01 0.01 -0.02 0 -0.01 0.01 -0.01 0.01 -0.01 0 -0.01 0.01 -0.01 0.01 -0.02 0 -0.01 0.01 -0.01 0.01 -0.01 0.01 -0.01 0 -0.01 0.01 -0.01 0.01 -0.01 0.01 -0.01 0.01 -0.01 0 -0.01 0.01 -0.01 0.01 -0.01 0.01 -0.01 0.01 -0.01 0.01 -0.01 0 0zm0 0l0 0 0 0 0 0zm0.34 -0.24l0.02 0.07 0 0 -0.01 0 -0.01 0.01 -0.01 0 -0.01 0.01 -0.01 0 -0.01 0.01 -0.01 0 -0.01 0.01 -0.02 0.01 -0.01 0 -0.01 0.01 -0.01 0.01 -0.01 0 -0.01 0.01 -0.01 0.01 -0.01 0 -0.01 0.01 -0.01 0.01 -0.01 0 -0.01 0.01 -0.01 0.01 -0.01 0.01 0 0 -0.01 0.01 -0.01 0.01 -0.01 0.01 -0.01 0.01 -0.01 0 -0.01 0.01 -0.01 0.01 -0.01 0.01 0 0.01 -0.05 -0.05 0.01 -0.01 0.01 -0.01 0 -0.01 0.01 -0.01 0.01 -0.01 0.01 -0.01 0.01 -0.01 0.01 0 0.01 -0.01 0.01 -0.01 0.01 -0.01 0.01 -0.01 0.01 0 0.01 -0.01 0.01 -0.01 0.01 -0.01 0.02 -0.01 0.01 0 0.01 -0.01 0.01 -0.01 0.01 0 0.01 -0.01 0.01 -0.01 0.01 0 0.01 -0.01 0.02 -0.01 0.01 0 0.01 -0.01 0.01 0 0.01 -0.01 0.02 0 0.01 -0.01 0 0zm0.43 -0.08l0 0.07 0 0 -0.02 0 -0.01 0 -0.01 0 -0.02 0 -0.01 0 -0.01 0 -0.02 0 -0.01 0 -0.01 0 -0.02 0.01 -0.01 0 -0.01 0 -0.02 0 -0.01 0 -0.01 0.01 -0.01 0 -0.02 0 -0.01 0 -0.01 0.01 -0.01 0 -0.02 0 -0.01 0.01 -0.01 0 -0.01 0 -0.01 0.01 -0.02 0 -0.01 0 -0.01 0.01 -0.01 0 -0.01 0.01 -0.01 0 -0.02 0.01 -0.02 -0.07 0.01 0 0.01 -0.01 0.02 0 0.01 -0.01 0.01 0 0.01 -0.01 0.02 0 0.01 -0.01 0.01 0 0.02 0 0.01 -0.01 0.01 0 0.01 0 0.02 -0.01 0.01 0 0.01 0 0.02 -0.01 0.01 0 0.01 0 0.02 0 0.01 0 0.02 -0.01 0.01 0 0.01 0 0.02 0 0.01 0 0.01 0 0.02 0 0.01 0 0.02 0 0.01 0 0.02 0 0 0zm0.58 0.24l-0.06 -0.03 0.01 0.04 -0.02 -0.01 -0.01 -0.01 -0.01 -0.01 -0.02 -0.01 -0.01 -0.01 -0.02 -0.01 -0.01 -0.01 -0.02 -0.01 -0.01 -0.01 -0.02 0 -0.01 -0.01 -0.02 -0.01 -0.01 -0.01 -0.02 0 -0.02 -0.01 -0.01 -0.01 -0.02 0 -0.02 -0.01 -0.01 0 -0.02 -0.01 -0.02 0 -0.02 0 -0.01 -0.01 -0.02 0 -0.02 0 -0.02 -0.01 -0.02 0 -0.02 0 -0.02 0 -0.02 0 -0.01 0 -0.02 0 0 -0.07 0.02 0 0.02 0 0.02 0 0.02 0 0.02 0 0.02 0 0.02 0.01 0.02 0 0.02 0 0.02 0.01 0.02 0 0.02 0 0.01 0.01 0.02 0 0.02 0.01 0.02 0.01 0.02 0 0.02 0.01 0.01 0.01 0.02 0 0.02 0.01 0.01 0.01 0.02 0.01 0.02 0.01 0.01 0.01 0.02 0.01 0.01 0.01 0.02 0.01 0.02 0.01 0.01 0.01 0.02 0.01 0.01 0.02 0.01 0.04zm-0.01 -0.04l0.02 0.01 -0.01 0.03 -0.01 -0.04zm-0.15 0.28l0.1 -0.27 0.06 0.03 -0.09 0.27 -0.06 0.01 -0.01 -0.04zm0.07 0.03l-0.02 0.05 -0.04 -0.04 0.06 -0.01zm-0.26 -0.1l0.02 -0.07 0 0 0 0 0.01 0.01 0.01 0 0.01 0 0.01 0 0 0.01 0.01 0 0.01 0 0.01 0.01 0 0 0.01 0 0.01 0.01 0.01 0 0 0.01 0.01 0 0.01 0 0 0.01 0.01 0 0.01 0.01 0.01 0 0 0 0.01 0.01 0.01 0 0 0.01 0.01 0 0.01 0.01 0 0 0.01 0.01 0.01 0 0 0.01 0.01 0 0 0.01 -0.04 0.05 0 0 -0.01 -0.01 -0.01 0 0 0 -0.01 -0.01 0 0 -0.01 -0.01 -0.01 0 0 -0.01 -0.01 0 0 0 -0.01 -0.01 -0.01 0 0 -0.01 -0.01 0 -0.01 0 0 -0.01 -0.01 0 0 0 -0.01 -0.01 -0.01 0 0 0 -0.01 -0.01 -0.01 0 0 0 -0.01 0 -0.01 -0.01 -0.01 0 0 0 -0.01 -0.01 -0.01 0 0 0 0 0zm0 0l0 0 -0.03 -0.01 0.03 0.01zm-0.23 -0.04l0 -0.07 0 0 0.01 0 0.01 0 0.01 0 0 0 0.01 0 0.01 0 0 0 0.01 0 0.01 0.01 0.01 0 0 0 0.01 0 0.01 0 0.01 0 0 0 0.01 0 0.01 0 0.01 0 0.01 0.01 0 0 0.01 0 0.01 0 0.01 0 0 0 0.01 0.01 0.01 0 0.01 0 0 0 0.01 0 0.01 0.01 0.01 0 0.01 0 -0.02 0.07 -0.01 0 -0.01 0 -0.01 -0.01 0 0 -0.01 0 -0.01 0 0 0 -0.01 -0.01 -0.01 0 -0.01 0 0 0 -0.01 0 -0.01 0 0 0 -0.01 -0.01 -0.01 0 0 0 -0.01 0 -0.01 0 -0.01 0 0 0 -0.01 0 -0.01 0 0 0 -0.01 0 -0.01 0 0 -0.01 -0.01 0 -0.01 0 0 0 -0.01 0 -0.01 0 0 0zm-0.5 0.22l-0.04 -0.05 0 0 0.01 -0.02 0.01 -0.01 0.02 -0.02 0.01 -0.01 0.02 -0.01 0.01 -0.01 0.02 -0.02 0.01 -0.01 0.02 -0.01 0.01 -0.01 0.02 -0.01 0.01 -0.01 0.02 -0.01 0.02 0 0.01 -0.01 0.02 -0.01 0.02 -0.01 0.02 0 0.01 -0.01 0.02 -0.01 0.02 0 0.02 -0.01 0.02 0 0.02 0 0.01 -0.01 0.02 0 0.02 0 0.02 0 0.02 -0.01 0.02 0 0.02 0 0.02 0 0 0.07 -0.02 0 -0.01 0.01 -0.02 0 -0.02 0 -0.02 0 -0.02 0 -0.02 0 -0.01 0.01 -0.02 0 -0.02 0 -0.01 0.01 -0.02 0 -0.02 0.01 -0.01 0 -0.02 0.01 -0.01 0.01 -0.02 0 -0.01 0.01 -0.02 0.01 -0.01 0.01 -0.02 0 -0.01 0.01 -0.02 0.01 -0.01 0.01 -0.01 0.01 -0.02 0.01 -0.01 0.01 -0.01 0.02 -0.02 0.01 -0.01 0.01 -0.01 0.01 -0.02 0.02 0 0zm-0.19 0.52l-0.07 0 0 0 0 -0.02 0 -0.02 0 -0.02 0 -0.02 0.01 -0.02 0 -0.02 0 -0.02 0 -0.02 0.01 -0.02 0 -0.02 0.01 -0.02 0 -0.02 0.01 -0.02 0 -0.02 0.01 -0.02 0 -0.01 0.01 -0.02 0.01 -0.02 0.01 -0.02 0 -0.02 0.01 -0.01 0.01 -0.02 0.01 -0.02 0.01 -0.01 0.01 -0.02 0.01 -0.01 0.01 -0.02 0.02 -0.02 0.01 -0.01 0.01 -0.02 0.01 -0.01 0.02 -0.01 0.04 0.05 -0.01 0.01 -0.01 0.01 -0.01 0.02 -0.01 0.01 -0.01 0.01 -0.01 0.02 -0.01 0.01 -0.01 0.02 -0.01 0.01 -0.01 0.02 -0.01 0.01 0 0.02 -0.01 0.01 -0.01 0.02 -0.01 0.02 0 0.01 -0.01 0.02 0 0.01 -0.01 0.02 0 0.02 -0.01 0.02 0 0.01 -0.01 0.02 0 0.02 0 0.02 0 0.01 -0.01 0.02 0 0.02 0 0.02 0 0.02 0 0.02 0 0.02 0 0zm0.03 0.24l-0.06 0.02 0 0 -0.01 -0.01 0 -0.01 0 -0.01 0 -0.01 0 0 -0.01 -0.01 0 -0.01 0 -0.01 0 -0.01 0 -0.01 0 0 -0.01 -0.01 0 -0.01 0 -0.01 0 -0.01 0 0 0 -0.01 0 -0.01 0 -0.01 0 -0.01 0 0 -0.01 -0.01 0 -0.01 0 -0.01 0 -0.01 0 0 0 -0.01 0 -0.01 0 -0.01 0 -0.01 0 0 0 -0.01 0.07 0 0 0.01 0 0 0 0.01 0 0.01 0 0 0 0.01 0 0.01 0 0.01 0 0 0 0.01 0 0.01 0 0.01 0 0 0.01 0.01 0 0.01 0 0.01 0 0 0 0.01 0 0.01 0 0.01 0 0 0 0.01 0.01 0.01 0 0.01 0 0 0 0.01 0 0.01 0 0.01 0.01 0.01 0 0 0 0.01 0 0.01 0 0zm0.12 0.23l-0.06 0.05 0 0 0 -0.01 -0.01 -0.01 0 0 -0.01 -0.01 -0.01 -0.01 0 -0.01 -0.01 -0.01 0 0 0 -0.01 -0.01 -0.01 0 -0.01 -0.01 -0.01 0 0 -0.01 -0.01 0 -0.01 0 -0.01 -0.01 -0.01 0 0 -0.01 -0.01 0 -0.01 0 -0.01 -0.01 -0.01 0 -0.01 0 0 -0.01 -0.01 0 -0.01 0 -0.01 0 -0.01 -0.01 -0.01 0 0 0 -0.01 0 -0.01 0.06 -0.02 0 0.01 0.01 0 0 0.01 0 0.01 0 0.01 0.01 0.01 0 0 0 0.01 0 0.01 0.01 0.01 0 0 0 0.01 0.01 0.01 0 0.01 0 0 0.01 0.01 0 0.01 0 0 0.01 0.01 0 0.01 0 0.01 0.01 0 0 0.01 0.01 0.01 0 0 0.01 0.01 0 0.01 0.01 0.01 0 0 0.01 0.01 0 0.01 0.01 0 0 0zm0 0l0 0 0 0 0 0zm0.21 0.19l-0.03 0.06 0 0 -0.01 0 -0.01 -0.01 -0.01 0 -0.01 -0.01 0 0 -0.01 -0.01 -0.01 0 -0.01 -0.01 -0.01 -0.01 -0.01 0 0 -0.01 -0.01 0 -0.01 -0.01 -0.01 -0.01 -0.01 0 0 -0.01 -0.01 -0.01 -0.01 0 -0.01 -0.01 0 -0.01 -0.01 0 -0.01 -0.01 0 -0.01 -0.01 0 -0.01 -0.01 0 -0.01 -0.01 0 0 -0.01 -0.01 -0.01 -0.01 -0.01 0 0 -0.01 -0.01 0.06 -0.05 0 0.01 0.01 0.01 0 0 0.01 0.01 0 0.01 0.01 0 0 0.01 0.01 0.01 0 0 0.01 0.01 0.01 0 0 0.01 0.01 0.01 0.01 0 0 0.01 0.01 0 0.01 0.01 0 0.01 0.01 0 0.01 0.01 0.01 0 0 0.01 0.01 0 0.01 0.01 0.01 0.01 0 0 0.01 0.01 0.01 0 0.01 0.01 0.01 0 0 0.01 0.01 0 0 0zm0 0l0 0 -0.02 -0.01 0.02 0.01zm0.33 0.08l0 0.07 0 0 -0.01 0 -0.02 0 -0.01 0 -0.01 0 -0.01 0 -0.02 0 -0.01 0 -0.01 0 -0.01 -0.01 -0.01 0 -0.02 0 -0.01 0 -0.01 0 -0.01 -0.01 -0.01 0 -0.01 0 -0.01 0 -0.02 -0.01 -0.01 0 -0.01 0 -0.01 -0.01 -0.01 0 -0.01 0 -0.01 -0.01 -0.01 0 -0.01 -0.01 -0.01 0 -0.01 -0.01 -0.01 0 -0.01 -0.01 -0.01 0 -0.01 -0.01 0.03 -0.06 0.01 0.01 0.01 0 0.01 0 0.01 0.01 0.01 0 0.01 0.01 0 0 0.01 0 0.01 0.01 0.01 0 0.01 0 0.01 0.01 0.01 0 0.01 0 0.01 0.01 0.01 0 0.01 0 0.01 0 0.01 0.01 0.01 0 0.01 0 0.02 0 0.01 0 0.01 0 0.01 0 0.01 0.01 0.01 0 0.01 0 0.01 0 0.02 0 0.01 0 0.01 0 0 0zm0.35 -0.08l0.03 0.06 0 0 -0.01 0.01 -0.01 0 -0.01 0.01 -0.01 0 -0.02 0.01 -0.01 0 -0.01 0.01 -0.01 0 -0.01 0 -0.01 0.01 -0.02 0 -0.01 0.01 -0.01 0 -0.01 0 -0.01 0.01 -0.02 0 -0.01 0 -0.01 0 -0.01 0.01 -0.01 0 -0.02 0 -0.01 0 -0.01 0 -0.01 0 -0.01 0.01 -0.02 0 -0.01 0 -0.01 0 -0.01 0 -0.02 0 -0.01 0 -0.01 0 0 -0.07 0.01 0 0.01 0 0.01 0 0.02 0 0.01 0 0.01 0 0.01 -0.01 0.01 0 0.01 0 0.01 0 0.01 0 0.01 0 0.02 -0.01 0.01 0 0.01 0 0.01 0 0.01 0 0.01 -0.01 0.01 0 0.01 0 0.01 -0.01 0.02 0 0.01 0 0.01 -0.01 0.01 0 0.01 -0.01 0.01 0 0.01 0 0.01 -0.01 0.01 0 0.01 -0.01 0.01 0 0 0zm0.26 -0.23l0.06 0.03 0 0 -0.01 0.01 -0.01 0.01 0 0.01 -0.01 0.02 -0.01 0 0 0.01 -0.01 0.01 -0.01 0.01 -0.01 0.01 0 0.01 -0.01 0.01 -0.01 0.01 -0.01 0.01 -0.01 0.01 -0.01 0 0 0.01 -0.01 0.01 -0.01 0.01 -0.01 0.01 -0.01 0 -0.01 0.01 -0.01 0.01 -0.01 0 -0.01 0.01 -0.01 0.01 -0.01 0 -0.01 0.01 -0.01 0.01 -0.01 0 -0.02 0.01 -0.01 0.01 -0.01 0 -0.03 -0.06 0.01 -0.01 0.01 0 0.01 -0.01 0.01 -0.01 0.01 0 0.01 -0.01 0.01 0 0.01 -0.01 0.01 -0.01 0.01 0 0.01 -0.01 0.01 0 0.01 -0.01 0.01 -0.01 0 -0.01 0.01 0 0.01 -0.01 0.01 -0.01 0 0 0.01 -0.01 0.01 -0.01 0.01 -0.01 0 -0.01 0.01 0 0.01 -0.01 0 -0.01 0.01 -0.01 0.01 -0.01 0 -0.01 0.01 -0.01 0 0 0.01 -0.01 0 0zm0.09 -0.31l0.07 0 0 0 0 0.02 0 0.01 -0.01 0.01 0 0.01 0 0.01 0 0.01 0 0.01 0 0.01 0 0.01 0 0.01 -0.01 0.01 0 0.01 0 0.02 0 0.01 -0.01 0.01 0 0.01 0 0.01 -0.01 0.01 0 0.01 0 0.01 -0.01 0.01 0 0.01 -0.01 0.01 0 0.01 0 0.01 -0.01 0.01 0 0.01 -0.01 0.01 -0.01 0.01 0 0.01 -0.01 0.01 0 0.01 -0.06 -0.03 0 -0.01 0.01 -0.01 0.01 -0.01 0 -0.01 0 -0.01 0.01 -0.01 0 -0.01 0.01 -0.01 0 -0.01 0.01 -0.01 0 -0.01 0 -0.01 0.01 -0.01 0 0 0 -0.01 0.01 -0.01 0 -0.01 0 -0.01 0 -0.01 0.01 -0.01 0 -0.01 0 -0.01 0 -0.01 0 -0.01 0 -0.01 0 -0.01 0.01 -0.01 0 -0.01 0 -0.01 0 -0.01 0 -0.01 0 -0.01 0 0zm0.07 -1.17l0 1.17 -0.07 0 0 -1.17 0.03 -0.03 0.04 0.03zm-0.07 0l0 -0.03 0.03 0 -0.03 0.03zm0.35 0.04l-0.32 0 0 -0.07 0.32 0 0.04 0.03 -0.04 0.04zm0 -0.07l0.04 0 0 0.03 -0.04 -0.03zm-0.03 1.96l0 -1.93 0.07 0 0 1.93 0 0 -0.07 0zm-0.01 0.43l-0.07 -0.03 0 0 0.01 -0.01 0 -0.01 0.01 -0.02 0 -0.01 0 -0.01 0.01 -0.01 0 -0.02 0.01 -0.01 0 -0.01 0 -0.01 0.01 -0.02 0 -0.01 0 -0.01 0.01 -0.01 0 -0.02 0 -0.01 0 -0.01 0.01 -0.01 0 -0.02 0 -0.01 0 -0.01 0 -0.01 0 -0.02 0 -0.01 0.01 -0.01 0 -0.02 0 -0.01 0 -0.01 0 -0.02 0 -0.01 0 -0.01 0 -0.01 0.07 0 0 0.01 0 0.01 0 0.02 0 0.01 0 0.01 0 0.02 -0.01 0.01 0 0.02 0 0.01 0 0.01 0 0.02 0 0.01 -0.01 0.02 0 0.01 0 0.01 0 0.02 -0.01 0.01 0 0.01 0 0.02 0 0.01 -0.01 0.01 0 0.02 0 0.01 -0.01 0.01 0 0.02 -0.01 0.01 0 0.01 0 0.02 -0.01 0.01 0 0.01 -0.01 0.02 0 0.01 0 0zm-0.24 0.36l-0.04 -0.05 0 0 0 -0.01 0.01 -0.01 0.01 -0.01 0.01 -0.01 0.01 -0.01 0.01 -0.01 0 -0.01 0.01 -0.01 0.01 -0.01 0.01 -0.01 0 -0.01 0.01 -0.01 0.01 -0.01 0.01 -0.01 0 -0.01 0.01 -0.01 0.01 -0.01 0 -0.01 0.01 -0.01 0.01 -0.01 0 -0.01 0.01 -0.01 0 -0.01 0.01 -0.02 0.01 -0.01 0 -0.01 0.01 -0.01 0 -0.01 0.01 -0.01 0 -0.02 0.01 -0.01 0 -0.01 0.07 0.03 -0.01 0.01 0 0.01 -0.01 0.02 -0.01 0.01 0 0.01 -0.01 0.01 0 0.02 -0.01 0.01 -0.01 0.01 0 0.01 -0.01 0.01 -0.01 0.02 0 0.01 -0.01 0.01 -0.01 0.01 0 0.01 -0.01 0.01 -0.01 0.02 -0.01 0.01 0 0.01 -0.01 0.01 -0.01 0.01 -0.01 0.01 -0.01 0.01 0 0.01 -0.01 0.01 -0.01 0.01 -0.01 0.01 -0.01 0.01 -0.01 0.01 -0.01 0.01 -0.01 0.01 0 0zm-0.36 0.25l-0.03 -0.07 0 0 0.01 0 0.02 -0.01 0.01 0 0.01 -0.01 0.01 0 0.02 -0.01 0.01 -0.01 0.01 0 0.01 -0.01 0.01 -0.01 0.01 0 0.02 -0.01 0.01 -0.01 0.01 0 0.01 -0.01 0.01 -0.01 0.01 -0.01 0.01 0 0.01 -0.01 0.01 -0.01 0.01 -0.01 0.01 0 0.01 -0.01 0.01 -0.01 0.01 -0.01 0.01 -0.01 0.01 -0.01 0.01 0 0.01 -0.01 0.01 -0.01 0.01 -0.01 0.01 -0.01 0.04 0.05 -0.01 0.01 -0.01 0.01 -0.01 0.01 -0.01 0.01 -0.01 0.01 -0.01 0.01 -0.01 0.01 -0.01 0.01 -0.01 0 -0.01 0.01 -0.01 0.01 -0.01 0.01 -0.01 0.01 -0.01 0.01 -0.01 0 -0.01 0.01 -0.01 0.01 -0.02 0.01 -0.01 0 -0.01 0.01 -0.01 0.01 -0.01 0.01 -0.02 0 -0.01 0.01 -0.01 0.01 -0.01 0 -0.02 0.01 -0.01 0.01 -0.01 0 -0.02 0.01 -0.01 0 -0.01 0.01 0 0zm-0.5 0.06l0.06 0 -0.03 -0.03 0.01 -0.01 0.02 0 0.01 0 0.02 0 0.01 0 0.02 0 0.01 0 0.02 0 0.01 0 0.02 -0.01 0.01 0 0.01 0 0.02 0 0.01 0 0.02 -0.01 0.01 0 0.01 0 0.02 -0.01 0.01 0 0.02 0 0.01 -0.01 0.01 0 0.02 0 0.01 -0.01 0.01 0 0.01 -0.01 0.02 0 0.01 -0.01 0.01 0 0.02 -0.01 0.01 0 0.01 -0.01 0.03 0.07 -0.02 0.01 -0.01 0 -0.01 0.01 -0.02 0 -0.01 0.01 -0.01 0 -0.02 0.01 -0.01 0 -0.02 0.01 -0.01 0 -0.01 0 -0.02 0.01 -0.01 0 -0.02 0 -0.01 0.01 -0.02 0 -0.01 0 -0.02 0.01 -0.01 0 -0.02 0 -0.01 0 -0.02 0.01 -0.01 0 -0.02 0 -0.01 0 -0.02 0 -0.01 0 -0.02 0 -0.01 0.01 -0.02 0 -0.01 0 -0.02 0 -0.03 -0.04zm0.03 0.04l-0.03 0 0 -0.04 0.03 0.04z"/>
   </g>
   <path class="fil0" d="M13.81 3.01c-0.15,0 -0.29,-0.03 -0.42,-0.08 -0.12,-0.05 -0.23,-0.13 -0.33,-0.23 -0.09,-0.09 -0.16,-0.21 -0.21,-0.34 -0.05,-0.13 -0.07,-0.27 -0.07,-0.42 0,-0.15 0.02,-0.29 0.07,-0.42 0.05,-0.14 0.12,-0.25 0.21,-0.35 0.1,-0.1 0.21,-0.17 0.33,-0.23 0.13,-0.05 0.27,-0.08 0.42,-0.08 0.15,0 0.28,0.02 0.41,0.08 0.13,0.05 0.24,0.13 0.33,0.23l-0.84 1.13 -0.21 -0.17 0.66 -0.87c-0.04,-0.04 -0.09,-0.06 -0.16,-0.08 -0.06,-0.02 -0.12,-0.03 -0.19,-0.03 -0.1,0 -0.19,0.02 -0.28,0.06 -0.09,0.04 -0.17,0.1 -0.23,0.17 -0.07,0.07 -0.12,0.15 -0.16,0.25 -0.03,0.1 -0.05,0.2 -0.05,0.31 0,0.22 0.07,0.4 0.21,0.55 0.13,0.15 0.3,0.22 0.51,0.22 0.12,0 0.22,-0.02 0.32,-0.07 0.1,-0.04 0.18,-0.11 0.25,-0.19l0.22 0.2c-0.09,0.11 -0.21,0.2 -0.34,0.27 -0.14,0.06 -0.28,0.09 -0.45,0.09z"/>
   <g>
    <path class="fil1" d="M13.81 2.99c-0.15,0 -0.29,-0.03 -0.42,-0.09 -0.12,-0.05 -0.23,-0.13 -0.33,-0.22 -0.09,-0.1 -0.16,-0.21 -0.21,-0.35 -0.05,-0.13 -0.07,-0.27 -0.07,-0.42 0,-0.14 0.02,-0.29 0.07,-0.42 0.05,-0.13 0.12,-0.25 0.21,-0.34 0.1,-0.1 0.21,-0.18 0.33,-0.23 0.13,-0.06 0.27,-0.09 0.42,-0.09 0.15,0 0.28,0.03 0.41,0.08 0.13,0.06 0.24,0.14 0.33,0.24l-0.84 1.13 -0.21 -0.17 0.66 -0.88c-0.04,-0.03 -0.09,-0.05 -0.16,-0.07 -0.06,-0.02 -0.12,-0.03 -0.19,-0.03 -0.1,0 -0.19,0.02 -0.28,0.06 -0.09,0.04 -0.17,0.09 -0.23,0.16 -0.07,0.08 -0.12,0.16 -0.16,0.26 -0.03,0.09 -0.05,0.19 -0.05,0.3 0,0.22 0.07,0.41 0.21,0.56 0.13,0.14 0.3,0.22 0.51,0.22 0.12,0 0.22,-0.03 0.32,-0.07 0.1,-0.05 0.18,-0.12 0.25,-0.2l0.22 0.21c-0.09,0.11 -0.21,0.2 -0.34,0.26 -0.14,0.06 -0.28,0.1 -0.45,0.1z"/>
    <path id="1" class="fil1" d="M13.38 2.94l0.03 -0.07 0 0 0.01 0.01 0.01 0 0.01 0.01 0.01 0 0.02 0 0.01 0.01 0.01 0 0.01 0.01 0.01 0 0.02 0 0.01 0.01 0.01 0 0.01 0 0.02 0.01 0.01 0 0.01 0 0.02 0 0.01 0.01 0.01 0 0.01 0 0.02 0 0.01 0 0.01 0 0.02 0.01 0.01 0 0.01 0 0.02 0 0.01 0 0.01 0 0.02 0 0.01 0 0.01 0 0 0.07 -0.01 0 -0.01 0 -0.02 0 -0.01 0 -0.02 0 -0.01 0 -0.02 0 -0.01 0 -0.01 0 -0.02 -0.01 -0.01 0 -0.02 0 -0.01 0 -0.01 0 -0.02 -0.01 -0.01 0 -0.01 0 -0.02 0 -0.01 -0.01 -0.01 0 -0.02 0 -0.01 -0.01 -0.01 0 -0.02 -0.01 -0.01 0 -0.01 0 -0.02 -0.01 -0.01 0 -0.01 -0.01 -0.01 0 -0.02 -0.01 -0.01 0 0 0zm-0.34 -0.24l0.05 -0.05 0 0 0.01 0.01 0.01 0.01 0 0.01 0.01 0.01 0.01 0 0.01 0.01 0.01 0.01 0.01 0.01 0.01 0.01 0.01 0 0.01 0.01 0.01 0.01 0 0.01 0.01 0 0.01 0.01 0.01 0.01 0.01 0 0.01 0.01 0.01 0.01 0.01 0 0.02 0.01 0.01 0.01 0.01 0 0.01 0.01 0.01 0 0.01 0.01 0.01 0 0.01 0.01 0.01 0.01 0.01 0 0.02 0.01 0.01 0 -0.03 0.07 -0.01 -0.01 -0.01 0 -0.01 -0.01 -0.02 0 -0.01 -0.01 -0.01 -0.01 -0.01 0 -0.01 -0.01 -0.02 0 -0.01 -0.01 -0.01 -0.01 -0.01 0 -0.01 -0.01 -0.01 -0.01 -0.01 -0.01 -0.01 0 -0.01 -0.01 -0.01 -0.01 -0.01 -0.01 -0.02 0 -0.01 -0.01 -0.01 -0.01 -0.01 -0.01 -0.01 -0.01 0 0 -0.01 -0.01 -0.01 -0.01 -0.01 -0.01 -0.01 -0.01 -0.01 -0.01 -0.01 -0.01 -0.01 -0.01 0 0zm-0.22 -0.35l0.06 -0.03 0 0 0.01 0.01 0 0.02 0.01 0.01 0 0.01 0.01 0.01 0 0.01 0.01 0.01 0 0.01 0.01 0.02 0 0.01 0.01 0.01 0.01 0.01 0 0.01 0.01 0.01 0 0.01 0.01 0.01 0.01 0.01 0 0.01 0.01 0.01 0.01 0.01 0 0.01 0.01 0.01 0.01 0.01 0.01 0.01 0 0.01 0.01 0.01 0.01 0.01 0.01 0.01 0 0.01 0.01 0.01 0.01 0 0.01 0.01 -0.05 0.05 -0.01 -0.01 -0.01 -0.01 -0.01 0 0 -0.01 -0.01 -0.01 -0.01 -0.01 -0.01 -0.01 -0.01 -0.01 -0.01 -0.02 0 -0.01 -0.01 -0.01 -0.01 -0.01 0 -0.01 -0.01 -0.01 -0.01 -0.01 -0.01 -0.01 0 -0.01 -0.01 -0.01 -0.01 -0.01 0 -0.02 -0.01 -0.01 -0.01 -0.01 0 -0.01 -0.01 -0.01 0 -0.01 -0.01 -0.02 0 -0.01 -0.01 -0.01 -0.01 -0.01 0 -0.02 -0.01 -0.01 0 -0.01 0 0zm-0.08 -0.44l0.07 0 0 0 0 0.02 0 0.01 0 0.01 0 0.02 0 0.01 0 0.01 0 0.02 0 0.01 0.01 0.01 0 0.02 0 0.01 0 0.01 0 0.01 0 0.02 0.01 0.01 0 0.01 0 0.02 0 0.01 0.01 0.01 0 0.01 0 0.02 0 0.01 0.01 0.01 0 0.01 0 0.02 0.01 0.01 0 0.01 0.01 0.01 0 0.02 0 0.01 0.01 0.01 0 0.01 -0.06 0.03 -0.01 -0.01 0 -0.02 0 -0.01 -0.01 -0.01 0 -0.02 -0.01 -0.01 0 -0.01 0 -0.02 -0.01 -0.01 0 -0.01 0 -0.02 -0.01 -0.01 0 -0.01 0 -0.02 -0.01 -0.01 0 -0.01 0 -0.02 0 -0.01 -0.01 -0.01 0 -0.02 0 -0.01 0 -0.02 0 -0.01 0 -0.01 0 -0.02 -0.01 -0.01 0 -0.02 0 -0.01 0 -0.01 0 -0.02 0 -0.01 0 -0.02 0 0zm0.08 -0.43l0.06 0.03 0 0 0 0.01 -0.01 0.01 0 0.01 0 0.01 -0.01 0.02 0 0.01 -0.01 0.01 0 0.01 0 0.02 -0.01 0.01 0 0.01 0 0.01 0 0.02 -0.01 0.01 0 0.01 0 0.01 0 0.02 -0.01 0.01 0 0.01 0 0.02 0 0.01 0 0.01 0 0.01 -0.01 0.02 0 0.01 0 0.01 0 0.02 0 0.01 0 0.01 0 0.02 0 0.01 0 0.01 -0.07 0 0 -0.01 0 -0.01 0 -0.02 0 -0.01 0 -0.02 0 -0.01 0.01 -0.02 0 -0.01 0 -0.01 0 -0.02 0 -0.01 0 -0.01 0 -0.02 0.01 -0.01 0 -0.02 0 -0.01 0 -0.01 0.01 -0.02 0 -0.01 0 -0.01 0.01 -0.02 0 -0.01 0 -0.01 0.01 -0.02 0 -0.01 0 -0.01 0.01 -0.02 0 -0.01 0.01 -0.01 0 -0.02 0 -0.01 0.01 -0.01 0 0zm0.22 -0.36l0.05 0.05 0 0 -0.01 0.01 -0.01 0.01 -0.01 0.01 0 0.01 -0.01 0.01 -0.01 0.01 -0.01 0.01 0 0.01 -0.01 0.01 -0.01 0.01 -0.01 0 0 0.01 -0.01 0.02 -0.01 0.01 0 0.01 -0.01 0.01 -0.01 0.01 0 0.01 -0.01 0.01 0 0.01 -0.01 0.01 -0.01 0.01 0 0.01 -0.01 0.01 0 0.01 -0.01 0.02 0 0.01 -0.01 0.01 0 0.01 -0.01 0.01 0 0.01 -0.01 0.02 -0.06 -0.03 0 -0.01 0.01 -0.02 0 -0.01 0.01 -0.01 0.01 -0.01 0 -0.02 0.01 -0.01 0 -0.01 0.01 -0.01 0 -0.01 0.01 -0.02 0.01 -0.01 0 -0.01 0.01 -0.01 0.01 -0.01 0 -0.01 0.01 -0.01 0.01 -0.02 0 -0.01 0.01 -0.01 0.01 -0.01 0.01 -0.01 0 -0.01 0.01 -0.01 0.01 -0.01 0.01 -0.01 0.01 -0.01 0.01 -0.01 0 -0.01 0.01 -0.01 0.01 -0.01 0.01 -0.01 0 0zm0 0l0 0 0 0 0 0zm0.34 -0.24l0.03 0.07 0 0 -0.01 0 -0.02 0.01 -0.01 0.01 -0.01 0 -0.01 0.01 -0.01 0 -0.01 0.01 -0.01 0 -0.01 0.01 -0.01 0.01 -0.01 0 -0.01 0.01 -0.02 0.01 -0.01 0 -0.01 0.01 -0.01 0.01 -0.01 0 -0.01 0.01 -0.01 0.01 0 0 -0.01 0.01 -0.01 0.01 -0.01 0.01 -0.01 0 -0.01 0.01 -0.01 0.01 -0.01 0.01 -0.01 0.01 -0.01 0.01 0 0 -0.01 0.01 -0.01 0.01 -0.05 -0.05 0.01 -0.01 0.01 -0.01 0.01 -0.01 0.01 -0.01 0.01 0 0.01 -0.01 0 -0.01 0.01 -0.01 0.01 -0.01 0.01 -0.01 0.01 -0.01 0.01 0 0.02 -0.01 0.01 -0.01 0.01 -0.01 0.01 0 0.01 -0.01 0.01 -0.01 0.01 -0.01 0.01 0 0.01 -0.01 0.01 -0.01 0.01 0 0.02 -0.01 0.01 -0.01 0.01 0 0.01 -0.01 0.01 0 0.01 -0.01 0.02 -0.01 0.01 0 0.01 -0.01 0 0zm0 0l0 0 -0.02 0.01 0.02 -0.01zm0.43 -0.08l0 0.07 0 0 -0.01 0 -0.02 0 -0.01 0 -0.01 0 -0.02 0 -0.01 0 -0.01 0 -0.02 0 -0.01 0 -0.01 0.01 -0.01 0 -0.02 0 -0.01 0 -0.01 0 -0.02 0.01 -0.01 0 -0.01 0 -0.01 0 -0.02 0.01 -0.01 0 -0.01 0 -0.01 0.01 -0.02 0 -0.01 0 -0.01 0.01 -0.01 0 -0.01 0.01 -0.02 0 -0.01 0 -0.01 0.01 -0.01 0 -0.01 0.01 -0.03 -0.07 0.01 0 0.02 -0.01 0.01 0 0.01 -0.01 0.01 0 0.02 -0.01 0.01 0 0.01 -0.01 0.02 0 0.01 0 0.01 -0.01 0.02 0 0.01 0 0.01 -0.01 0.02 0 0.01 0 0.01 0 0.02 -0.01 0.01 0 0.01 0 0.02 0 0.01 -0.01 0.01 0 0.02 0 0.01 0 0.02 0 0.01 0 0.01 0 0.02 0 0.01 0 0.02 0 0.01 0 0 0zm0.42 0.08l-0.02 0.07 0 0 -0.01 -0.01 -0.02 0 -0.01 -0.01 -0.01 0 -0.01 -0.01 -0.01 0 -0.01 0 -0.02 -0.01 -0.01 0 -0.01 0 -0.01 -0.01 -0.01 0 -0.02 0 -0.01 -0.01 -0.01 0 -0.01 0 -0.02 0 -0.01 -0.01 -0.01 0 -0.01 0 -0.02 0 -0.01 0 -0.01 -0.01 -0.01 0 -0.02 0 -0.01 0 -0.01 0 -0.02 0 -0.01 0 -0.01 0 -0.02 0 -0.01 0 0 -0.07 0.01 0 0.02 0 0.01 0 0.02 0 0.01 0 0.01 0 0.02 0 0.01 0 0.01 0 0.02 0 0.01 0.01 0.02 0 0.01 0 0.01 0 0.02 0 0.01 0.01 0.01 0 0.01 0 0.02 0.01 0.01 0 0.01 0 0.02 0.01 0.01 0 0.01 0 0.02 0.01 0.01 0 0.01 0.01 0.01 0 0.02 0.01 0.01 0 0.01 0.01 0.01 0 0 0zm0.35 0.29l-0.06 -0.05 0.01 0.05 -0.01 -0.01 -0.01 -0.01 -0.01 -0.01 -0.01 0 -0.01 -0.01 -0.01 -0.01 -0.01 -0.01 0 -0.01 -0.01 0 -0.01 -0.01 -0.01 -0.01 -0.01 -0.01 -0.01 -0.01 -0.01 0 -0.01 -0.01 -0.01 -0.01 -0.01 0 -0.01 -0.01 -0.01 -0.01 -0.01 0 -0.01 -0.01 -0.01 -0.01 -0.01 0 -0.01 -0.01 -0.01 -0.01 -0.02 0 -0.01 -0.01 -0.01 0 -0.01 -0.01 -0.01 0 -0.01 -0.01 -0.01 0 0.02 -0.07 0.02 0.01 0.01 0 0.01 0.01 0.01 0 0.01 0.01 0.02 0 0.01 0.01 0.01 0.01 0.01 0 0.01 0.01 0.01 0.01 0.01 0 0.01 0.01 0.02 0.01 0.01 0.01 0.01 0 0.01 0.01 0.01 0.01 0.01 0.01 0.01 0 0.01 0.01 0.01 0.01 0.01 0.01 0.01 0.01 0.01 0.01 0.01 0.01 0.01 0 0.01 0.01 0.01 0.01 0.01 0.01 0.01 0.01 0.01 0.01 0 0.05zm0 -0.05l0.02 0.02 -0.02 0.03 0 -0.05zm-0.9 1.14l0.84 -1.14 0.06 0.05 -0.84 1.13 -0.05 0.01 -0.01 -0.05zm0.06 0.04l-0.02 0.03 -0.03 -0.02 0.05 -0.01zm-0.22 -0.22l0.21 0.17 -0.04 0.06 -0.21 -0.18 -0.01 -0.05 0.05 0zm-0.04 0.05l-0.03 -0.02 0.02 -0.03 0.01 0.05zm0.71 -0.88l-0.67 0.88 -0.05 -0.05 0.67 -0.87 0.04 -0.01 0.01 0.05zm-0.01 -0.05l0.03 0.02 -0.02 0.03 -0.01 -0.05zm-0.19 -0.01l0.02 -0.07 0 0 0.01 0 0 0.01 0.01 0 0.01 0 0 0 0.01 0 0 0.01 0.01 0 0 0 0.01 0 0.01 0 0 0.01 0.01 0 0 0 0.01 0 0 0.01 0.01 0 0 0 0.01 0 0 0.01 0.01 0 0 0 0.01 0 0 0.01 0.01 0 0 0 0.01 0.01 0 0 0.01 0 0 0 0.01 0.01 0 0 -0.03 0.06 -0.01 0 0 0 -0.01 -0.01 0 0 0 0 -0.01 0 0 -0.01 -0.01 0 0 0 -0.01 0 0 -0.01 0 0 -0.01 0 0 0 -0.01 -0.01 0 0 -0.01 0 0 0 -0.01 0 0 -0.01 -0.01 0 0 0 -0.01 0 0 0 -0.01 -0.01 0 0 -0.01 0 -0.01 0 0 0 -0.01 0 0 -0.01 -0.01 0 0 0zm-0.18 -0.02l0 -0.08 0 0 0.01 0 0.01 0 0 0 0.01 0 0 0 0.01 0 0.01 0.01 0 0 0.01 0 0.01 0 0 0 0.01 0 0 0 0.01 0 0.01 0 0 0 0.01 0 0 0 0.01 0 0.01 0 0 0.01 0.01 0 0 0 0.01 0 0.01 0 0 0 0.01 0 0.01 0.01 0 0 0.01 0 0 0 0.01 0 -0.02 0.07 0 0 -0.01 0 0 0 -0.01 0 -0.01 -0.01 0 0 -0.01 0 0 0 -0.01 0 0 0 -0.01 0 -0.01 0 0 -0.01 -0.01 0 0 0 -0.01 0 0 0 -0.01 0 0 0 -0.01 0 -0.01 0 0 0 -0.01 0 0 0 -0.01 0 0 0 -0.01 0 0 0 -0.01 0 -0.01 0 0 0 -0.01 0 0 0zm-0.27 0.05l-0.03 -0.06 0 0 0.01 -0.01 0.01 0 0.01 -0.01 0.01 0 0.01 0 0.01 -0.01 0.01 0 0.01 0 0.01 0 0.01 -0.01 0 0 0.01 0 0.01 0 0.01 -0.01 0.01 0 0.01 0 0.01 0 0.01 0 0.01 -0.01 0.01 0 0.01 0 0.01 0 0.01 0 0.01 0 0.01 0 0.01 0 0.01 0 0.01 -0.01 0.01 0 0 0 0.01 0 0.01 0 0 0.08 0 0 -0.01 0 -0.01 0 -0.01 0 -0.01 0 -0.01 0 -0.01 0 -0.01 0 -0.01 0 0 0 -0.01 0 -0.01 0 -0.01 0 -0.01 0.01 -0.01 0 -0.01 0 -0.01 0 0 0 -0.01 0.01 -0.01 0 -0.01 0 -0.01 0 -0.01 0 0 0.01 -0.01 0 -0.01 0 -0.01 0.01 -0.01 0 0 0 -0.01 0 -0.01 0.01 -0.01 0 0 0zm-0.03 -0.06l0 0 -0.01 0 0.01 0zm-0.19 0.22l-0.05 -0.05 0 0 0.01 -0.01 0 0 0.01 -0.01 0.01 -0.01 0 0 0.01 -0.01 0.01 -0.01 0 0 0.01 -0.01 0.01 -0.01 0.01 0 0 -0.01 0.01 0 0.01 -0.01 0.01 -0.01 0 0 0.01 -0.01 0.01 0 0.01 -0.01 0 0 0.01 -0.01 0.01 0 0.01 -0.01 0.01 0 0 -0.01 0.01 0 0.01 0 0.01 -0.01 0.01 0 0.01 -0.01 0.01 0 0 0 0.03 0.06 -0.01 0 0 0.01 -0.01 0 -0.01 0.01 -0.01 0 -0.01 0 0 0.01 -0.01 0 -0.01 0.01 -0.01 0 0 0.01 -0.01 0 -0.01 0 -0.01 0.01 0 0 -0.01 0.01 -0.01 0 0 0.01 -0.01 0 -0.01 0.01 0 0 -0.01 0.01 -0.01 0.01 0 0 -0.01 0.01 0 0 -0.01 0.01 -0.01 0 0 0.01 -0.01 0.01 0 0 -0.01 0.01 0 0zm0 0l0 0 -0.06 0.06 0.06 -0.06zm-0.14 0.24l-0.07 -0.03 0 0 0.01 -0.01 0 -0.01 0 -0.01 0.01 0 0 -0.01 0 -0.01 0.01 -0.01 0 -0.01 0.01 -0.01 0 -0.01 0.01 -0.01 0 -0.01 0.01 0 0 -0.01 0 -0.01 0.01 -0.01 0 -0.01 0.01 -0.01 0 0 0.01 -0.01 0.01 -0.01 0 -0.01 0.01 0 0 -0.01 0.01 -0.01 0 -0.01 0.01 -0.01 0.01 0 0 -0.01 0.01 -0.01 0 0 0.01 -0.01 0.05 0.05 -0.01 0.01 0 0 -0.01 0.01 0 0 -0.01 0.01 0 0.01 -0.01 0.01 0 0 -0.01 0.01 0 0.01 -0.01 0 0 0.01 -0.01 0.01 0 0 -0.01 0.01 0 0.01 -0.01 0.01 0 0 -0.01 0.01 0 0.01 0 0.01 -0.01 0.01 0 0 -0.01 0.01 0 0.01 0 0.01 -0.01 0.01 0 0 0 0.01 -0.01 0.01 0 0.01 0 0.01 0 0zm0 0l0 0 0 0 0 0zm-0.06 0.29l-0.06 0 0 0 0 -0.01 0 -0.01 0 -0.01 0 -0.01 0 -0.01 0 -0.01 0 -0.01 0 -0.01 0 -0.01 0 -0.01 0 -0.01 0 -0.01 0.01 -0.01 0 -0.01 0 -0.01 0 -0.01 0 -0.01 0 -0.01 0.01 -0.01 0 -0.01 0 -0.01 0 -0.01 0 -0.01 0.01 -0.01 0 -0.01 0 -0.01 0.01 -0.01 0 -0.01 0 -0.01 0.01 -0.01 0 -0.01 0 -0.01 0.07 0.03 -0.01 0.01 0 0.01 0 0 -0.01 0.01 0 0.01 0 0.01 0 0.01 -0.01 0.01 0 0.01 0 0.01 0 0.01 -0.01 0 0 0.01 0 0.01 0 0.01 0 0.01 0 0.01 -0.01 0.01 0 0.01 0 0.01 0 0.01 0 0.01 0 0.01 0 0.01 0 0.01 0 0.01 0 0 0 0.01 -0.01 0.01 0 0.01 0 0.01 0 0.01 0 0zm0.2 0.53l-0.05 0.05 0 0 -0.01 -0.01 -0.02 -0.02 -0.01 -0.01 -0.01 -0.02 -0.01 -0.01 -0.01 -0.02 -0.01 -0.02 -0.01 -0.01 -0.01 -0.02 -0.01 -0.01 -0.01 -0.02 -0.01 -0.02 -0.01 -0.02 -0.01 -0.01 0 -0.02 -0.01 -0.02 -0.01 -0.02 0 -0.02 -0.01 -0.02 0 -0.01 -0.01 -0.02 0 -0.02 -0.01 -0.02 0 -0.02 0 -0.02 -0.01 -0.02 0 -0.02 0 -0.02 0 -0.02 0 -0.02 0 -0.03 0 -0.02 0.06 0 0 0.02 0.01 0.02 0 0.02 0 0.02 0 0.02 0 0.02 0 0.02 0.01 0.02 0 0.01 0 0.02 0.01 0.02 0 0.02 0.01 0.01 0 0.02 0.01 0.02 0 0.01 0.01 0.02 0.01 0.02 0 0.01 0.01 0.02 0.01 0.01 0.01 0.02 0.01 0.01 0 0.02 0.01 0.01 0.01 0.02 0.01 0.01 0.01 0.02 0.01 0.01 0.02 0.01 0.01 0.02 0.01 0.01 0 0zm0 0l0 0 -0.04 -0.05 0.04 0.05zm0.49 0.21l0 0.07 0 0 -0.02 0 -0.02 0 -0.02 0 -0.02 0 -0.02 0 -0.01 0 -0.02 -0.01 -0.02 0 -0.02 0 -0.02 -0.01 -0.02 0 -0.02 -0.01 -0.01 0 -0.02 -0.01 -0.02 -0.01 -0.02 0 -0.01 -0.01 -0.02 -0.01 -0.02 -0.01 -0.01 -0.01 -0.02 -0.01 -0.01 -0.01 -0.02 -0.01 -0.01 -0.01 -0.02 -0.01 -0.01 -0.01 -0.02 -0.01 -0.01 -0.01 -0.02 -0.02 -0.01 -0.01 -0.02 -0.01 -0.01 -0.02 0.05 -0.05 0.01 0.01 0.01 0.02 0.02 0.01 0.01 0.01 0.01 0.01 0.02 0.01 0.01 0.01 0.01 0.01 0.02 0.01 0.01 0.01 0.02 0.01 0.01 0.01 0.01 0.01 0.02 0.01 0.02 0 0.01 0.01 0.02 0.01 0.01 0 0.02 0.01 0.01 0 0.02 0.01 0.02 0 0.01 0.01 0.02 0 0.02 0 0.01 0.01 0.02 0 0.02 0 0.02 0 0.02 0 0.02 0 0.01 0 0 0zm0.31 -0.07l0.03 0.07 0 0 -0.01 0 -0.01 0.01 -0.01 0 -0.01 0.01 -0.01 0 -0.01 0.01 -0.01 0 -0.01 0 -0.01 0.01 -0.01 0 -0.01 0 -0.01 0.01 -0.01 0 -0.01 0 -0.01 0 -0.01 0.01 -0.01 0 -0.01 0 -0.02 0 -0.01 0 -0.01 0.01 -0.01 0 -0.01 0 -0.01 0 -0.01 0 -0.01 0 -0.01 0 -0.01 0 -0.01 0 -0.01 0 -0.01 0 -0.02 0 0 -0.07 0.01 0 0.01 0 0.01 0 0.02 0 0.01 0 0 0 0.01 0 0.01 0 0.01 0 0.01 0 0.01 -0.01 0.01 0 0.01 0 0.01 0 0.01 0 0.01 0 0.01 -0.01 0.01 0 0.01 0 0.01 0 0.01 -0.01 0.01 0 0.01 0 0.01 -0.01 0 0 0.01 0 0.01 -0.01 0.01 0 0.01 0 0.01 -0.01 0.01 0 0.01 -0.01 0 0zm0.03 0.07l0 0 0 0 0 0zm0.25 -0.26l-0.05 0.06 0.05 -0.01 0 0.01 -0.01 0.01 -0.01 0.01 -0.01 0.01 0 0 -0.01 0.01 -0.01 0.01 0 0.01 -0.01 0 -0.01 0.01 -0.01 0.01 0 0 -0.01 0.01 -0.01 0.01 -0.01 0 0 0.01 -0.01 0.01 -0.01 0 -0.01 0.01 -0.01 0.01 -0.01 0 0 0.01 -0.01 0 -0.01 0.01 -0.01 0 -0.01 0.01 -0.01 0.01 -0.01 0 -0.01 0.01 -0.01 0 -0.01 0.01 0 0 -0.03 -0.07 0 0 0.01 0 0.01 -0.01 0.01 0 0.01 -0.01 0.01 0 0 -0.01 0.01 0 0.01 -0.01 0.01 0 0.01 -0.01 0 0 0.01 -0.01 0.01 0 0.01 -0.01 0 -0.01 0.01 0 0.01 -0.01 0 0 0.01 -0.01 0.01 -0.01 0.01 0 0 -0.01 0.01 -0.01 0.01 0 0 -0.01 0.01 -0.01 0 0 0.01 -0.01 0.01 -0.01 0 -0.01 0.01 0 0.05 -0.01zm-0.05 0.01l0.02 -0.03 0.03 0.02 -0.05 0.01zm0.23 0.25l-0.23 -0.2 0.05 -0.06 0.22 0.21 0 0.05 -0.04 0zm0.04 -0.05l0.03 0.02 -0.03 0.03 0 -0.05zm-0.35 0.32l-0.03 -0.06 0 0 0.02 -0.01 0.01 0 0.01 -0.01 0.01 -0.01 0.01 0 0.01 -0.01 0.02 -0.01 0.01 0 0.01 -0.01 0.01 -0.01 0.01 -0.01 0.01 0 0.01 -0.01 0.01 -0.01 0.01 -0.01 0.01 0 0.01 -0.01 0.01 -0.01 0.01 -0.01 0.01 -0.01 0.01 0 0.01 -0.01 0.01 -0.01 0.01 -0.01 0.01 -0.01 0.01 -0.01 0.01 -0.01 0.01 -0.01 0.01 -0.01 0.01 -0.01 0 -0.01 0.01 -0.01 0.05 0.05 -0.01 0.01 0 0.01 -0.01 0.01 -0.01 0.01 -0.01 0.01 -0.01 0.01 -0.01 0.01 -0.01 0.01 -0.01 0.01 -0.01 0.01 -0.01 0.01 -0.01 0.01 -0.01 0.01 -0.01 0.01 -0.02 0.01 -0.01 0 -0.01 0.01 -0.01 0.01 -0.01 0.01 -0.01 0.01 -0.01 0.01 -0.01 0 -0.02 0.01 -0.01 0.01 -0.01 0.01 -0.01 0 -0.01 0.01 -0.02 0.01 -0.01 0 -0.01 0.01 -0.01 0.01 -0.02 0 0 0zm-0.46 0.1l0 -0.07 0 0 0.02 0 0.01 0 0.02 0 0.01 0 0.02 0 0.01 0 0.02 0 0.01 -0.01 0.01 0 0.02 0 0.01 0 0.02 0 0.01 -0.01 0.01 0 0.02 0 0.01 0 0.01 -0.01 0.02 0 0.01 0 0.01 -0.01 0.02 0 0.01 0 0.01 -0.01 0.01 0 0.02 -0.01 0.01 0 0.01 -0.01 0.01 0 0.02 -0.01 0.01 0 0.01 -0.01 0.01 0 0.03 0.06 -0.01 0.01 -0.01 0 -0.02 0.01 -0.01 0.01 -0.01 0 -0.02 0.01 -0.01 0 -0.01 0.01 -0.02 0 -0.01 0.01 -0.02 0 -0.01 0 -0.01 0.01 -0.02 0 -0.01 0 -0.02 0.01 -0.01 0 -0.02 0 -0.01 0.01 -0.01 0 -0.02 0 -0.01 0 -0.02 0 -0.01 0.01 -0.02 0 -0.01 0 -0.02 0 -0.01 0 -0.02 0 -0.01 0 -0.02 0 -0.02 0 0 0z"/>
   </g>
   <path class="fil2" d="M16.1 2.68l0.08 0 0 0.31 -0.08 0c-0.29,0 -0.52,-0.09 -0.67,-0.25 -0.16,-0.17 -0.24,-0.39 -0.24,-0.68l0 -0.8 -0.3 0 0 -0.29 0.32 0 0 -0.91 0.3 0 0 0.91 0.51 0 0 0.29 -0.51 0 0 0.8c0,0.41 0.2,0.62 0.59,0.62z"/>
   <path class="fil2" d="M16.43 2.99l0 -2.1 0.31 0 0 0.39c0.04,-0.06 0.08,-0.13 0.14,-0.2 0.07,-0.07 0.15,-0.12 0.25,-0.17 0.09,-0.05 0.2,-0.07 0.3,-0.07l0 0.33c-0.07,0 -0.15,0.01 -0.23,0.03 -0.07,0.03 -0.15,0.07 -0.21,0.13 -0.07,0.06 -0.12,0.14 -0.17,0.23 -0.04,0.09 -0.07,0.2 -0.07,0.32l0 1.11 -0.32 0z"/>
   <path class="fil2" d="M17.68 2.99l0 -2.1 0.32 0 0 2.1 -0.32 0zm-0.03 -2.55l0 -0.37 0.38 0 0 0.37 -0.38 0z"/>
   <path class="fil2" d="M19.11 1.47l-0.2 0.27 -0.62 -0.85 0.39 0 0.43 0.58zm1.1 -0.58l0 0 -0.37 0.5 0 0 0 0 -0.39 0.53 0.76 1.06 0 0.01 -0.39 0 -0.57 -0.8 -0.59 0.8 -0.39 0 0.88 -1.19 0.68 -0.91 0.38 0z"/>
   <path class="fil2" d="M9.63 1.23c0.1,-0.06 0.23,-0.02 0.29,0.08 0.05,0.11 0.02,0.25 -0.08,0.31 -0.1,0.06 -0.23,0.02 -0.29,-0.08 -0.06,-0.11 -0.02,-0.25 0.08,-0.31z"/>
   <g>
    <path class="fil1" d="M9.57 1.97c0,0.21 -0.07,0.38 -0.21,0.52 -0.14,0.13 -0.31,0.19 -0.52,0.19 -0.21,0 -0.38,-0.07 -0.52,-0.22 -0.14,-0.14 -0.21,-0.33 -0.21,-0.55 0,-0.13 0.03,-0.25 0.08,-0.35 0.05,-0.1 0.11,-0.19 0.18,-0.25 0.07,-0.06 0.15,-0.11 0.23,-0.13 0.09,-0.03 0.17,-0.04 0.25,-0.04 0.07,0 0.15,0.01 0.23,0.04 0.08,0.02 0.15,0.06 0.22,0.11l0.09 -0.27c-0.15,-0.13 -0.34,-0.19 -0.55,-0.19 -0.15,0 -0.29,0.03 -0.42,0.08 -0.13,0.06 -0.24,0.14 -0.33,0.23 -0.09,0.1 -0.16,0.22 -0.21,0.35 -0.05,0.13 -0.08,0.28 -0.08,0.43 0,0.14 0.02,0.28 0.07,0.41 0.05,0.13 0.12,0.25 0.21,0.35 0.1,0.09 0.21,0.17 0.33,0.22 0.13,0.06 0.27,0.09 0.42,0.09 0.17,0 0.32,-0.04 0.46,-0.11 0.13,-0.08 0.23,-0.18 0.29,-0.3l0 0.38 0.31 0 0 -0.99c-0.11,0 -0.21,0 -0.32,0z"/>
    <path id="1" class="fil1" d="M9.39 2.51l-0.05 -0.05 0 0 0.01 -0.01 0.01 -0.02 0.01 -0.01 0.02 -0.01 0.01 -0.01 0.01 -0.02 0.01 -0.01 0.01 -0.01 0 -0.01 0.01 -0.02 0.01 -0.01 0.01 -0.02 0.01 -0.01 0 -0.02 0.01 -0.01 0.01 -0.01 0 -0.02 0.01 -0.02 0 -0.01 0.01 -0.02 0 -0.01 0.01 -0.02 0 -0.02 0 -0.01 0.01 -0.02 0 -0.02 0 -0.01 0 -0.02 0 -0.02 0.01 -0.02 0 -0.02 0 -0.02 0.07 0.01 -0.01 0.02 0 0.02 0 0.02 0 0.01 0 0.02 0 0.02 -0.01 0.02 0 0.02 0 0.02 -0.01 0.02 0 0.02 -0.01 0.01 0 0.02 -0.01 0.02 0 0.02 -0.01 0.01 -0.01 0.02 -0.01 0.02 0 0.01 -0.01 0.02 -0.01 0.01 -0.01 0.02 -0.01 0.02 -0.01 0.01 -0.01 0.02 -0.01 0.01 -0.01 0.01 -0.01 0.02 -0.02 0.01 -0.01 0.02 -0.01 0.01 -0.01 0.01 0 0zm-0.05 -0.05l0 0 0 0 0 0zm-0.5 0.26l0 -0.07 0 0 0.02 0 0.02 0 0.02 0 0.01 0 0.02 -0.01 0.02 0 0.02 0 0.01 0 0.02 -0.01 0.02 0 0.01 0 0.02 -0.01 0.02 0 0.01 -0.01 0.02 0 0.02 -0.01 0.01 -0.01 0.02 0 0.01 -0.01 0.02 -0.01 0.01 0 0.02 -0.01 0.01 -0.01 0.01 -0.01 0.02 -0.01 0.01 -0.01 0.01 -0.01 0.02 -0.01 0.01 -0.01 0.01 -0.01 0.02 -0.01 0.01 -0.01 0.05 0.05 -0.02 0.01 -0.01 0.02 -0.02 0.01 -0.01 0.01 -0.02 0.01 -0.01 0.01 -0.02 0.01 -0.01 0.01 -0.02 0.01 -0.01 0.01 -0.02 0.01 -0.01 0.01 -0.02 0.01 -0.02 0 -0.01 0.01 -0.02 0.01 -0.02 0 -0.02 0.01 -0.01 0.01 -0.02 0 -0.02 0.01 -0.02 0 -0.02 0 -0.01 0.01 -0.02 0 -0.02 0 -0.02 0.01 -0.02 0 -0.02 0 -0.02 0 -0.02 0 -0.02 0 0 0zm-0.54 -0.23l0.04 -0.05 0 0 0.02 0.01 0.01 0.01 0.01 0.02 0.01 0.01 0.02 0.01 0.01 0.01 0.01 0.01 0.02 0.01 0.01 0.01 0.02 0.01 0.01 0.01 0.01 0.01 0.02 0 0.01 0.01 0.02 0.01 0.01 0.01 0.02 0 0.02 0.01 0.01 0 0.02 0.01 0.01 0 0.02 0.01 0.02 0 0.01 0.01 0.02 0 0.02 0 0.02 0 0.02 0.01 0.01 0 0.02 0 0.02 0 0.02 0 0 0.07 -0.02 0 -0.02 0 -0.02 0 -0.02 0 -0.02 -0.01 -0.02 0 -0.02 0 -0.02 0 -0.02 -0.01 -0.01 0 -0.02 -0.01 -0.02 0 -0.02 -0.01 -0.02 0 -0.01 -0.01 -0.02 -0.01 -0.02 0 -0.01 -0.01 -0.02 -0.01 -0.02 -0.01 -0.01 -0.01 -0.02 -0.01 -0.01 -0.01 -0.02 -0.01 -0.02 -0.01 -0.01 -0.01 -0.01 -0.01 -0.02 -0.02 -0.01 -0.01 -0.02 -0.01 -0.01 -0.02 -0.01 -0.01 0 0zm-0.22 -0.58l0.07 0 0 0 0 0.02 0 0.02 0 0.02 0 0.02 0 0.02 0.01 0.02 0 0.02 0 0.02 0 0.01 0.01 0.02 0 0.02 0.01 0.02 0 0.01 0.01 0.02 0 0.02 0.01 0.01 0 0.02 0.01 0.02 0.01 0.01 0.01 0.02 0 0.01 0.01 0.02 0.01 0.01 0.01 0.02 0.01 0.01 0.01 0.02 0.01 0.01 0.01 0.02 0.01 0.01 0.01 0.01 0.01 0.02 0.01 0.01 -0.04 0.05 -0.02 -0.01 -0.01 -0.02 -0.01 -0.01 -0.01 -0.02 -0.02 -0.02 -0.01 -0.01 -0.01 -0.02 -0.01 -0.01 -0.01 -0.02 -0.01 -0.02 -0.01 -0.01 -0.01 -0.02 0 -0.02 -0.01 -0.01 -0.01 -0.02 -0.01 -0.02 0 -0.02 -0.01 -0.02 0 -0.02 -0.01 -0.01 0 -0.02 -0.01 -0.02 0 -0.02 -0.01 -0.02 0 -0.02 0 -0.02 0 -0.02 -0.01 -0.02 0 -0.02 0 -0.02 0 -0.03 0 -0.02 0 0zm0.08 -0.37l0.06 0.04 0 0 -0.01 0 0 0.01 0 0.01 -0.01 0.01 0 0.01 0 0.01 -0.01 0.01 0 0.01 0 0.01 -0.01 0.01 0 0.01 0 0.01 -0.01 0.01 0 0.01 0 0.01 0 0.01 -0.01 0.01 0 0.01 0 0.01 0 0.02 0 0.01 0 0.01 -0.01 0.01 0 0.01 0 0.01 0 0.01 0 0.01 0 0.02 0 0.01 0 0.01 0 0.01 0 0.01 -0.07 0 0 -0.01 0 -0.01 0 -0.02 0 -0.01 0 -0.01 0 -0.01 0 -0.02 0.01 -0.01 0 -0.01 0 -0.01 0 -0.01 0 -0.02 0 -0.01 0.01 -0.01 0 -0.01 0 -0.01 0 -0.01 0 -0.02 0.01 -0.01 0 -0.01 0 -0.01 0.01 -0.01 0 -0.01 0 -0.01 0.01 -0.01 0 -0.01 0.01 -0.02 0 -0.01 0 -0.01 0.01 -0.01 0 -0.01 0.01 -0.01 0 0zm0.06 0.04l0 0 -0.01 0.02 0.01 -0.02zm0.13 -0.3l0.04 0.06 0 0 0 0.01 -0.01 0 -0.01 0.01 0 0 -0.01 0.01 -0.01 0.01 0 0 -0.01 0.01 0 0 -0.01 0.01 0 0.01 -0.01 0 -0.01 0.01 0 0.01 -0.01 0.01 0 0 -0.01 0.01 0 0.01 -0.01 0.01 0 0 -0.01 0.01 0 0.01 -0.01 0.01 0 0.01 -0.01 0 0 0.01 -0.01 0.01 0 0.01 -0.01 0.01 0 0.01 -0.01 0.01 0 0.01 -0.06 -0.04 0 -0.01 0.01 -0.01 0 -0.01 0.01 -0.01 0 -0.01 0.01 0 0 -0.01 0.01 -0.01 0 -0.01 0.01 -0.01 0 -0.01 0.01 -0.01 0.01 -0.01 0 0 0.01 -0.01 0 -0.01 0.01 -0.01 0.01 -0.01 0 0 0.01 -0.01 0 -0.01 0.01 -0.01 0.01 0 0 -0.01 0.01 -0.01 0.01 -0.01 0 0 0.01 -0.01 0.01 -0.01 0 0 0.01 -0.01 0.01 -0.01 0 0zm0.24 -0.14l0.02 0.07 0 0 0 0 -0.01 0.01 -0.01 0 -0.01 0 0 0.01 -0.01 0 -0.01 0 -0.01 0 0 0.01 -0.01 0 -0.01 0 0 0.01 -0.01 0 -0.01 0.01 -0.01 0 0 0 -0.01 0.01 -0.01 0 0 0.01 -0.01 0 -0.01 0 0 0.01 -0.01 0 -0.01 0.01 0 0 -0.01 0.01 -0.01 0 0 0.01 -0.01 0 -0.01 0.01 0 0 -0.01 0.01 -0.04 -0.06 0 0 0.01 -0.01 0.01 0 0.01 -0.01 0 -0.01 0.01 0 0.01 -0.01 0.01 0 0 -0.01 0.01 0 0.01 -0.01 0.01 0 0 -0.01 0.01 0 0.01 -0.01 0.01 0 0 0 0.01 -0.01 0.01 0 0.01 -0.01 0 0 0.01 0 0.01 -0.01 0.01 0 0.01 -0.01 0 0 0.01 0 0.01 -0.01 0.01 0 0.01 0 0.01 0 0 -0.01 0 0zm0.26 -0.04l0 0.07 0 0 -0.01 0 -0.01 0 0 0 -0.01 0 -0.01 0 0 0.01 -0.01 0 -0.01 0 -0.01 0 0 0 -0.01 0 -0.01 0 0 0 -0.01 0 -0.01 0 -0.01 0 0 0 -0.01 0.01 -0.01 0 -0.01 0 0 0 -0.01 0 -0.01 0 -0.01 0.01 0 0 -0.01 0 -0.01 0 -0.01 0 0 0.01 -0.01 0 -0.01 0 -0.01 0 -0.02 -0.07 0.01 0 0.01 0 0.01 0 0.01 -0.01 0.01 0 0 0 0.01 0 0.01 0 0.01 -0.01 0.01 0 0 0 0.01 0 0.01 0 0.01 0 0.01 -0.01 0 0 0.01 0 0.01 0 0.01 0 0 0 0.01 0 0.01 0 0.01 0 0.01 -0.01 0 0 0.01 0 0.01 0 0.01 0 0 0 0.01 0 0.01 0 0.01 0 0 0zm0.24 0.04l-0.02 0.07 0 0 -0.01 0 0 0 -0.01 -0.01 -0.01 0 0 0 -0.01 0 -0.01 0 -0.01 -0.01 0 0 -0.01 0 -0.01 0 0 0 -0.01 0 -0.01 0 0 -0.01 -0.01 0 -0.01 0 -0.01 0 0 0 -0.01 0 -0.01 0 0 0 -0.01 0 -0.01 0 0 0 -0.01 0 -0.01 -0.01 -0.01 0 0 0 -0.01 0 -0.01 0 0 0 0 -0.07 0 0 0.01 0 0.01 0 0.01 0 0 0 0.01 0 0.01 0 0.01 0 0 0.01 0.01 0 0.01 0 0.01 0 0.01 0 0 0 0.01 0 0.01 0 0.01 0 0 0 0.01 0.01 0.01 0 0.01 0 0 0 0.01 0 0.01 0 0.01 0.01 0.01 0 0 0 0.01 0 0.01 0 0.01 0.01 0 0 0.01 0 0 0zm-0.02 0.07l0 0 0 0 0 0zm0.19 0.07l0.07 0.03 -0.05 0.01 -0.01 0 -0.01 -0.01 0 0 -0.01 -0.01 0 0 -0.01 -0.01 -0.01 0 0 0 -0.01 -0.01 0 0 -0.01 -0.01 -0.01 0 0 0 -0.01 -0.01 0 0 -0.01 0 -0.01 -0.01 0 0 -0.01 0 -0.01 -0.01 0 0 -0.01 0 -0.01 -0.01 0 0 -0.01 0 -0.01 0 0 -0.01 -0.01 0 -0.01 0 0 -0.01 -0.01 0 -0.01 0 0.02 -0.07 0.01 0 0.01 0.01 0 0 0.01 0 0.01 0 0.01 0.01 0 0 0.01 0 0.01 0.01 0.01 0 0 0 0.01 0.01 0.01 0 0.01 0 0 0.01 0.01 0 0.01 0.01 0 0 0.01 0 0.01 0.01 0.01 0 0 0.01 0.01 0 0.01 0.01 0 0 0.01 0.01 0.01 0 0 0 0.01 0.01 0.01 0 0 0.01 0.01 0.01 -0.06 0.01zm0.07 0.03l-0.02 0.04 -0.03 -0.03 0.05 -0.01zm0.09 -0.28l-0.09 0.28 -0.07 -0.03 0.1 -0.27 0.05 -0.02 0.01 0.04zm-0.01 -0.04l0.02 0.02 -0.01 0.02 -0.01 -0.04zm-0.57 -0.12l0 -0.07 0 0 0.02 0 0.02 0 0.02 0 0.02 0 0.02 0 0.02 0 0.02 0.01 0.02 0 0.02 0 0.01 0.01 0.02 0 0.02 0 0.02 0.01 0.02 0 0.02 0.01 0.02 0 0.01 0.01 0.02 0.01 0.02 0.01 0.02 0 0.01 0.01 0.02 0.01 0.02 0.01 0.02 0.01 0.01 0.01 0.02 0.01 0.01 0.01 0.02 0.01 0.02 0.01 0.01 0.01 0.02 0.01 0.01 0.01 -0.04 0.06 -0.01 -0.01 -0.02 -0.01 -0.01 -0.01 -0.02 -0.01 -0.01 -0.01 -0.02 -0.01 -0.01 -0.01 -0.02 -0.01 -0.01 -0.01 -0.02 -0.01 -0.01 0 -0.02 -0.01 -0.02 -0.01 -0.01 0 -0.02 -0.01 -0.02 -0.01 -0.01 0 -0.02 -0.01 -0.02 0 -0.01 -0.01 -0.02 0 -0.02 0 -0.02 -0.01 -0.01 0 -0.02 0 -0.02 -0.01 -0.02 0 -0.02 0 -0.02 0 -0.02 0 -0.02 0 -0.01 0 0 0zm-0.4 0.08l-0.03 -0.07 0 0 0.01 0 0.02 -0.01 0.01 0 0.01 -0.01 0.01 0 0.02 -0.01 0.01 0 0.01 -0.01 0.01 0 0.02 0 0.01 -0.01 0.01 0 0.02 0 0.01 -0.01 0.01 0 0.02 0 0.01 -0.01 0.01 0 0.02 0 0.01 0 0.01 0 0.02 -0.01 0.01 0 0.01 0 0.02 0 0.01 0 0.02 0 0.01 0 0.01 0 0.02 0 0.01 0 0.02 0 0 0.07 -0.02 0 -0.01 0 -0.01 0 -0.02 0 -0.01 0 -0.01 0 -0.02 0 -0.01 0 -0.01 0 -0.02 0.01 -0.01 0 -0.01 0 -0.01 0 -0.02 0 -0.01 0.01 -0.01 0 -0.01 0 -0.02 0 -0.01 0.01 -0.01 0 -0.01 0 -0.02 0.01 -0.01 0 -0.01 0 -0.01 0.01 -0.01 0 -0.01 0 -0.02 0.01 -0.01 0 -0.01 0.01 -0.01 0 -0.01 0.01 0 0zm-0.32 0.22l-0.05 -0.05 0 0 0.01 -0.01 0 -0.01 0.01 -0.01 0.01 -0.01 0.01 -0.01 0.01 -0.01 0.01 -0.01 0.01 0 0.01 -0.01 0.01 -0.01 0.01 -0.01 0.01 -0.01 0.01 0 0.01 -0.01 0.01 -0.01 0.01 -0.01 0.02 -0.01 0.01 0 0.01 -0.01 0.01 -0.01 0.01 0 0.01 -0.01 0.01 -0.01 0.01 0 0.02 -0.01 0.01 -0.01 0.01 0 0.01 -0.01 0.01 0 0.02 -0.01 0.01 0 0.01 -0.01 0.03 0.07 -0.02 0 -0.01 0.01 -0.01 0 -0.01 0.01 -0.01 0 -0.01 0.01 -0.01 0 -0.01 0.01 -0.02 0.01 -0.01 0 -0.01 0.01 -0.01 0.01 -0.01 0 -0.01 0.01 -0.01 0.01 -0.01 0 -0.01 0.01 -0.01 0.01 -0.01 0 -0.01 0.01 -0.01 0.01 -0.01 0.01 -0.01 0 0 0.01 -0.01 0.01 -0.01 0.01 -0.01 0.01 -0.01 0 -0.01 0.01 -0.01 0.01 -0.01 0.01 0 0.01 0 0zm-0.05 -0.05l0 0 0 0 0 0zm-0.16 0.39l-0.07 -0.03 0 0 0.01 -0.01 0 -0.02 0.01 -0.01 0 -0.01 0.01 -0.01 0.01 -0.02 0 -0.01 0.01 -0.01 0 -0.01 0.01 -0.01 0.01 -0.02 0 -0.01 0.01 -0.01 0.01 -0.01 0 -0.01 0.01 -0.01 0.01 -0.02 0 -0.01 0.01 -0.01 0.01 -0.01 0.01 -0.01 0 -0.01 0.01 -0.01 0.01 -0.01 0.01 -0.01 0 -0.01 0.01 -0.01 0.01 -0.01 0.01 -0.01 0.01 -0.01 0.01 -0.01 0.01 -0.01 0.05 0.05 -0.01 0.01 -0.01 0.01 -0.01 0.01 -0.01 0.01 -0.01 0.01 0 0.01 -0.01 0 -0.01 0.01 -0.01 0.01 0 0.01 -0.01 0.01 -0.01 0.01 0 0.01 -0.01 0.01 -0.01 0.01 0 0.02 -0.01 0.01 -0.01 0.01 0 0.01 -0.01 0.01 0 0.01 -0.01 0.01 -0.01 0.01 0 0.01 -0.01 0.01 0 0.02 -0.01 0.01 0 0.01 -0.01 0.01 0 0.01 -0.01 0.01 0 0.02 0 0zm-0.08 0.41l-0.06 0 0 0 0 -0.02 0 -0.01 0 -0.02 0 -0.01 0 -0.01 0 -0.02 0 -0.01 0 -0.02 0 -0.01 0 -0.02 0.01 -0.01 0 -0.01 0 -0.02 0 -0.01 0 -0.01 0.01 -0.02 0 -0.01 0 -0.02 0 -0.01 0.01 -0.01 0 -0.02 0 -0.01 0.01 -0.01 0 -0.02 0 -0.01 0.01 -0.01 0 -0.02 0.01 -0.01 0 -0.01 0 -0.02 0.01 -0.01 0 -0.01 0.07 0.03 -0.01 0.01 0 0.01 -0.01 0.01 0 0.01 0 0.02 -0.01 0.01 0 0.01 0 0.01 -0.01 0.02 0 0.01 0 0.01 -0.01 0.01 0 0.02 0 0.01 0 0.01 -0.01 0.01 0 0.02 0 0.01 0 0.01 -0.01 0.02 0 0.01 0 0.01 0 0.02 0 0.01 0 0.01 0 0.02 0 0.01 0 0.01 0 0.02 -0.01 0.01 0 0.01 0 0.02 0 0zm0.08 0.4l-0.07 0.03 0 0 0 -0.02 -0.01 -0.01 0 -0.01 -0.01 -0.02 0 -0.01 0 -0.01 -0.01 -0.01 0 -0.02 0 -0.01 -0.01 -0.01 0 -0.02 0 -0.01 -0.01 -0.01 0 -0.02 0 -0.01 0 -0.01 -0.01 -0.02 0 -0.01 0 -0.01 0 -0.02 0 -0.01 -0.01 -0.01 0 -0.02 0 -0.01 0 -0.02 0 -0.01 0 -0.01 0 -0.02 0 -0.01 0 -0.01 0 -0.02 0 -0.01 0.06 0 0 0.01 0 0.01 0.01 0.02 0 0.01 0 0.01 0 0.02 0 0.01 0 0.01 0 0.01 0 0.02 0 0.01 0 0.01 0.01 0.02 0 0.01 0 0.01 0 0.01 0 0.02 0.01 0.01 0 0.01 0 0.01 0.01 0.02 0 0.01 0 0.01 0 0.01 0.01 0.01 0 0.02 0.01 0.01 0 0.01 0 0.01 0.01 0.02 0 0.01 0.01 0.01 0 0zm0.2 0.33l-0.05 0.05 0 0 -0.01 -0.01 -0.01 -0.01 -0.01 -0.01 0 -0.01 -0.01 -0.01 -0.01 -0.01 -0.01 -0.01 -0.01 -0.01 0 -0.01 -0.01 -0.01 -0.01 -0.01 -0.01 -0.01 0 -0.01 -0.01 -0.01 -0.01 -0.01 -0.01 -0.01 0 -0.01 -0.01 -0.02 -0.01 -0.01 0 -0.01 -0.01 -0.01 0 -0.01 -0.01 -0.01 -0.01 -0.02 0 -0.01 -0.01 -0.01 0 -0.01 -0.01 -0.01 0 -0.02 -0.01 -0.01 0 -0.01 -0.01 -0.01 0.07 -0.03 0 0.01 0 0.01 0.01 0.01 0 0.02 0.01 0.01 0 0.01 0.01 0.01 0.01 0.01 0 0.01 0.01 0.01 0 0.01 0.01 0.02 0 0.01 0.01 0.01 0.01 0.01 0 0.01 0.01 0.01 0.01 0.01 0 0.01 0.01 0.01 0.01 0.01 0 0.01 0.01 0.01 0.01 0.01 0 0.01 0.01 0.01 0.01 0.01 0.01 0 0 0.01 0.01 0.01 0.01 0.01 0.01 0.01 0 0zm0.32 0.22l-0.03 0.07 0 0 -0.01 -0.01 -0.01 0 -0.02 -0.01 -0.01 0 -0.01 -0.01 -0.01 -0.01 -0.01 0 -0.01 -0.01 -0.02 0 -0.01 -0.01 -0.01 -0.01 -0.01 0 -0.01 -0.01 -0.01 -0.01 -0.01 -0.01 -0.01 0 -0.01 -0.01 -0.01 -0.01 -0.01 -0.01 -0.01 0 -0.02 -0.01 -0.01 -0.01 0 -0.01 -0.01 -0.01 -0.01 -0.01 -0.01 0 -0.01 -0.01 -0.01 -0.01 -0.01 -0.01 -0.01 -0.01 -0.01 -0.01 -0.01 -0.01 0.05 -0.05 0.01 0.01 0.01 0.01 0 0.01 0.01 0.01 0.01 0 0.01 0.01 0.01 0.01 0.01 0.01 0.01 0.01 0.01 0 0.01 0.01 0.01 0.01 0.01 0.01 0 0 0.01 0.01 0.01 0.01 0.01 0 0.01 0.01 0.01 0.01 0.01 0 0.02 0.01 0.01 0.01 0.01 0 0.01 0.01 0.01 0 0.01 0.01 0.01 0 0.01 0.01 0.01 0.01 0.01 0 0.01 0.01 0.02 0 0 0zm0.4 0.08l0 0.07 0 0 -0.02 0 -0.01 0 -0.02 0 -0.01 0 -0.01 0 -0.02 0 -0.01 0 -0.02 0 -0.01 0 -0.01 -0.01 -0.02 0 -0.01 0 -0.01 0 -0.02 0 -0.01 -0.01 -0.01 0 -0.02 0 -0.01 0 -0.01 -0.01 -0.02 0 -0.01 0 -0.01 -0.01 -0.02 0 -0.01 -0.01 -0.01 0 -0.01 0 -0.02 -0.01 -0.01 0 -0.01 -0.01 -0.02 0 -0.01 -0.01 -0.01 0 0.03 -0.07 0.01 0.01 0.01 0 0.01 0.01 0.01 0 0.01 0 0.02 0.01 0.01 0 0.01 0.01 0.01 0 0.01 0 0.02 0.01 0.01 0 0.01 0 0.01 0.01 0.02 0 0.01 0 0.01 0 0.01 0.01 0.02 0 0.01 0 0.01 0 0.01 0 0.02 0 0.01 0.01 0.01 0 0.02 0 0.01 0 0.01 0 0.02 0 0.01 0 0.01 0 0.02 0 0 0zm0.44 -0.11l0.03 0.07 0 0 -0.01 0 -0.01 0.01 -0.02 0.01 -0.01 0 -0.01 0.01 -0.02 0.01 -0.01 0 -0.02 0.01 -0.01 0 -0.01 0.01 -0.02 0 -0.01 0.01 -0.02 0 -0.01 0.01 -0.02 0 -0.01 0 -0.02 0.01 -0.01 0 -0.02 0 -0.01 0.01 -0.02 0 -0.01 0 -0.02 0 -0.01 0.01 -0.02 0 -0.02 0 -0.01 0 -0.02 0 -0.01 0 -0.02 0 -0.02 0 -0.01 0 0 -0.07 0.01 0 0.02 0 0.01 0 0.02 0 0.01 0 0.02 0 0.01 0 0.02 -0.01 0.01 0 0.02 0 0.01 0 0.02 0 0.01 -0.01 0.02 0 0.01 0 0.01 -0.01 0.02 0 0.01 0 0.01 -0.01 0.02 0 0.01 -0.01 0.01 0 0.02 0 0.01 -0.01 0.01 -0.01 0.02 0 0.01 -0.01 0.01 0 0.01 -0.01 0.02 0 0.01 -0.01 0.01 -0.01 0 0zm0.35 -0.26l-0.07 0 0.06 0.02 0 0.01 -0.01 0.01 -0.01 0.01 0 0.01 -0.01 0.02 -0.01 0.01 -0.01 0.01 0 0.01 -0.01 0.01 -0.01 0.01 -0.01 0.01 -0.01 0.01 -0.01 0.01 -0.01 0.01 -0.01 0.01 -0.01 0.01 -0.01 0.01 -0.01 0.01 -0.01 0.01 -0.01 0.01 -0.01 0.01 -0.01 0.01 -0.01 0.01 -0.01 0 -0.01 0.01 -0.01 0.01 -0.01 0.01 -0.02 0.01 -0.01 0 -0.01 0.01 -0.01 0.01 -0.02 0.01 -0.03 -0.07 0.01 0 0.01 -0.01 0.02 -0.01 0.01 0 0.01 -0.01 0.01 -0.01 0.01 -0.01 0.01 0 0.01 -0.01 0.01 -0.01 0.01 -0.01 0.01 -0.01 0.01 0 0.01 -0.01 0.01 -0.01 0.01 -0.01 0.01 -0.01 0.01 -0.01 0 -0.01 0.01 -0.01 0.01 -0.01 0.01 -0.01 0 0 0.01 -0.01 0.01 -0.01 0.01 -0.01 0 -0.01 0.01 -0.01 0.01 -0.02 0 -0.01 0.01 -0.01 0 -0.01 0.07 0.02zm-0.07 -0.02l0.07 -0.12 0 0.14 -0.07 -0.02zm0 0.4l0 -0.38 0.07 0 0 0.38 -0.04 0.04 -0.03 -0.04zm0.03 0.04l-0.03 0 0 -0.04 0.03 0.04zm0.31 0l-0.31 0 0 -0.07 0.31 0 0.04 0.03 -0.04 0.04zm0.04 -0.04l0 0.04 -0.04 0 0.04 -0.04zm0 -0.99l0 0.99 -0.07 0 0 -0.99 0.03 -0.03 0.04 0.03zm-0.04 -0.03l0.04 0 0 0.03 -0.04 -0.03zm-0.28 0.04l-0.07 -0.01 0.03 -0.03 0.01 0 0.01 0 0.01 0 0.01 0 0.01 0 0.01 0 0.01 0 0.01 0 0.01 0 0.01 0 0.01 0 0.01 0 0.01 0 0.01 0 0.01 0 0.01 0 0.01 0 0.01 0 0.01 0 0.01 0 0.01 0 0.01 0 0.01 0 0.01 0 0.01 0 0.01 0 0.01 0 0.01 0 0.01 0 0.01 0 0.01 0 0.01 0 0 0.07 -0.01 0 -0.01 0 -0.01 0 -0.01 0 -0.01 0 -0.01 0 -0.01 0 -0.01 0 -0.01 0 -0.01 0 -0.01 0 -0.01 0 -0.01 0 -0.01 0 -0.01 0 -0.01 0 -0.01 0 -0.01 0 -0.01 0 -0.01 0 -0.01 0 -0.01 0 -0.01 0 -0.01 0 -0.01 0 -0.01 0 -0.01 0 -0.01 0 -0.01 0 -0.01 0 -0.01 0 -0.01 0 0.04 -0.03zm-0.07 -0.01l0 -0.03 0.03 0 -0.03 0.03z"/>
   </g>
  </g>
 </g>
</svg>
