<svg width="24" height="24" viewBox="0 0 24 24" fill="none" xmlns="http://www.w3.org/2000/svg">
<path fill-rule="evenodd" clip-rule="evenodd" d="M15 20.5905C15 19.8184 15.4602 19.1351 16.0867 18.6838C17.8512 17.4129 19 15.3406 19 13C19 9.13401 15.866 6 12 6C8.13401 6 5 9.13401 5 13C5 15.3406 6.14878 17.4129 7.91327 18.6838C8.53977 19.1351 9 19.8184 9 20.5905V21C9 22.1046 9.89543 23 11 23H13C14.1046 23 15 22.1046 15 21V20.5905Z" fill="#53AFD3"/>
<path d="M10 9C10 9 8.50006 9 8.00006 10.5C7.50006 12 8.00005 13 8.00005 13" stroke="white" stroke-width="1.5" stroke-linecap="round" stroke-linejoin="round"/>
<path d="M4 9L2 7M6.5 5.5L5.5 3.5M12 4V2M17 5.5L18 3.5M20 9L22 7" stroke="#53AFD3" stroke-width="1.5" stroke-linecap="round" stroke-linejoin="round"/>
</svg>
