<svg width="445" height="287" viewBox="0 0 445 287" fill="none" xmlns="http://www.w3.org/2000/svg">
<g clip-path="url(#clip0_435_260)">
<path d="M34.3082 230.542L31.1664 218.15C25.5954 215.789 19.8957 213.744 14.0944 212.025L13.6976 217.784L12.089 211.439C4.89446 209.385 0 208.48 0 208.48C0 208.48 6.61129 233.621 20.478 252.841L36.6357 255.679L24.0832 257.489C25.8283 259.588 27.7036 261.576 29.6981 263.44C49.8703 282.164 72.3382 290.754 79.8817 282.627C87.4253 274.5 77.1877 252.733 57.0156 234.009C50.762 228.205 42.9062 223.547 35.0426 219.88L34.3082 230.542Z" fill="#E6E6E6"/>
<path d="M64.19 217.085L67.9059 204.852C64.3573 199.952 60.535 195.255 56.4574 190.785L53.1409 195.51L55.0435 189.247C49.9466 183.769 46.2245 180.464 46.2245 180.464C46.2245 180.464 38.8888 205.403 40.8242 229.025L53.1889 239.806L41.5079 234.867C41.9166 237.566 42.4947 240.237 43.2388 242.863C50.8285 269.319 65.6216 288.287 76.28 285.229C86.9384 282.171 89.426 258.246 81.8362 231.79C79.4833 223.589 75.1662 215.54 70.3296 208.337L64.19 217.085Z" fill="#E6E6E6"/>
<path d="M410.234 243.442L417.278 239.014C417.624 235.091 417.749 231.152 417.651 227.216L414.006 228.124L417.612 225.857C417.443 220.99 417.023 217.779 417.023 217.779C417.023 217.779 402.78 226.908 393.656 239.345L395.136 249.918L391.501 242.508C390.55 244.009 389.695 245.568 388.941 247.177C381.387 263.418 380.569 279.051 387.112 282.094C393.655 285.137 405.083 274.438 412.636 258.197C414.978 253.162 416.288 247.364 416.983 241.761L410.234 243.442Z" fill="#E6E6E6"/>
<path d="M424.553 259.249L432.872 259.099C435.195 255.92 437.338 252.613 439.289 249.193L435.699 248.085L439.958 248.009C442.329 243.756 443.63 240.789 443.63 240.789C443.63 240.789 426.718 241.242 412.479 247.172L408.28 256.988L408.999 248.766C407.409 249.56 405.871 250.453 404.394 251.439C389.533 261.438 380.751 274.398 384.78 280.385C388.808 286.372 404.121 283.12 418.982 273.121C423.589 270.021 427.708 265.736 431.199 261.298L424.553 259.249Z" fill="#E6E6E6"/>
<path d="M444.325 285.194H1.01294V286.312H444.325V285.194Z" fill="#3F3D56"/>
<path d="M126.867 30.8656L125.719 30.2896L122.608 36.4893L123.756 37.0653L126.867 30.8656Z" fill="white"/>
<path d="M120.251 186.008L119.87 186.052L120.11 188.106L120.49 188.061L120.251 186.008Z" fill="#3F3D56"/>
<path d="M122.521 204.133L122.401 203.769L120.438 204.421L120.559 204.784L122.521 204.133Z" fill="white"/>
<path d="M120.743 193.486L120.36 193.509L120.484 195.573L120.867 195.55L120.743 193.486Z" fill="white"/>
<path d="M118.955 182.168L118.573 182.191L118.697 184.255L119.08 184.232L118.955 182.168Z" fill="white"/>
<path d="M146.268 190.61L146.125 190.255L144.208 191.03L144.351 191.385L146.268 190.61Z" fill="#FF6584"/>
<path d="M123.665 190.006L123.295 189.907L122.76 191.905L123.13 192.004L123.665 190.006Z" fill="#FF6584"/>
<path d="M144.225 35.2491H143.018V41.7678H144.225V35.2491Z" fill="#3F3D56"/>
<path d="M143.5 50.9421H142.293V57.4608H143.5V50.9421Z" fill="white"/>
<path d="M142.586 187.182L142.332 186.928L140.957 188.302L141.212 188.556L142.586 187.182Z" fill="white"/>
<path d="M146.199 207.997L145.945 207.742L144.571 209.116L144.825 209.371L146.199 207.997Z" fill="white"/>
<path d="M143.317 199.369L142.969 199.276L142.466 201.153L142.814 201.246L143.317 199.369Z" fill="#FF6584"/>
<path d="M144.214 192.271L143.96 192.017L142.586 193.391L142.84 193.645L144.214 192.271Z" fill="#FF6584"/>
<path d="M138.688 192.037C138.997 191.728 139.171 191.308 139.171 190.87C139.171 190.432 138.997 190.012 138.688 189.702C138.378 189.393 137.958 189.219 137.521 189.219C137.083 189.219 136.663 189.393 136.353 189.702L83.6766 242.379C83.367 242.689 83.1931 243.109 83.1931 243.546C83.1931 243.984 83.367 244.404 83.6766 244.714C83.9862 245.023 84.4061 245.197 84.844 245.197C85.2818 245.197 85.7017 245.023 86.0113 244.714L138.349 192.376" fill="#3F3D56"/>
<path d="M144.072 185.389C140.235 181.557 135.249 179.086 129.875 178.357C124.501 177.627 119.036 178.677 114.316 181.347C109.596 184.017 105.88 188.159 103.737 193.141C101.594 198.123 101.142 203.669 102.45 208.932C103.758 214.195 106.754 218.885 110.979 222.284C115.204 225.683 120.427 227.605 125.848 227.755C131.269 227.905 136.59 226.275 140.997 223.115C145.404 219.954 148.654 215.437 150.251 210.255C151.579 205.94 151.706 201.345 150.617 196.963C149.528 192.582 147.266 188.58 144.072 185.389ZM123.753 212.394C122.044 211.92 120.488 211.012 119.234 209.758C118.981 209.504 118.747 209.237 118.521 208.965C116.974 207.058 116.159 204.66 116.224 202.205C116.288 199.75 117.229 197.399 118.875 195.576C120.522 193.754 122.765 192.58 125.201 192.267C127.637 191.953 130.105 192.521 132.159 193.868C134.213 195.214 135.718 197.251 136.402 199.61C137.086 201.969 136.904 204.494 135.889 206.731C134.874 208.967 133.093 210.767 130.868 211.806C128.642 212.845 126.119 213.053 123.753 212.394Z" fill="#009A77"/>
<path d="M87.8268 47.3991C87.8268 45.9304 87.2433 44.5218 86.2048 43.4832C85.1662 42.4447 83.7576 41.8612 82.2889 41.8612C80.8202 41.8612 79.4116 42.4447 78.373 43.4832C77.3344 44.5218 76.751 45.9304 76.751 47.3991V280.806C76.751 281.534 76.8942 282.254 77.1725 282.926C77.4508 283.598 77.8587 284.208 78.373 284.722C78.8872 285.237 79.4977 285.644 80.1696 285.923C80.8415 286.201 81.5616 286.344 82.2889 286.344C83.0161 286.344 83.7363 286.201 84.4082 285.923C85.08 285.644 85.6905 285.237 86.2048 284.722C86.719 284.208 87.127 283.598 87.4053 282.926C87.6836 282.254 87.8268 281.534 87.8268 280.806V49.0076" fill="#3F3D56"/>
<path d="M158.468 45.3301C148.959 27.3435 133.197 13.4581 114.154 6.29294C95.1123 -0.87225 74.1064 -0.821987 55.0987 6.43425C36.0911 13.6905 20.3955 27.6511 10.9724 45.683C1.54926 63.7149 -0.950021 84.5717 3.94591 104.319C8.84185 124.067 20.7946 141.341 37.5497 152.883C54.3048 164.424 74.7041 169.436 94.9 166.973C115.096 164.51 133.693 154.742 147.182 139.511C160.672 124.28 168.122 104.64 168.128 84.2945C168.134 70.7129 164.818 57.3361 158.468 45.3301ZM101.802 114.368C95.1952 118.097 87.5441 119.547 80.0311 118.493C72.518 117.439 65.5612 113.94 60.2357 108.536C54.9102 103.133 51.5125 96.1262 50.5676 88.5986C49.6228 81.071 51.1833 73.4418 55.0082 66.8898C58.8331 60.3379 64.7093 55.228 71.7288 52.3498C78.7483 49.4716 86.5203 48.9853 93.8438 50.9661C101.167 52.9469 107.635 57.2845 112.246 63.3085C116.858 69.3326 119.357 76.7078 119.358 84.2945C119.377 90.4168 117.759 96.4328 114.672 101.72C111.586 107.007 107.142 111.374 101.802 114.368Z" fill="#009A77"/>
<path opacity="0.2" d="M84.591 162.275C62.9504 162.275 42.1595 153.852 26.6208 138.79C11.082 123.728 2.01556 103.209 1.34111 81.5792C1.31227 82.4802 1.29753 83.3846 1.29688 84.2926C1.2942 95.2326 3.44669 106.066 7.63141 116.174C11.8161 126.282 17.9511 135.467 25.686 143.204C33.4208 150.94 42.604 157.078 52.711 161.265C62.8181 165.452 73.651 167.607 84.591 167.607C95.5311 167.607 106.364 165.452 116.471 161.265C126.578 157.078 135.761 150.94 143.496 143.204C151.231 135.467 157.366 126.282 161.551 116.174C165.735 106.066 167.888 95.2326 167.885 84.2926C167.885 83.3835 167.871 82.4779 167.841 81.5759C167.167 103.207 158.101 123.726 142.562 138.789C127.024 153.851 106.232 162.275 84.591 162.275Z" fill="black"/>
<path opacity="0.2" d="M84.8321 42.731C76.6123 42.7314 68.5771 45.1693 61.7428 49.7363C54.9084 54.3033 49.5818 60.7943 46.4364 68.3885C43.291 75.9827 42.4682 84.3391 44.0719 92.401C45.6756 100.463 49.6339 107.868 55.4462 113.68C61.2585 119.493 68.6638 123.451 76.7257 125.055C84.7876 126.658 93.144 125.836 100.738 122.69C108.332 119.545 114.823 114.218 119.39 107.384C123.957 100.549 126.395 92.5144 126.396 84.2945C126.383 73.2749 122.001 62.7102 114.208 54.9182C106.416 47.1261 95.8517 42.7432 84.8321 42.731ZM101.802 114.368C95.1951 118.098 87.544 119.547 80.0309 118.493C72.5178 117.439 65.561 113.94 60.2355 108.537C54.9101 103.133 51.5124 96.1262 50.5675 88.5986C49.6226 81.0711 51.1832 73.4418 55.0081 66.8899C58.8329 60.3379 64.7091 55.228 71.7286 52.3498C78.7481 49.4716 86.5202 48.9854 93.8437 50.9661C101.167 52.9469 107.635 57.2845 112.246 63.3086C116.858 69.3326 119.357 76.7079 119.358 84.2945C119.376 90.4168 117.759 96.4328 114.672 101.72C111.585 107.007 107.142 111.374 101.802 114.368Z" fill="black"/>
<path d="M158.469 44.3294V58.1852C158.47 59.1969 158.168 60.1856 157.602 61.0241C157.036 61.8625 156.231 62.5122 155.293 62.8896C154.354 63.267 153.324 63.3547 152.335 63.1415C151.346 62.9283 150.444 62.4239 149.744 61.6932V63.2722C149.744 64.8685 149.11 66.3995 147.981 67.5282C146.852 68.657 145.321 69.2911 143.725 69.2911C142.129 69.2911 140.598 68.657 139.469 67.5282C138.34 66.3995 137.706 64.8685 137.706 63.2722V61.9564C136.978 62.6113 136.076 63.041 135.108 63.1935C134.141 63.346 133.15 63.2148 132.256 62.8157C131.362 62.4166 130.602 61.7668 130.07 60.945C129.537 60.1231 129.255 59.1645 129.256 58.1852L129.014 43.4579V40.0609C129.014 39.5172 128.797 38.9961 128.412 38.6119C128.028 38.2277 127.506 38.0119 126.962 38.0119C126.419 38.0119 125.897 38.2277 125.512 38.6119C125.128 38.9961 124.911 39.5172 124.91 40.0609V43.4579L124.669 55.7709C124.669 57.1156 124.135 58.4052 123.184 59.356C122.233 60.3068 120.943 60.841 119.599 60.841C118.254 60.841 116.964 60.3068 116.014 59.356C115.063 58.4052 114.529 57.1156 114.529 55.7709L113.908 43.4579V37.1637C113.908 36.2718 113.554 35.4163 112.923 34.7856C112.292 34.1549 111.437 33.8006 110.545 33.8006C109.653 33.8006 108.798 34.1549 108.167 34.7856C107.536 35.4163 107.182 36.2718 107.182 37.1637V43.4579L106.803 55.7709C106.804 56.8254 106.475 57.8538 105.864 58.7128C105.252 59.5719 104.388 60.2187 103.391 60.5631C102.395 60.9075 101.315 60.9324 100.304 60.6343C99.2926 60.3361 98.3994 59.7298 97.749 58.8999C96.9472 59.9249 95.781 60.6014 94.4931 60.7885C93.2051 60.9756 91.8947 60.6588 90.8344 59.9042V63.2722C90.8344 64.8685 90.2002 66.3995 89.0715 67.5282C87.9427 68.657 86.4118 69.2911 84.8155 69.2911C83.2191 69.2911 81.6882 68.657 80.5594 67.5282C79.4307 66.3995 78.7965 64.8685 78.7965 63.2722V52.8737C78.797 54.0336 78.3996 55.1585 77.6707 56.0607C76.9418 56.9629 75.9255 57.5878 74.7914 57.8311C73.6573 58.0743 72.4741 57.9212 71.4393 57.3973C70.4045 56.8735 69.5807 56.0105 69.1054 54.9525V63.2722C69.1054 64.8685 68.4713 66.3995 67.3425 67.5282C66.2138 68.657 64.6828 69.2911 63.0865 69.2911C61.4902 69.2911 59.9593 68.657 58.8305 67.5282C57.7017 66.3995 57.0676 64.8685 57.0676 63.2722V43.4579H57.0338V63.2722C57.0338 64.8685 56.3997 66.3995 55.2709 67.5282C54.1421 68.657 52.6112 69.2911 51.0149 69.2911C49.4186 69.2911 47.8876 68.657 46.7589 67.5282C45.6301 66.3995 44.996 64.8685 44.996 63.2722V55.0225C44.5077 56.0671 43.6776 56.914 42.6429 57.4232C41.6083 57.9323 40.4309 58.0733 39.3052 57.8228C38.1796 57.5724 37.173 56.9455 36.4518 56.0456C35.7307 55.1458 35.338 54.0269 35.3387 52.8737V43.4579H34.822V60.375C34.822 61.9713 34.1879 63.5023 33.0591 64.6311C31.9304 65.7598 30.3994 66.3939 28.8031 66.3939C27.2068 66.3939 25.6759 65.7598 24.5471 64.6311C23.4183 63.5023 22.7842 61.9713 22.7842 60.375V52.8737C22.7849 53.54 22.6542 54.1998 22.3997 54.8155C22.1452 55.4312 21.7719 55.9907 21.301 56.4621C20.8301 56.9334 20.271 57.3073 19.6555 57.5624C19.0401 57.8175 18.3804 57.9488 17.7141 57.9488C17.0479 57.9488 16.3882 57.8175 15.7727 57.5624C15.1573 57.3073 14.5981 56.9334 14.1273 56.4621C13.6564 55.9907 13.283 55.4312 13.0285 54.8155C12.774 54.1998 12.6434 53.54 12.644 52.8737V41.7123C20.0799 28.8121 30.8367 18.1402 43.7954 10.8067C56.754 3.47324 71.4411 -0.253766 86.3285 0.0134193C101.216 0.280605 115.76 4.53222 128.447 12.3259C141.134 20.1197 151.501 31.1707 158.469 44.3294Z" fill="#E6E6E6"/>
<path opacity="0.2" d="M51.015 66.3939C50.2246 66.394 49.4419 66.2383 48.7116 65.9359C47.9813 65.6334 47.3178 65.1901 46.7588 64.6311C46.1999 64.0722 45.7566 63.4087 45.4541 62.6784C45.1517 61.9481 44.996 61.1654 44.9961 60.375V63.5136C44.9961 65.1099 45.6302 66.6409 46.759 67.7696C47.8878 68.8984 49.4187 69.5325 51.015 69.5325C52.6113 69.5325 54.1423 68.8984 55.271 67.7696C56.3998 66.6409 57.0339 65.1099 57.0339 63.5136V60.375C57.034 61.1654 56.8783 61.9481 56.5759 62.6784C56.2734 63.4087 55.8301 64.0722 55.2712 64.6312C54.7122 65.1901 54.0487 65.6334 53.3184 65.9359C52.5881 66.2383 51.8054 66.394 51.015 66.3939Z" fill="black"/>
<path opacity="0.2" d="M63.0865 66.3939C62.2961 66.394 61.5134 66.2383 60.7831 65.9359C60.0528 65.6334 59.3893 65.1901 58.8304 64.6311C58.2715 64.0722 57.8281 63.4087 57.5257 62.6784C57.2232 61.9481 57.0676 61.1654 57.0676 60.375V63.5136C57.0676 65.1099 57.7018 66.6409 58.8305 67.7696C59.9593 68.8984 61.4902 69.5325 63.0866 69.5325C64.6829 69.5325 66.2138 68.8984 67.3426 67.7696C68.4713 66.6409 69.1055 65.1099 69.1055 63.5136V60.375C69.1055 61.1654 68.9499 61.9481 68.6474 62.6784C68.345 63.4087 67.9016 64.0722 67.3427 64.6312C66.7838 65.1901 66.1202 65.6334 65.3899 65.9359C64.6597 66.2383 63.877 66.394 63.0865 66.3939Z" fill="black"/>
<path opacity="0.2" d="M44.9962 52.1252C44.5078 53.1698 43.6778 54.0167 42.6431 54.5259C41.6084 55.035 40.431 55.176 39.3054 54.9256C38.1797 54.6751 37.1732 54.0482 36.452 53.1484C35.7308 52.2485 35.3382 51.1296 35.3389 49.9764V53.1151C35.3382 54.2682 35.7308 55.3872 36.452 56.287C37.1732 57.1868 38.1797 57.8138 39.3054 58.0642C40.431 58.3147 41.6084 58.1737 42.6431 57.6645C43.6778 57.1553 44.5078 56.3085 44.9962 55.2638V52.1252Z" fill="black"/>
<path opacity="0.2" d="M57.0677 40.5607H57.0339V43.6993H57.0677V40.5607Z" fill="black"/>
<path opacity="0.2" d="M22.7842 49.9764C22.7829 51.3202 22.2481 52.6086 21.2974 53.5583C20.3468 54.508 19.0579 55.0415 17.7141 55.0415C16.3703 55.0415 15.0815 54.508 14.1308 53.5583C13.1801 52.6086 12.6454 51.3202 12.644 49.9764V53.1151C12.6454 54.4589 13.1801 55.7472 14.1308 56.6969C15.0815 57.6467 16.3703 58.1801 17.7141 58.1801C19.0579 58.1801 20.3468 57.6467 21.2974 56.6969C22.2481 55.7472 22.7829 54.4589 22.7842 53.1151V49.9764Z" fill="black"/>
<path opacity="0.2" d="M35.3387 40.5607H34.822V43.6993H35.3387V40.5607Z" fill="black"/>
<path opacity="0.2" d="M28.8031 63.4967C28.0126 63.4968 27.2299 63.3411 26.4997 63.0387C25.7694 62.7362 25.1058 62.2929 24.5469 61.7339C23.988 61.175 23.5447 60.5115 23.2422 59.7812C22.9398 59.0509 22.7841 58.2682 22.7842 57.4778V60.6164C22.7842 62.2127 23.4183 63.7437 24.5471 64.8724C25.6758 66.0012 27.2068 66.6353 28.8031 66.6353C30.3994 66.6353 31.9303 66.0012 33.0591 64.8724C34.1879 63.7437 34.822 62.2127 34.822 60.6164V57.4778C34.8221 58.2682 34.6664 59.0509 34.364 59.7812C34.0615 60.5115 33.6182 61.175 33.0592 61.7339C32.5003 62.2929 31.8368 62.7362 31.1065 63.0387C30.3762 63.3411 29.5935 63.4968 28.8031 63.4967Z" fill="black"/>
<path opacity="0.2" d="M84.8155 66.3939C84.0251 66.394 83.2424 66.2383 82.5121 65.9359C81.7818 65.6334 81.1183 65.1901 80.5594 64.6311C80.0005 64.0722 79.5571 63.4087 79.2547 62.6784C78.9522 61.9481 78.7966 61.1654 78.7966 60.375V63.5136C78.7966 65.1099 79.4308 66.6409 80.5595 67.7696C81.6883 68.8984 83.2192 69.5325 84.8155 69.5325C86.4119 69.5325 87.9428 68.8984 89.0716 67.7696C90.2003 66.6409 90.8345 65.1099 90.8345 63.5136V60.375C90.8345 61.1654 90.6789 61.9481 90.3764 62.6784C90.074 63.4087 89.6306 64.0722 89.0717 64.6312C88.5128 65.1901 87.8492 65.6334 87.1189 65.9359C86.3887 66.2383 85.606 66.394 84.8155 66.3939Z" fill="black"/>
<path opacity="0.2" d="M129.014 37.1637C129.014 36.6195 128.798 36.0975 128.413 35.7126C128.029 35.3278 127.507 35.1116 126.962 35.1116C126.418 35.1116 125.896 35.3278 125.511 35.7126C125.126 36.0975 124.91 36.6195 124.91 37.1637V40.3024C124.91 40.0326 124.963 39.7654 125.065 39.5161C125.168 39.2667 125.319 39.0401 125.51 38.8492C125.701 38.6583 125.927 38.5068 126.176 38.4035C126.425 38.3002 126.693 38.247 126.962 38.247C127.232 38.247 127.499 38.3002 127.748 38.4035C127.998 38.5068 128.224 38.6583 128.415 38.8492C128.605 39.0401 128.756 39.2667 128.859 39.5161C128.962 39.7654 129.015 40.0326 129.014 40.3024V37.1637Z" fill="black"/>
<path opacity="0.2" d="M78.7966 49.9764C78.797 51.1363 78.3996 52.2612 77.6707 53.1635C76.9418 54.0657 75.9255 54.6906 74.7914 54.9338C73.6574 55.1771 72.4741 55.024 71.4393 54.5001C70.4045 53.9762 69.5807 53.1132 69.1055 52.0552V55.1938C69.5807 56.2518 70.4045 57.1148 71.4393 57.6387C72.4741 58.1626 73.6574 58.3157 74.7914 58.0724C75.9255 57.8292 76.9418 57.2043 77.6707 56.3021C78.3996 55.3999 78.797 54.2749 78.7966 53.1151V49.9764Z" fill="black"/>
<path opacity="0.2" d="M119.599 57.9438C118.933 57.9439 118.274 57.8128 117.658 57.558C117.043 57.3032 116.484 56.9298 116.014 56.459C115.543 55.9882 115.169 55.4292 114.914 54.814C114.66 54.1989 114.529 53.5395 114.529 52.8737L113.908 40.5607V43.6993L114.529 56.0123C114.529 57.357 115.063 58.6466 116.014 59.5974C116.965 60.5483 118.254 61.0824 119.599 61.0824C120.943 61.0824 122.233 60.5483 123.184 59.5974C124.135 58.6466 124.669 57.357 124.669 56.0123L124.91 43.6993V40.5607L124.669 52.8737C124.669 53.5396 124.538 54.1989 124.283 54.814C124.028 55.4292 123.655 55.9882 123.184 56.459C122.713 56.9298 122.154 57.3033 121.539 57.558C120.924 57.8128 120.265 57.9439 119.599 57.9438Z" fill="black"/>
<path opacity="0.2" d="M153.399 60.3581C152.716 60.3583 152.04 60.22 151.411 59.9516C150.783 59.6831 150.216 59.29 149.744 58.796V60.375C149.744 61.9713 149.11 63.5022 147.981 64.631C146.852 65.7598 145.321 66.3939 143.725 66.3939C142.129 66.3939 140.598 65.7598 139.469 64.631C138.34 63.5022 137.706 61.9713 137.706 60.375V59.0592C136.978 59.7141 136.076 60.1438 135.108 60.2963C134.141 60.4488 133.15 60.3176 132.256 59.9185C131.362 59.5194 130.602 58.8696 130.07 58.0477C129.537 57.2259 129.255 56.2673 129.256 55.288L129.014 40.5607V43.6993L129.256 58.4267C129.255 59.4059 129.537 60.3645 130.07 61.1864C130.602 62.0082 131.362 62.658 132.256 63.0571C133.15 63.4562 134.141 63.5875 135.108 63.435C136.076 63.2824 136.978 62.8527 137.706 62.1978V63.5136C137.706 65.11 138.34 66.6409 139.469 67.7697C140.598 68.8984 142.129 69.5326 143.725 69.5326C145.321 69.5326 146.852 68.8984 147.981 67.7697C149.11 66.6409 149.744 65.11 149.744 63.5136V61.9347C150.444 62.6653 151.346 63.1697 152.335 63.3829C153.324 63.5962 154.354 63.5084 155.293 63.1311C156.231 62.7537 157.035 62.1039 157.602 61.2655C158.168 60.427 158.47 59.4383 158.469 58.4267V55.288C158.469 55.9539 158.338 56.6132 158.083 57.2284C157.829 57.8435 157.455 58.4025 156.984 58.8733C156.514 59.3441 155.955 59.7176 155.339 59.9723C154.724 60.2271 154.065 60.3582 153.399 60.3581Z" fill="black"/>
<path opacity="0.2" d="M101.733 57.9438C100.965 57.9438 100.207 57.7691 99.517 57.4328C98.8268 57.0964 98.2222 56.6074 97.7491 56.0027C96.9473 57.0278 95.7811 57.7042 94.4932 57.8913C93.2052 58.0784 91.8948 57.7616 90.8345 57.007V60.1457C91.8948 60.9003 93.2053 61.217 94.4932 61.0299C95.7811 60.8428 96.9473 60.1664 97.7491 59.1413C98.3995 59.9712 99.2927 60.5776 100.304 60.8757C101.316 61.1738 102.395 61.149 103.391 60.8045C104.388 60.4601 105.252 59.8133 105.864 58.9543C106.475 58.0952 106.804 57.0668 106.803 56.0123L107.182 43.6993V40.5607L106.803 52.8737C106.803 53.5396 106.672 54.1989 106.417 54.8141C106.162 55.4292 105.789 55.9882 105.318 56.459C104.847 56.9298 104.288 57.3033 103.673 57.558C103.058 57.8128 102.399 57.9439 101.733 57.9438Z" fill="black"/>
<path opacity="0.2" d="M113.908 34.2665C113.908 33.3745 113.554 32.5191 112.923 31.8884C112.292 31.2576 111.437 30.9033 110.545 30.9033C109.653 30.9033 108.798 31.2576 108.167 31.8884C107.536 32.5191 107.182 33.3745 107.182 34.2665V37.4051C107.182 36.5131 107.536 35.6577 108.167 35.027C108.798 34.3963 109.653 34.042 110.545 34.042C111.437 34.042 112.292 34.3963 112.923 35.027C113.554 35.6577 113.908 36.5131 113.908 37.4051V34.2665Z" fill="black"/>
<path d="M57.6713 34.887H56.4641V41.4056H57.6713V34.887Z" fill="#3F3D56"/>
<path d="M80.4867 31.3862H79.2795V37.9049H80.4867V31.3862Z" fill="#3F3D56"/>
<path d="M51.5148 56.978H50.3076V63.4967H51.5148V56.978Z" fill="#3F3D56"/>
<path d="M100.823 45.5875L99.8306 44.9006L96.1216 50.2613L97.1143 50.9481L100.823 45.5875Z" fill="#3F3D56"/>
<path d="M36.8994 35.2884L36.1504 36.2351L41.2624 40.2799L42.0115 39.3332L36.8994 35.2884Z" fill="#3F3D56"/>
<path d="M107.881 10.9038L107.132 11.8505L112.244 15.8952L112.993 14.9486L107.881 10.9038Z" fill="#3F3D56"/>
<path d="M23.6206 42.0486L22.8716 42.9952L27.9836 47.04L28.7327 46.0933L23.6206 42.0486Z" fill="#3F3D56"/>
<path d="M62.1378 19.556H60.9307V26.0747H62.1378V19.556Z" fill="white"/>
<path d="M29.0617 53.1151H27.8545V59.6338H29.0617V53.1151Z" fill="white"/>
<path d="M85.5568 10.1401H84.3496V16.6588H85.5568V10.1401Z" fill="white"/>
<path d="M92.2657 32.9687L91.1868 32.4274L88.2635 38.2538L89.3425 38.7952L92.2657 32.9687Z" fill="white"/>
<path d="M86.7128 57.1119L85.6338 56.5706L82.7105 62.397L83.7895 62.9384L86.7128 57.1119Z" fill="white"/>
<path d="M70.1187 43.8618L69.3179 44.7651L74.1956 49.0896L74.9964 48.1863L70.1187 43.8618Z" fill="white"/>
<path d="M46.2168 15.6143L45.416 16.5176L50.2937 20.842L51.0946 19.9387L46.2168 15.6143Z" fill="white"/>
<path d="M125.648 26.4787L124.847 27.382L129.725 31.7064L130.526 30.8031L125.648 26.4787Z" fill="white"/>
<path d="M96.4349 5.23271L95.634 6.13599L100.512 10.4604L101.313 9.55715L96.4349 5.23271Z" fill="white"/>
<path d="M71.3121 31.3862H70.105V37.9049H71.3121V31.3862Z" fill="#FF6584"/>
<path d="M139.415 35.5028L138.303 35.031L135.756 41.0313L136.867 41.5031L139.415 35.5028Z" fill="#FF6584"/>
<path d="M47.1485 41.9026L46.103 42.5062L49.3624 48.1516L50.4078 47.548L47.1485 41.9026Z" fill="#FF6584"/>
<path d="M116.198 37.3155L115.153 37.9191L118.412 43.5644L119.458 42.9608L116.198 37.3155Z" fill="#FF6584"/>
<path d="M73.2239 13.4141L72.1785 14.0177L75.4378 19.6631L76.4832 19.0595L73.2239 13.4141Z" fill="#FF6584"/>
<path d="M124.407 12.2065L123.361 12.8101L126.621 18.4554L127.666 17.8518L124.407 12.2065Z" fill="#FF6584"/>
<path d="M58.013 6.89496L56.9675 7.49854L60.2269 13.1439L61.2723 12.5403L58.013 6.89496Z" fill="#FF6584"/>
<path d="M101.491 18.3489H100.284V24.8676H101.491V18.3489Z" fill="#FF6584"/>
<path d="M31.9586 29.2134H30.7515V35.7321H31.9586V29.2134Z" fill="#FF6584"/>
<path opacity="0.2" d="M110.025 219.336C105.464 214.774 102.857 208.616 102.756 202.166C102.656 195.715 105.07 189.479 109.487 184.778C109.291 184.962 109.097 185.149 108.906 185.34C106.599 187.646 104.768 190.383 103.519 193.396C102.27 196.409 101.627 199.638 101.626 202.9C101.625 206.161 102.267 209.391 103.515 212.405C104.763 215.418 106.592 218.156 108.898 220.462C111.205 222.769 113.943 224.598 116.956 225.846C119.97 227.094 123.199 227.736 126.461 227.735C129.723 227.734 132.952 227.091 135.965 225.842C138.978 224.593 141.715 222.762 144.021 220.455C144.212 220.264 144.4 220.07 144.584 219.873C139.882 224.291 133.646 226.705 127.196 226.605C120.745 226.504 114.587 223.897 110.025 219.336Z" fill="black"/>
<path opacity="0.2" d="M136.279 193.182C134.348 191.249 131.886 189.932 129.206 189.398C126.526 188.864 123.747 189.137 121.222 190.183C118.697 191.228 116.539 192.999 115.021 195.271C113.502 197.543 112.692 200.215 112.692 202.948C112.692 205.68 113.502 208.352 115.021 210.624C116.539 212.896 118.697 214.667 121.222 215.712C123.747 216.758 126.526 217.031 129.206 216.497C131.886 215.963 134.348 214.646 136.279 212.713C138.864 210.12 140.315 206.609 140.315 202.948C140.315 199.286 138.864 195.775 136.279 193.182ZM133.793 209.758C131.862 211.687 129.244 212.771 126.514 212.771C123.784 212.771 121.165 211.687 119.235 209.758C118.981 209.504 118.747 209.237 118.521 208.965C117.268 207.419 116.489 205.543 116.279 203.564C116.07 201.585 116.439 199.588 117.341 197.814C118.243 196.041 119.64 194.566 121.363 193.57C123.086 192.574 125.061 192.099 127.048 192.202C129.035 192.306 130.95 192.983 132.561 194.152C134.171 195.321 135.408 196.932 136.122 198.789C136.835 200.647 136.995 202.672 136.582 204.618C136.169 206.565 135.2 208.35 133.793 209.758Z" fill="black"/>
<path d="M150.749 209.758L147.828 212.678C147.615 212.892 147.343 213.037 147.047 213.094C146.751 213.151 146.444 213.119 146.167 213C145.889 212.882 145.654 212.684 145.49 212.43C145.327 212.177 145.243 211.88 145.249 211.579L144.916 211.911C144.58 212.248 144.124 212.437 143.648 212.437C143.172 212.437 142.715 212.248 142.379 211.911C142.043 211.575 141.853 211.119 141.853 210.643C141.853 210.167 142.043 209.711 142.379 209.374L142.656 209.097C142.365 209.081 142.084 208.982 141.848 208.81C141.612 208.638 141.431 208.402 141.326 208.129C141.222 207.856 141.199 207.559 141.26 207.274C141.321 206.988 141.463 206.727 141.67 206.521L144.724 203.365L145.44 202.649C145.554 202.535 145.619 202.379 145.619 202.217C145.619 202.054 145.554 201.899 145.44 201.784C145.325 201.669 145.169 201.605 145.007 201.605C144.845 201.605 144.689 201.669 144.574 201.784L143.858 202.5L141.212 205.045C140.929 205.328 140.544 205.487 140.143 205.487C139.742 205.487 139.358 205.328 139.075 205.045C138.791 204.761 138.632 204.377 138.632 203.976C138.632 203.575 138.791 203.191 139.075 202.907L141.539 200.181L142.866 198.854C143.053 198.666 143.157 198.412 143.157 198.146C143.156 197.881 143.05 197.627 142.863 197.44C142.675 197.252 142.421 197.147 142.156 197.146C141.891 197.145 141.637 197.25 141.448 197.437L140.121 198.763L137.446 201.279C136.246 200.567 134.965 200.003 133.629 199.599C133.408 199.378 133.261 199.093 133.209 198.784L132.499 199.494C132.163 199.831 131.706 200.02 131.23 200.02C130.754 200.02 130.298 199.831 129.962 199.494C129.625 199.158 129.436 198.701 129.436 198.225C129.436 197.75 129.625 197.293 129.962 196.957L132.153 194.765C131.909 195.009 131.588 195.163 131.244 195.199C130.901 195.236 130.555 195.153 130.264 194.966C129.974 194.778 129.757 194.496 129.649 194.167C129.541 193.839 129.55 193.483 129.673 193.16L127.919 194.914C127.582 195.25 127.126 195.439 126.65 195.439C126.174 195.439 125.718 195.25 125.381 194.914C125.045 194.577 124.856 194.121 124.856 193.645C124.856 193.169 125.045 192.713 125.381 192.376L129.558 188.2L129.551 188.193L125.374 192.369C125.038 192.706 124.581 192.895 124.106 192.895C123.63 192.895 123.173 192.706 122.837 192.369C122.5 192.033 122.311 191.576 122.311 191.101C122.311 190.625 122.5 190.168 122.837 189.832L124.576 188.093C124.253 188.21 123.899 188.214 123.574 188.103C123.248 187.992 122.97 187.774 122.786 187.484C122.601 187.194 122.521 186.849 122.559 186.508C122.597 186.166 122.75 185.847 122.993 185.604L124.978 183.62L124.869 183.511L121.303 187.077C120.966 187.413 120.51 187.602 120.034 187.602C119.558 187.602 119.102 187.413 118.766 187.077C118.429 186.74 118.24 186.284 118.24 185.808C118.24 185.332 118.429 184.876 118.766 184.539L120.347 182.958C120.063 183.242 119.679 183.401 119.278 183.401C118.877 183.401 118.493 183.242 118.209 182.958C117.926 182.675 117.767 182.29 117.767 181.889C117.767 181.489 117.926 181.104 118.209 180.821L120.562 178.468C124.849 177.316 129.365 177.334 133.643 178.52C137.92 179.705 141.802 182.016 144.883 185.21C147.965 188.405 150.135 192.366 151.166 196.684C152.198 201.001 152.053 205.515 150.749 209.758Z" fill="#E6E6E6"/>
<path opacity="0.2" d="M123.447 191.759C123.281 191.592 123.149 191.394 123.058 191.177C122.968 190.959 122.922 190.726 122.922 190.49C122.922 190.254 122.968 190.021 123.058 189.803C123.149 189.586 123.281 189.388 123.447 189.221L122.786 189.883C122.449 190.219 122.26 190.676 122.26 191.152C122.26 191.627 122.449 192.084 122.786 192.42C123.122 192.757 123.579 192.946 124.054 192.946C124.53 192.946 124.987 192.757 125.323 192.42L125.985 191.759C125.818 191.925 125.62 192.058 125.403 192.148C125.185 192.238 124.952 192.284 124.716 192.284C124.48 192.284 124.247 192.238 124.029 192.148C123.812 192.058 123.614 191.925 123.447 191.759Z" fill="black"/>
<path opacity="0.2" d="M125.992 194.303C125.825 194.137 125.693 193.939 125.603 193.721C125.513 193.504 125.466 193.27 125.466 193.035C125.466 192.799 125.513 192.566 125.603 192.348C125.693 192.13 125.825 191.932 125.992 191.766L125.33 192.427C125.164 192.594 125.032 192.792 124.942 193.01C124.851 193.227 124.805 193.461 124.805 193.696C124.805 193.932 124.851 194.165 124.942 194.383C125.032 194.6 125.164 194.798 125.33 194.965C125.497 195.131 125.695 195.264 125.913 195.354C126.13 195.444 126.364 195.49 126.599 195.49C126.835 195.49 127.068 195.444 127.286 195.354C127.503 195.264 127.701 195.131 127.868 194.965L128.529 194.303C128.363 194.47 128.165 194.602 127.947 194.692C127.73 194.782 127.496 194.829 127.261 194.829C127.025 194.829 126.792 194.782 126.574 194.692C126.356 194.602 126.159 194.47 125.992 194.303Z" fill="black"/>
<path opacity="0.2" d="M125.186 187.482C124.863 187.6 124.51 187.603 124.184 187.492C123.859 187.382 123.581 187.163 123.397 186.873C123.212 186.583 123.132 186.239 123.17 185.897C123.207 185.555 123.36 185.237 123.604 184.994L122.942 185.655C122.699 185.898 122.546 186.217 122.508 186.559C122.47 186.9 122.55 187.245 122.735 187.535C122.919 187.825 123.197 188.043 123.523 188.154C123.848 188.265 124.202 188.261 124.525 188.144L125.186 187.482Z" fill="black"/>
<path opacity="0.2" d="M130.162 187.582L129.5 188.244L129.507 188.251L130.169 187.589L130.162 187.582Z" fill="black"/>
<path opacity="0.2" d="M120.957 182.347C120.817 182.488 120.65 182.599 120.467 182.675C120.284 182.751 120.087 182.79 119.889 182.79C119.69 182.79 119.494 182.751 119.31 182.675C119.127 182.599 118.96 182.488 118.82 182.347C118.679 182.207 118.568 182.04 118.492 181.857C118.416 181.674 118.377 181.477 118.377 181.279C118.377 181.08 118.416 180.884 118.492 180.7C118.568 180.517 118.679 180.35 118.82 180.21L118.158 180.872C117.875 181.155 117.716 181.539 117.716 181.94C117.716 182.341 117.875 182.726 118.158 183.009C118.442 183.292 118.826 183.452 119.227 183.452C119.628 183.452 120.012 183.292 120.296 183.009L120.957 182.347Z" fill="black"/>
<path opacity="0.2" d="M125.479 182.9L124.818 183.562L124.927 183.671L125.588 183.009L125.479 182.9Z" fill="black"/>
<path opacity="0.2" d="M119.376 186.466C119.209 186.299 119.077 186.102 118.987 185.884C118.897 185.666 118.85 185.433 118.85 185.197C118.85 184.962 118.897 184.728 118.987 184.511C119.077 184.293 119.209 184.095 119.376 183.929L118.714 184.59C118.548 184.757 118.416 184.955 118.326 185.172C118.235 185.39 118.189 185.623 118.189 185.859C118.189 186.095 118.235 186.328 118.326 186.546C118.416 186.763 118.548 186.961 118.714 187.128C118.881 187.294 119.079 187.426 119.297 187.517C119.514 187.607 119.748 187.653 119.983 187.653C120.219 187.653 120.452 187.607 120.67 187.517C120.887 187.426 121.085 187.294 121.252 187.128L121.913 186.466C121.747 186.633 121.549 186.765 121.331 186.855C121.114 186.945 120.88 186.992 120.645 186.992C120.409 186.992 120.176 186.945 119.958 186.855C119.74 186.765 119.543 186.633 119.376 186.466Z" fill="black"/>
<path opacity="0.2" d="M130.572 198.883C130.405 198.717 130.273 198.519 130.183 198.301C130.093 198.084 130.047 197.85 130.047 197.615C130.047 197.379 130.093 197.146 130.183 196.928C130.273 196.71 130.405 196.513 130.572 196.346L129.911 197.008C129.744 197.174 129.612 197.372 129.522 197.59C129.431 197.807 129.385 198.041 129.385 198.276C129.385 198.512 129.431 198.745 129.522 198.963C129.612 199.181 129.744 199.378 129.911 199.545C130.077 199.712 130.275 199.844 130.493 199.934C130.71 200.024 130.944 200.07 131.179 200.07C131.415 200.07 131.648 200.024 131.866 199.934C132.084 199.844 132.281 199.712 132.448 199.545L133.11 198.883C132.943 199.05 132.745 199.182 132.527 199.272C132.31 199.363 132.076 199.409 131.841 199.409C131.605 199.409 131.372 199.363 131.154 199.272C130.936 199.182 130.739 199.05 130.572 198.883Z" fill="black"/>
<path opacity="0.2" d="M146.05 202.039C146.165 201.924 146.229 201.768 146.229 201.606C146.229 201.444 146.165 201.288 146.05 201.174C145.935 201.059 145.78 200.994 145.618 200.994C145.455 200.994 145.3 201.059 145.185 201.174L144.523 201.835C144.638 201.72 144.794 201.656 144.956 201.656C145.118 201.656 145.274 201.72 145.389 201.835C145.503 201.95 145.568 202.105 145.568 202.268C145.568 202.43 145.503 202.586 145.389 202.7L146.05 202.039Z" fill="black"/>
<path opacity="0.2" d="M132.764 194.154C132.52 194.399 132.199 194.552 131.855 194.589C131.511 194.625 131.165 194.543 130.875 194.355C130.585 194.167 130.367 193.885 130.26 193.557C130.152 193.228 130.16 192.873 130.283 192.55L129.622 193.211C129.499 193.534 129.49 193.89 129.598 194.218C129.706 194.547 129.923 194.829 130.213 195.016C130.504 195.204 130.85 195.287 131.193 195.25C131.537 195.214 131.858 195.06 132.102 194.816L132.764 194.154Z" fill="black"/>
<path opacity="0.2" d="M139.685 204.434C139.545 204.294 139.434 204.127 139.358 203.944C139.282 203.761 139.243 203.564 139.243 203.365C139.243 203.167 139.282 202.97 139.358 202.787C139.434 202.604 139.545 202.437 139.685 202.297L142.15 199.571L141.488 200.232L139.024 202.958C138.883 203.099 138.772 203.265 138.696 203.449C138.62 203.632 138.581 203.829 138.581 204.027C138.581 204.226 138.62 204.422 138.696 204.605C138.772 204.789 138.883 204.955 139.024 205.096C139.164 205.236 139.331 205.347 139.514 205.423C139.697 205.499 139.894 205.538 140.092 205.538C140.291 205.538 140.487 205.499 140.671 205.423C140.854 205.347 141.021 205.236 141.161 205.096L143.807 202.551L144.469 201.89L141.823 204.434C141.682 204.575 141.516 204.686 141.332 204.762C141.149 204.838 140.953 204.877 140.754 204.877C140.556 204.877 140.359 204.838 140.176 204.762C139.992 204.686 139.826 204.575 139.685 204.434Z" fill="black"/>
<path opacity="0.2" d="M146.301 212.068C146.157 211.924 146.044 211.752 145.968 211.563C145.892 211.374 145.855 211.172 145.86 210.968L145.527 211.301C145.361 211.468 145.163 211.6 144.945 211.69C144.727 211.78 144.494 211.826 144.258 211.826C144.023 211.826 143.79 211.78 143.572 211.69C143.354 211.6 143.156 211.468 142.99 211.301C142.823 211.134 142.691 210.937 142.601 210.719C142.511 210.501 142.464 210.268 142.464 210.032C142.464 209.797 142.511 209.563 142.601 209.346C142.691 209.128 142.823 208.93 142.99 208.763L143.267 208.486C142.976 208.471 142.695 208.371 142.459 208.199C142.223 208.028 142.042 207.791 141.937 207.518C141.833 207.246 141.81 206.949 141.871 206.663C141.932 206.378 142.074 206.116 142.281 205.91L145.334 202.755L144.673 203.416L141.619 206.572C141.413 206.778 141.27 207.039 141.209 207.325C141.148 207.61 141.171 207.907 141.276 208.18C141.38 208.453 141.561 208.689 141.797 208.861C142.033 209.033 142.314 209.132 142.605 209.148L142.328 209.425C141.992 209.762 141.803 210.218 141.803 210.694C141.803 211.17 141.992 211.626 142.328 211.962C142.665 212.299 143.121 212.488 143.597 212.488C144.073 212.488 144.529 212.299 144.866 211.962L145.198 211.63C145.192 211.931 145.276 212.228 145.439 212.481C145.603 212.735 145.838 212.933 146.116 213.051C146.393 213.17 146.7 213.202 146.996 213.145C147.292 213.088 147.564 212.943 147.777 212.729L148.439 212.068C148.298 212.208 148.132 212.32 147.948 212.396C147.765 212.471 147.568 212.511 147.37 212.511C147.171 212.511 146.975 212.471 146.792 212.396C146.608 212.32 146.442 212.208 146.301 212.068Z" fill="black"/>
<path opacity="0.2" d="M135.919 200.668C135.947 200.441 135.923 200.211 135.848 199.994C135.773 199.778 135.651 199.581 135.489 199.419C135.327 199.258 135.13 199.135 134.914 199.06C134.698 198.985 134.467 198.961 134.24 198.989C134.018 198.767 133.871 198.482 133.82 198.174L133.158 198.835C133.718 198.992 134.218 199.314 134.592 199.759C134.967 200.204 135.199 200.751 135.258 201.33C135.398 201.47 135.565 201.582 135.748 201.658C135.931 201.733 136.128 201.773 136.326 201.773C136.525 201.773 136.721 201.733 136.905 201.658C137.088 201.582 137.255 201.47 137.395 201.33L140.071 198.814L140.732 198.153L138.057 200.668C137.916 200.809 137.75 200.92 137.566 200.996C137.383 201.072 137.187 201.111 136.988 201.111C136.79 201.111 136.593 201.072 136.41 200.996C136.226 200.92 136.06 200.809 135.919 200.668Z" fill="black"/>
<path opacity="0.2" d="M143.477 198.244C143.57 198.151 143.645 198.04 143.696 197.918C143.747 197.797 143.773 197.666 143.773 197.534C143.773 197.402 143.748 197.271 143.697 197.149C143.647 197.027 143.573 196.916 143.479 196.823C143.386 196.73 143.275 196.656 143.153 196.605C143.031 196.555 142.901 196.529 142.769 196.529C142.637 196.53 142.506 196.556 142.384 196.607C142.262 196.658 142.152 196.732 142.059 196.826L141.397 197.488C141.49 197.394 141.601 197.319 141.723 197.269C141.844 197.218 141.975 197.191 142.107 197.191C142.239 197.191 142.37 197.217 142.492 197.267C142.614 197.317 142.725 197.391 142.818 197.485C142.911 197.578 142.985 197.689 143.036 197.811C143.086 197.933 143.112 198.064 143.112 198.196C143.111 198.328 143.085 198.458 143.034 198.58C142.983 198.702 142.909 198.812 142.815 198.905L143.477 198.244Z" fill="black"/>
<path d="M131.492 186.521L131.237 186.266L129.863 187.64L130.118 187.895L131.492 186.521Z" fill="#3F3D56"/>
<path d="M137.039 190.592L136.784 190.337L135.41 191.711L135.665 191.966L137.039 190.592Z" fill="#3F3D56"/>
<path d="M142.53 187.596L142.276 187.342L140.902 188.716L141.156 188.971L142.53 187.596Z" fill="#3F3D56"/>
<path d="M125.537 189.879L125.283 189.625L123.909 190.999L124.163 191.253L125.537 189.879Z" fill="#3F3D56"/>
<path d="M138.332 197.872L138.268 197.518L136.356 197.866L136.421 198.22L138.332 197.872Z" fill="#3F3D56"/>
<path d="M146.32 194.378L146.255 194.024L144.344 194.372L144.408 194.726L146.32 194.378Z" fill="#3F3D56"/>
<path d="M127.029 182.227L126.671 182.268L126.896 184.199L127.254 184.157L127.029 182.227Z" fill="#3F3D56"/>
<path d="M122.805 180.853L122.447 180.894L122.672 182.824L123.03 182.783L122.805 180.853Z" fill="#3F3D56"/>
<path d="M135.665 184.231L135.41 183.976L134.036 185.35L134.291 185.605L135.665 184.231Z" fill="white"/>
<path d="M146.148 191.22L145.894 190.965L144.52 192.339L144.774 192.594L146.148 191.22Z" fill="white"/>
<path d="M150.142 201.204L149.888 200.95L148.514 202.324L148.768 202.578L150.142 201.204Z" fill="white"/>
<path d="M121.619 184.332L121.365 184.078L119.99 185.452L120.245 185.706L121.619 184.332Z" fill="white"/>
<path d="M139.188 193.408L139.075 193.067L137.23 193.679L137.344 194.02L139.188 193.408Z" fill="white"/>
<path d="M132.929 197.327L132.815 196.985L130.971 197.597L131.084 197.939L132.929 197.327Z" fill="white"/>
<path d="M132.224 191.036L131.865 191.058L131.981 192.997L132.34 192.976L132.224 191.036Z" fill="white"/>
<path d="M133.14 180.044L132.781 180.065L132.897 182.005L133.256 181.983L133.14 180.044Z" fill="white"/>
<path d="M135.105 188.658L134.851 188.403L133.477 189.778L133.731 190.032L135.105 188.658Z" fill="#FF6584"/>
<path d="M147.086 205.632L146.832 205.377L145.458 206.751L145.712 207.006L147.086 205.632Z" fill="#FF6584"/>
<path d="M149.083 197.145L148.829 196.89L147.455 198.264L147.709 198.519L149.083 197.145Z" fill="#FF6584"/>
<path d="M127.795 185.781L127.447 185.688L126.944 187.565L127.292 187.658L127.795 185.781Z" fill="#FF6584"/>
<path d="M139.296 185.272L138.949 185.179L138.446 187.056L138.793 187.149L139.296 185.272Z" fill="#FF6584"/>
<path d="M137.464 180.692L137.116 180.599L136.614 182.476L136.961 182.569L137.464 180.692Z" fill="#FF6584"/>
<path d="M127.268 179.905L127.013 179.65L125.639 181.024L125.894 181.279L127.268 179.905Z" fill="#FF6584"/>
<path d="M387.09 103.305C387.09 102.245 386.669 101.23 385.92 100.481C385.171 99.7317 384.155 99.3109 383.096 99.3109C382.037 99.3109 381.021 99.7317 380.272 100.481C379.523 101.23 379.102 102.245 379.102 103.305V282.35C379.102 283.41 379.523 284.426 380.272 285.175C381.021 285.924 382.037 286.344 383.096 286.344C384.155 286.344 385.171 285.924 385.92 285.175C386.669 284.426 387.09 283.41 387.09 282.35V104.465" fill="#3F3D56"/>
<path d="M438.036 112.807C431.019 99.5745 419.314 89.4396 405.214 84.3884C391.115 79.3371 375.637 79.7337 361.814 85.5003C347.991 91.2669 336.82 101.988 330.491 115.562C324.161 129.136 323.129 144.585 327.597 158.88H335.051C336.548 158.88 337.776 160.548 337.776 162.589H339.144C340.647 162.589 341.875 164.257 341.875 166.299C341.875 168.336 340.647 170.008 339.144 170.008H337.776C337.773 170.318 337.741 170.627 337.682 170.932H343.922C345.424 170.932 346.653 172.604 346.653 174.641C346.653 176.683 345.424 178.35 343.922 178.35H337.961C347.292 190.046 360.651 197.838 375.425 200.204C390.198 202.57 405.323 199.337 417.839 191.14C430.355 182.943 439.362 170.37 443.097 155.882C446.833 141.394 445.028 126.034 438.036 112.807ZM397.169 162.599C393.435 164.708 389.217 165.813 384.928 165.805C384.07 165.804 383.211 165.761 382.357 165.675C376.453 165.058 370.963 162.35 366.879 158.041C362.796 153.731 360.388 148.104 360.089 142.175C359.791 136.245 361.622 130.405 365.252 125.707C368.882 121.009 374.072 117.764 379.885 116.557C385.698 115.35 391.75 116.261 396.951 119.126C402.151 121.99 406.155 126.619 408.242 132.177C410.328 137.735 410.359 143.856 408.329 149.435C406.298 155.014 402.34 159.683 397.169 162.599Z" fill="#009A77"/>
<path opacity="0.2" d="M346.489 173.393C346.597 172.986 346.652 172.567 346.653 172.145C346.653 170.106 345.424 168.437 343.922 168.437H341.368C341.177 168.877 340.868 169.257 340.476 169.533C340.084 169.81 339.623 169.974 339.144 170.006H337.779C337.776 170.317 337.743 170.628 337.681 170.933H343.922C345.101 170.933 346.109 171.964 346.489 173.393Z" fill="black"/>
<path opacity="0.2" d="M339.144 162.589C340.323 162.589 341.331 163.62 341.711 165.049C341.819 164.642 341.874 164.223 341.874 163.801C341.874 161.762 340.646 160.093 339.144 160.093H337.779C337.779 158.053 336.55 156.384 335.048 156.384H327.597C325.898 150.938 324.984 145.278 324.883 139.574C324.873 140.018 324.861 140.462 324.861 140.908C324.855 147.003 325.778 153.063 327.597 158.88H335.048C336.55 158.88 337.779 160.549 337.779 162.589H339.144Z" fill="black"/>
<path opacity="0.2" d="M384.93 198.482C376.453 198.491 368.071 196.701 360.337 193.231C352.603 189.76 345.694 184.688 340.065 178.35H337.959C345.723 188.091 356.323 195.177 368.292 198.627C380.261 202.078 393.007 201.722 404.765 197.609C416.522 193.496 426.711 185.83 433.919 175.671C441.128 165.513 445 153.364 445 140.908C445 140.532 444.989 140.159 444.983 139.786C444.624 155.475 438.14 170.401 426.917 181.37C415.694 192.34 400.624 198.481 384.93 198.482Z" fill="black"/>
<path opacity="0.2" d="M384.928 111.019C379.017 111.02 373.239 112.774 368.324 116.059C363.41 119.344 359.58 124.012 357.318 129.474C355.057 134.935 354.466 140.945 355.62 146.742C356.773 152.54 359.62 157.865 363.801 162.044C367.981 166.224 373.307 169.07 379.104 170.223C384.902 171.376 390.911 170.783 396.372 168.521C401.834 166.259 406.501 162.428 409.785 157.513C413.069 152.598 414.822 146.819 414.822 140.908C414.813 132.983 411.66 125.385 406.056 119.782C400.451 114.179 392.853 111.027 384.928 111.019ZM397.169 162.599C393.435 164.708 389.217 165.813 384.928 165.804C384.07 165.804 383.212 165.761 382.357 165.675C376.453 165.058 370.963 162.35 366.88 158.041C362.796 153.731 360.388 148.104 360.089 142.175C359.791 136.245 361.622 130.405 365.252 125.707C368.882 121.009 374.072 117.764 379.885 116.557C385.698 115.35 391.751 116.261 396.951 119.126C402.151 121.99 406.156 126.619 408.242 132.177C410.329 137.735 410.359 143.856 408.329 149.435C406.298 155.014 402.34 159.683 397.169 162.599Z" fill="black"/>
<path d="M438.035 111.809V121.802C438.036 122.531 437.818 123.244 437.41 123.849C437.001 124.454 436.421 124.922 435.744 125.194C435.067 125.467 434.325 125.53 433.611 125.376C432.898 125.222 432.247 124.859 431.743 124.332V125.47C431.743 126.622 431.285 127.726 430.471 128.54C429.657 129.354 428.553 129.811 427.402 129.811C426.251 129.811 425.147 129.354 424.333 128.54C423.519 127.726 423.061 126.622 423.061 125.47V124.521C422.536 124.994 421.886 125.304 421.188 125.414C420.49 125.524 419.776 125.429 419.131 125.141C418.486 124.853 417.938 124.385 417.554 123.792C417.17 123.199 416.966 122.508 416.967 121.802L416.793 111.181V108.731C416.793 108.338 416.637 107.962 416.36 107.684C416.082 107.407 415.706 107.251 415.313 107.251C414.921 107.251 414.544 107.407 414.267 107.684C413.989 107.962 413.833 108.338 413.833 108.731V111.181L413.659 120.061C413.659 121.03 413.274 121.96 412.588 122.646C411.903 123.332 410.972 123.717 410.003 123.717C409.033 123.717 408.103 123.332 407.417 122.646C406.732 121.96 406.346 121.03 406.346 120.061L405.899 111.181V106.642C405.899 105.998 405.643 105.381 405.188 104.927C404.734 104.472 404.117 104.216 403.473 104.216C402.83 104.216 402.213 104.472 401.758 104.927C401.304 105.381 401.048 105.998 401.048 106.642V111.181L400.775 120.061C400.775 120.821 400.539 121.563 400.098 122.182C399.657 122.802 399.033 123.268 398.314 123.517C397.596 123.765 396.817 123.783 396.088 123.568C395.359 123.353 394.714 122.916 394.245 122.317C393.667 123.056 392.826 123.544 391.897 123.679C390.968 123.814 390.023 123.586 389.259 123.041V125.47C389.259 126.622 388.801 127.726 387.987 128.54C387.173 129.354 386.069 129.811 384.918 129.811C383.767 129.811 382.663 129.354 381.849 128.54C381.035 127.726 380.577 126.622 380.577 125.47V117.971C380.578 118.808 380.291 119.619 379.765 120.27C379.24 120.92 378.507 121.371 377.689 121.546C376.871 121.722 376.018 121.611 375.271 121.234C374.525 120.856 373.931 120.233 373.588 119.47V125.47C373.587 126.621 373.129 127.724 372.315 128.537C371.501 129.35 370.398 129.806 369.248 129.806C368.097 129.806 366.994 129.35 366.18 128.537C365.366 127.724 364.908 126.621 364.907 125.47V111.181H364.883V125.47C364.883 126.622 364.425 127.726 363.611 128.54C362.797 129.354 361.693 129.811 360.542 129.811C359.391 129.811 358.287 129.354 357.473 128.54C356.659 127.726 356.201 126.622 356.201 125.47V119.521C355.849 120.274 355.25 120.885 354.504 121.252C353.758 121.619 352.909 121.721 352.097 121.54C351.285 121.36 350.56 120.908 350.039 120.259C349.519 119.61 349.236 118.803 349.237 117.971V111.181H348.864V123.381C348.864 124.532 348.407 125.636 347.593 126.45C346.779 127.264 345.675 127.722 344.523 127.722C343.372 127.722 342.268 127.264 341.454 126.45C340.64 125.636 340.183 124.532 340.183 123.381V117.971C340.183 118.941 339.797 119.871 339.112 120.557C338.426 121.242 337.496 121.628 336.526 121.628C335.557 121.628 334.627 121.242 333.941 120.557C333.255 119.871 332.87 118.941 332.87 117.971V109.922C338.232 100.619 345.99 92.9223 355.335 87.6336C364.681 82.3449 375.273 79.6571 386.009 79.8498C396.746 80.0425 407.234 83.1086 416.384 88.7292C425.534 94.3499 433.01 102.32 438.035 111.809Z" fill="#E6E6E6"/>
<path opacity="0.2" d="M360.542 127.722C359.972 127.722 359.408 127.609 358.881 127.391C358.354 127.173 357.876 126.853 357.473 126.45C357.07 126.047 356.75 125.569 356.532 125.042C356.314 124.515 356.201 123.951 356.201 123.381V125.644C356.201 126.796 356.659 127.9 357.473 128.714C358.287 129.528 359.391 129.985 360.542 129.985C361.693 129.985 362.797 129.528 363.611 128.714C364.425 127.9 364.883 126.796 364.883 125.644V123.381C364.883 123.951 364.771 124.515 364.552 125.042C364.334 125.569 364.015 126.047 363.612 126.45C363.208 126.853 362.73 127.173 362.203 127.391C361.677 127.609 361.112 127.722 360.542 127.722Z" fill="black"/>
<path opacity="0.2" d="M369.248 127.722C368.678 127.722 368.113 127.609 367.587 127.391C367.06 127.173 366.581 126.853 366.178 126.45C365.775 126.047 365.455 125.569 365.237 125.042C365.019 124.515 364.907 123.951 364.907 123.381V125.644C364.907 126.796 365.364 127.9 366.178 128.714C366.992 129.528 368.096 129.985 369.248 129.985C370.399 129.985 371.503 129.528 372.317 128.714C373.131 127.9 373.588 126.796 373.588 125.644V123.381C373.588 123.951 373.476 124.515 373.258 125.042C373.04 125.569 372.72 126.047 372.317 126.45C371.914 126.853 371.435 127.173 370.909 127.391C370.382 127.609 369.818 127.722 369.248 127.722Z" fill="black"/>
<path opacity="0.2" d="M356.201 117.431C355.849 118.185 355.251 118.796 354.504 119.163C353.758 119.53 352.909 119.632 352.097 119.451C351.286 119.27 350.56 118.818 350.04 118.169C349.52 117.52 349.236 116.713 349.237 115.882V118.145C349.236 118.977 349.52 119.784 350.04 120.433C350.56 121.082 351.286 121.534 352.097 121.714C352.909 121.895 353.758 121.793 354.504 121.426C355.251 121.059 355.849 120.448 356.201 119.695V117.431Z" fill="black"/>
<path opacity="0.2" d="M364.907 109.091H364.883V111.355H364.907V109.091Z" fill="black"/>
<path opacity="0.2" d="M340.183 115.882C340.183 116.852 339.797 117.782 339.112 118.467C338.426 119.153 337.496 119.538 336.526 119.538C335.557 119.538 334.627 119.153 333.941 118.467C333.255 117.782 332.87 116.852 332.87 115.882V118.145C332.87 119.115 333.255 120.045 333.941 120.731C334.627 121.417 335.557 121.802 336.526 121.802C337.496 121.802 338.426 121.417 339.112 120.731C339.797 120.045 340.183 119.115 340.183 118.145V115.882Z" fill="black"/>
<path opacity="0.2" d="M349.237 109.091H348.864V111.355H349.237V109.091Z" fill="black"/>
<path opacity="0.2" d="M344.524 125.632C343.954 125.632 343.389 125.52 342.862 125.302C342.336 125.084 341.857 124.764 341.454 124.361C341.051 123.958 340.731 123.479 340.513 122.953C340.295 122.426 340.183 121.862 340.183 121.292V123.555C340.183 124.706 340.64 125.81 341.454 126.624C342.268 127.438 343.372 127.896 344.524 127.896C345.675 127.896 346.779 127.438 347.593 126.624C348.407 125.81 348.864 124.706 348.864 123.555V121.292C348.864 121.862 348.752 122.426 348.534 122.953C348.316 123.479 347.996 123.958 347.593 124.361C347.19 124.764 346.711 125.084 346.185 125.302C345.658 125.52 345.094 125.632 344.524 125.632Z" fill="black"/>
<path opacity="0.2" d="M384.918 127.722C384.348 127.722 383.784 127.609 383.257 127.391C382.731 127.173 382.252 126.853 381.849 126.45C381.446 126.047 381.126 125.569 380.908 125.042C380.69 124.515 380.578 123.951 380.578 123.381V125.644C380.578 126.796 381.035 127.9 381.849 128.714C382.663 129.528 383.767 129.985 384.918 129.985C386.07 129.985 387.174 129.528 387.988 128.714C388.802 127.9 389.259 126.796 389.259 125.644V123.381C389.259 123.951 389.147 124.515 388.929 125.042C388.711 125.569 388.391 126.047 387.988 126.45C387.585 126.853 387.106 127.173 386.579 127.391C386.053 127.609 385.488 127.722 384.918 127.722Z" fill="black"/>
<path opacity="0.2" d="M416.793 106.641C416.793 106.249 416.638 105.873 416.36 105.595C416.082 105.317 415.706 105.161 415.313 105.161C414.921 105.161 414.545 105.317 414.267 105.595C413.989 105.873 413.833 106.249 413.833 106.641V108.905C413.833 108.512 413.989 108.136 414.267 107.858C414.545 107.581 414.921 107.425 415.313 107.425C415.706 107.425 416.082 107.581 416.36 107.858C416.638 108.136 416.793 108.512 416.793 108.905V106.641Z" fill="black"/>
<path opacity="0.2" d="M380.577 115.882C380.578 116.718 380.291 117.53 379.765 118.18C379.24 118.831 378.507 119.282 377.689 119.457C376.871 119.632 376.018 119.522 375.272 119.144C374.525 118.766 373.931 118.144 373.588 117.381V119.644C373.931 120.407 374.525 121.03 375.272 121.408C376.018 121.785 376.871 121.896 377.689 121.72C378.507 121.545 379.24 121.094 379.765 120.444C380.291 119.793 380.578 118.982 380.577 118.145V115.882Z" fill="black"/>
<path opacity="0.2" d="M410.003 121.628C409.523 121.628 409.047 121.533 408.604 121.349C408.16 121.166 407.757 120.896 407.417 120.557C407.078 120.217 406.808 119.814 406.625 119.37C406.441 118.927 406.346 118.451 406.346 117.971L405.899 109.091V111.355L406.346 120.235C406.346 121.204 406.732 122.134 407.417 122.82C408.103 123.506 409.033 123.891 410.003 123.891C410.973 123.891 411.903 123.506 412.588 122.82C413.274 122.134 413.659 121.204 413.659 120.235L413.833 111.355V109.091L413.659 117.971C413.659 118.451 413.565 118.927 413.381 119.37C413.197 119.814 412.928 120.217 412.588 120.557C412.249 120.896 411.846 121.166 411.402 121.349C410.958 121.533 410.483 121.628 410.003 121.628Z" fill="black"/>
<path opacity="0.2" d="M434.379 123.369C433.886 123.369 433.399 123.269 432.946 123.076C432.493 122.882 432.083 122.598 431.743 122.242V123.381C431.743 124.532 431.286 125.636 430.472 126.45C429.658 127.264 428.554 127.722 427.402 127.722C426.251 127.722 425.147 127.264 424.333 126.45C423.519 125.636 423.062 124.532 423.062 123.381V122.432C422.537 122.904 421.886 123.214 421.188 123.324C420.491 123.434 419.776 123.34 419.131 123.052C418.486 122.764 417.939 122.295 417.555 121.703C417.171 121.11 416.967 120.419 416.968 119.712L416.793 109.091V111.355L416.968 121.976C416.967 122.682 417.171 123.373 417.555 123.966C417.939 124.559 418.486 125.027 419.131 125.315C419.776 125.603 420.491 125.698 421.188 125.588C421.886 125.478 422.537 125.168 423.062 124.695V125.644C423.062 126.796 423.519 127.9 424.333 128.714C425.147 129.528 426.251 129.985 427.402 129.985C428.554 129.985 429.658 129.528 430.472 128.714C431.286 127.9 431.743 126.796 431.743 125.644V124.506C432.248 125.033 432.898 125.396 433.612 125.55C434.325 125.704 435.068 125.641 435.745 125.369C436.422 125.096 437.002 124.628 437.41 124.023C437.818 123.418 438.036 122.705 438.035 121.976V119.712C438.036 120.193 437.941 120.668 437.757 121.112C437.574 121.555 437.304 121.958 436.965 122.298C436.625 122.637 436.222 122.907 435.778 123.091C435.335 123.274 434.859 123.369 434.379 123.369Z" fill="black"/>
<path opacity="0.2" d="M397.118 121.628C396.565 121.628 396.018 121.502 395.52 121.259C395.023 121.016 394.587 120.664 394.245 120.228C393.667 120.967 392.826 121.455 391.897 121.59C390.969 121.725 390.023 121.496 389.259 120.952V123.215C390.023 123.76 390.969 123.988 391.897 123.853C392.826 123.718 393.667 123.23 394.245 122.491C394.715 123.09 395.359 123.527 396.088 123.742C396.817 123.957 397.596 123.939 398.315 123.691C399.033 123.442 399.657 122.976 400.098 122.356C400.539 121.737 400.775 120.995 400.775 120.235L401.048 111.355V109.091L400.775 117.971C400.775 118.451 400.68 118.927 400.497 119.37C400.313 119.814 400.043 120.217 399.704 120.557C399.364 120.896 398.961 121.166 398.518 121.349C398.074 121.533 397.599 121.628 397.118 121.628Z" fill="black"/>
<path opacity="0.2" d="M405.899 104.552C405.899 103.909 405.643 103.292 405.189 102.837C404.734 102.382 404.117 102.127 403.474 102.127C402.83 102.127 402.213 102.382 401.758 102.837C401.304 103.292 401.048 103.909 401.048 104.552V106.816C401.048 106.172 401.304 105.555 401.758 105.101C402.213 104.646 402.83 104.39 403.474 104.39C404.117 104.39 404.734 104.646 405.189 105.101C405.643 105.555 405.899 106.172 405.899 106.816V104.552Z" fill="black"/>
<path d="M365.343 105H364.472V109.701H365.343V105Z" fill="#3F3D56"/>
<path d="M381.796 102.475H380.926V107.176H381.796V102.475Z" fill="#3F3D56"/>
<path d="M427.763 105.261H426.892V109.962H427.763V105.261Z" fill="#3F3D56"/>
<path d="M360.902 120.931H360.032V125.632H360.902V120.931Z" fill="#3F3D56"/>
<path d="M396.463 112.717L395.747 112.221L393.072 116.087L393.788 116.582L396.463 112.717Z" fill="#3F3D56"/>
<path d="M350.362 105.289L349.822 105.972L353.509 108.889L354.049 108.206L350.362 105.289Z" fill="#3F3D56"/>
<path d="M401.552 87.7035L401.012 88.3862L404.699 91.3032L405.239 90.6205L401.552 87.7035Z" fill="#3F3D56"/>
<path d="M340.785 110.166L340.245 110.849L343.932 113.766L344.472 113.083L340.785 110.166Z" fill="#3F3D56"/>
<path d="M368.563 93.9434H367.693V98.6445H368.563V93.9434Z" fill="white"/>
<path d="M344.71 118.145H343.839V122.846H344.71V118.145Z" fill="white"/>
<path d="M385.453 87.1528H384.582V91.8539H385.453V87.1528Z" fill="white"/>
<path d="M427.24 116.578H426.37V121.279H427.24V116.578Z" fill="white"/>
<path d="M390.291 103.616L389.513 103.226L387.405 107.428L388.183 107.818L390.291 103.616Z" fill="white"/>
<path d="M386.286 121.028L385.508 120.637L383.4 124.839L384.178 125.23L386.286 121.028Z" fill="white"/>
<path d="M434.342 113.193L433.564 112.802L431.456 117.004L432.234 117.394L434.342 113.193Z" fill="white"/>
<path d="M374.319 111.472L373.742 112.124L377.259 115.242L377.837 114.591L374.319 111.472Z" fill="white"/>
<path d="M357.082 91.1005L356.504 91.752L360.022 94.8706L360.6 94.2192L357.082 91.1005Z" fill="white"/>
<path d="M414.366 98.9358L413.788 99.5873L417.306 102.706L417.883 102.055L414.366 98.9358Z" fill="white"/>
<path d="M393.298 83.6137L392.72 84.2651L396.238 87.3838L396.815 86.7324L393.298 83.6137Z" fill="white"/>
<path d="M375.18 102.475H374.31V107.176H375.18V102.475Z" fill="#FF6584"/>
<path d="M424.294 105.444L423.492 105.104L421.655 109.431L422.457 109.771L424.294 105.444Z" fill="#FF6584"/>
<path d="M357.754 110.059L357 110.494L359.35 114.566L360.104 114.13L357.754 110.059Z" fill="#FF6584"/>
<path d="M407.551 106.751L406.797 107.186L409.147 111.258L409.901 110.822L407.551 106.751Z" fill="#FF6584"/>
<path d="M376.558 89.5136L375.804 89.9489L378.155 94.0201L378.909 93.5848L376.558 89.5136Z" fill="#FF6584"/>
<path d="M413.471 88.6431L412.717 89.0784L415.067 93.1497L415.821 92.7144L413.471 88.6431Z" fill="#FF6584"/>
<path d="M365.589 84.8125L364.835 85.2478L367.186 89.3191L367.939 88.8838L365.589 84.8125Z" fill="#FF6584"/>
<path d="M396.944 93.0728H396.074V97.7739H396.944V93.0728Z" fill="#FF6584"/>
<path d="M346.799 100.908H345.929V105.609H346.799V100.908Z" fill="#FF6584"/>
<path d="M176.854 272.672C188.438 272.672 197.828 263.282 197.828 251.698C197.828 240.115 188.438 230.725 176.854 230.725C165.271 230.725 155.881 240.115 155.881 251.698C155.881 263.282 165.271 272.672 176.854 272.672Z" fill="#2F2E41"/>
<path d="M184.955 278.561L191.225 277.426L189.192 266.193L182.922 267.328L184.955 278.561Z" fill="#2F2E41"/>
<path d="M172.415 280.831L178.685 279.696L176.652 268.463L170.382 269.598L172.415 280.831Z" fill="#2F2E41"/>
<path d="M175.744 283.195C177.982 281.3 179.22 279.083 178.509 278.244C177.798 277.405 175.408 278.261 173.17 280.156C170.933 282.052 169.695 284.268 170.405 285.107C171.116 285.947 173.506 285.09 175.744 283.195Z" fill="#2F2E41"/>
<path d="M188.022 280.972C190.26 279.077 191.498 276.861 190.787 276.021C190.077 275.182 187.686 276.038 185.449 277.934C183.211 279.829 181.973 282.045 182.684 282.885C183.394 283.724 185.785 282.868 188.022 280.972Z" fill="#2F2E41"/>
<path d="M175.386 253.736C179.345 253.736 182.554 250.527 182.554 246.568C182.554 242.609 179.345 239.4 175.386 239.4C171.427 239.4 168.218 242.609 168.218 246.568C168.218 250.527 171.427 253.736 175.386 253.736Z" fill="white"/>
<path d="M172.44 246.388C173.76 246.388 174.83 245.318 174.83 243.999C174.83 242.679 173.76 241.609 172.44 241.609C171.121 241.609 170.051 242.679 170.051 243.999C170.051 245.318 171.121 246.388 172.44 246.388Z" fill="#3F3D56"/>
<path d="M193.4 228.881C193.715 221.116 187.023 214.54 178.452 214.192C169.882 213.843 162.678 219.856 162.363 227.62C162.048 235.385 168.005 237.149 176.576 237.498C185.146 237.846 193.084 236.646 193.4 228.881Z" fill="#CFCCE0"/>
<path d="M167.71 250.22C168.116 248.448 163.869 245.962 158.224 244.668C152.578 243.374 147.673 243.762 147.267 245.534C146.86 247.306 151.107 249.792 156.753 251.086C162.398 252.38 167.304 251.992 167.71 250.22Z" fill="#2F2E41"/>
<path d="M208.88 257.067C209.287 255.295 205.04 252.809 199.394 251.515C193.749 250.221 188.843 250.609 188.437 252.381C188.031 254.153 192.278 256.639 197.923 257.933C203.568 259.227 208.474 258.839 208.88 257.067Z" fill="#2F2E41"/>
<path d="M182.615 259.964C182.727 260.581 182.717 261.215 182.584 261.829C182.451 262.442 182.199 263.024 181.841 263.54C181.483 264.056 181.028 264.496 180.5 264.836C179.972 265.176 179.382 265.408 178.764 265.52C178.147 265.632 177.513 265.621 176.899 265.488C176.286 265.355 175.705 265.102 175.189 264.744C174.673 264.386 174.233 263.93 173.893 263.402C173.554 262.874 173.322 262.284 173.21 261.666C172.74 259.069 174.748 258.15 177.345 257.68C179.942 257.21 182.145 257.367 182.615 259.964Z" fill="white"/>
<path d="M296.066 178.935C298.186 173.389 298.493 168.354 296.752 167.688C295.011 167.023 291.881 170.979 289.762 176.525C287.642 182.071 287.335 187.106 289.076 187.772C290.817 188.437 293.947 184.481 296.066 178.935Z" fill="#2F2E41"/>
<path d="M280.389 277.246C292.264 277.246 301.89 267.619 301.89 255.745C301.89 243.871 292.264 234.245 280.389 234.245C268.515 234.245 258.889 243.871 258.889 255.745C258.889 267.619 268.515 277.246 280.389 277.246Z" fill="#2F2E41"/>
<path d="M277.124 272.619H270.592V284.321H277.124V272.619Z" fill="#2F2E41"/>
<path d="M290.187 272.619H283.656V284.321H290.187V272.619Z" fill="#2F2E41"/>
<path d="M276.035 286.499C279.041 286.499 281.478 285.585 281.478 284.458C281.478 283.33 279.041 282.416 276.035 282.416C273.029 282.416 270.592 283.33 270.592 284.458C270.592 285.585 273.029 286.499 276.035 286.499Z" fill="#2F2E41"/>
<path d="M289.099 286.226C292.105 286.226 294.542 285.313 294.542 284.185C294.542 283.058 292.105 282.144 289.099 282.144C286.092 282.144 283.656 283.058 283.656 284.185C283.656 285.313 286.092 286.226 289.099 286.226Z" fill="#2F2E41"/>
<path d="M280.934 257.65C284.992 257.65 288.282 254.36 288.282 250.302C288.282 246.244 284.992 242.954 280.934 242.954C276.876 242.954 273.586 246.244 273.586 250.302C273.586 254.36 276.876 257.65 280.934 257.65Z" fill="white"/>
<path d="M280.934 252.751C282.287 252.751 283.383 251.655 283.383 250.302C283.383 248.949 282.287 247.853 280.934 247.853C279.581 247.853 278.484 248.949 278.484 250.302C278.484 251.655 279.581 252.751 280.934 252.751Z" fill="#3F3D56"/>
<path d="M259.534 235.75C257.798 227.976 263.347 220.119 271.929 218.203C280.51 216.287 288.875 221.036 290.611 228.811C292.347 236.586 286.659 239.454 278.078 241.37C269.496 243.286 261.27 243.525 259.534 235.75Z" fill="#CFCCE0"/>
<path d="M273.041 215.466C284.916 215.466 294.542 205.84 294.542 193.966C294.542 182.091 284.916 172.465 273.041 172.465C261.167 172.465 251.541 182.091 251.541 193.966C251.541 205.84 261.167 215.466 273.041 215.466Z" fill="#2F2E41"/>
<path d="M269.776 210.839H263.244V222.542H269.776V210.839Z" fill="#2F2E41"/>
<path d="M282.839 210.839H276.307V222.542H282.839V210.839Z" fill="#2F2E41"/>
<path d="M268.687 224.719C271.693 224.719 274.13 223.806 274.13 222.678C274.13 221.551 271.693 220.637 268.687 220.637C265.681 220.637 263.244 221.551 263.244 222.678C263.244 223.806 265.681 224.719 268.687 224.719Z" fill="#2F2E41"/>
<path d="M281.75 224.447C284.757 224.447 287.194 223.533 287.194 222.406C287.194 221.279 284.757 220.365 281.75 220.365C278.744 220.365 276.307 221.279 276.307 222.406C276.307 223.533 278.744 224.447 281.75 224.447Z" fill="#2F2E41"/>
<path d="M273.586 195.871C277.644 195.871 280.934 192.581 280.934 188.523C280.934 184.464 277.644 181.174 273.586 181.174C269.527 181.174 266.238 184.464 266.238 188.523C266.238 192.581 269.527 195.871 273.586 195.871Z" fill="white"/>
<path d="M273.586 190.972C274.938 190.972 276.035 189.875 276.035 188.523C276.035 187.17 274.938 186.073 273.586 186.073C272.233 186.073 271.136 187.17 271.136 188.523C271.136 189.875 272.233 190.972 273.586 190.972Z" fill="#3F3D56"/>
<path d="M252.185 173.971C250.449 166.196 255.999 158.34 264.58 156.424C273.162 154.508 281.526 159.257 283.262 167.032C284.998 174.807 279.311 177.674 270.729 179.59C262.148 181.507 253.921 181.746 252.185 173.971Z" fill="#CFCCE0"/>
<path d="M258.538 188.596C259.337 186.912 255.635 183.485 250.271 180.94C244.907 178.396 239.91 177.699 239.112 179.383C238.313 181.067 242.014 184.495 247.379 187.039C252.743 189.583 257.739 190.28 258.538 188.596Z" fill="#2F2E41"/>
<path d="M262.48 201.722C262.48 203.826 267.899 207.982 273.911 207.982C279.923 207.982 285.561 202.057 285.561 199.953C285.561 197.849 279.923 200.361 273.911 200.361C267.899 200.361 262.48 199.618 262.48 201.722Z" fill="white"/>
<path d="M335.828 223.498C337.482 223.498 338.823 222.157 338.823 220.503C338.823 218.849 337.482 217.507 335.828 217.507C334.174 217.507 332.833 218.849 332.833 220.503C332.833 222.157 334.174 223.498 335.828 223.498Z" fill="#009A77"/>
<path d="M343.986 199.317C345.64 199.317 346.981 197.976 346.981 196.322C346.981 194.668 345.64 193.327 343.986 193.327C342.332 193.327 340.991 194.668 340.991 196.322C340.991 197.976 342.332 199.317 343.986 199.317Z" fill="#009A77"/>
<path d="M336.526 186.957C338.181 186.957 339.522 185.616 339.522 183.962C339.522 182.308 338.181 180.967 336.526 180.967C334.872 180.967 333.531 182.308 333.531 183.962C333.531 185.616 334.872 186.957 336.526 186.957Z" fill="#009A77"/>
<path d="M310.67 267.813L312.281 273.641L322.723 270.754L321.112 264.926L310.67 267.813Z" fill="#2F2E41"/>
<path d="M311.393 274.669C312.399 274.391 312.613 271.991 311.871 269.309C311.13 266.626 309.713 264.677 308.707 264.955C307.701 265.233 307.487 267.633 308.229 270.316C308.97 272.998 310.387 274.947 311.393 274.669Z" fill="#2F2E41"/>
<path d="M343.633 247.767C344.371 242.321 343.583 237.717 341.873 237.486C340.164 237.254 338.179 241.481 337.441 246.928C336.702 252.375 337.49 256.978 339.2 257.21C340.91 257.442 342.894 253.214 343.633 247.767Z" fill="#2F2E41"/>
<path d="M338.588 285.884C349.581 285.884 358.493 276.972 358.493 265.979C358.493 254.986 349.581 246.075 338.588 246.075C327.595 246.075 318.684 254.986 318.684 265.979C318.684 276.972 327.595 285.884 338.588 285.884Z" fill="#2F2E41"/>
<path d="M310.67 264.285L312.281 270.113L322.723 267.227L321.112 261.398L310.67 264.285Z" fill="#2F2E41"/>
<path d="M311.392 271.145C312.398 270.867 312.612 268.467 311.871 265.784C311.129 263.102 309.713 261.153 308.707 261.431C307.701 261.709 307.487 264.109 308.228 266.791C308.97 269.474 310.386 271.423 311.392 271.145Z" fill="#2F2E41"/>
<path d="M343.815 261.38C347.572 261.38 350.618 258.334 350.618 254.577C350.618 250.82 347.572 247.774 343.815 247.774C340.058 247.774 337.012 250.82 337.012 254.577C337.012 258.334 340.058 261.38 343.815 261.38Z" fill="white"/>
<path d="M345.99 253.839C347.243 253.839 348.258 252.824 348.258 251.572C348.258 250.319 347.243 249.304 345.99 249.304C344.738 249.304 343.723 250.319 343.723 251.572C343.723 252.824 344.738 253.839 345.99 253.839Z" fill="#3F3D56"/>
<path d="M361.574 279.658C368.94 279.289 374.581 272.399 374.174 264.269C373.768 256.139 367.467 249.847 360.101 250.216C352.735 250.584 351.579 256.367 351.986 264.497C352.393 272.627 354.208 280.026 361.574 279.658Z" fill="#CFCCE0"/>
<path d="M330.453 257.558C329.254 257.655 328.066 257.272 327.15 256.493C326.233 255.713 325.664 254.602 325.567 253.403C325.47 252.204 325.853 251.016 326.632 250.1C327.411 249.183 328.523 248.614 329.722 248.517C332.218 248.315 332.899 250.297 333.101 252.793C333.303 255.29 332.95 257.356 330.453 257.558Z" fill="white"/>
<path d="M336.162 252.497C336.9 247.05 336.112 242.447 334.402 242.215C332.693 241.983 330.708 246.211 329.97 251.658C329.232 257.104 330.019 261.708 331.729 261.939C333.439 262.171 335.424 257.944 336.162 252.497Z" fill="#2F2E41"/>
<path d="M334.33 242.968C335.984 242.968 337.325 241.627 337.325 239.973C337.325 238.318 335.984 236.977 334.33 236.977C332.676 236.977 331.335 238.318 331.335 239.973C331.335 241.627 332.676 242.968 334.33 242.968Z" fill="#009A77"/>
<path d="M316.875 171.07C316.944 170.543 316.899 170.008 316.743 169.5C316.588 168.992 316.325 168.523 315.974 168.125C315.622 167.727 315.189 167.409 314.704 167.192C314.219 166.975 313.693 166.865 313.162 166.868H311.976C312.263 166.33 312.413 165.73 312.413 165.121C312.41 164.128 312.015 163.178 311.313 162.476C310.612 161.775 309.661 161.379 308.669 161.376H296.188C295.195 161.376 294.243 161.771 293.541 162.473C292.839 163.175 292.444 164.128 292.444 165.121C292.444 166.114 292.839 167.066 293.541 167.768C294.243 168.47 295.195 168.865 296.188 168.865H297.374C297.087 169.402 296.937 170.002 296.937 170.612C296.94 171.391 297.185 172.149 297.637 172.783C298.09 173.416 298.729 173.893 299.464 174.148C299.396 174.675 299.441 175.21 299.596 175.718C299.751 176.226 300.014 176.695 300.366 177.093C300.717 177.491 301.15 177.809 301.635 178.026C302.12 178.243 302.646 178.353 303.177 178.35H315.658C316.544 178.351 317.401 178.037 318.077 177.465C318.754 176.893 319.205 176.099 319.351 175.226C319.497 174.352 319.328 173.455 318.875 172.694C318.422 171.933 317.713 171.357 316.875 171.07Z" fill="#009A77"/>
<path d="M149.401 198.122L149.13 197.851L147.668 199.313L147.939 199.584L149.401 198.122Z" fill="#3F3D56"/>
</g>
<defs>
<clipPath id="clip0_435_260">
<rect width="445" height="286.499" fill="white"/>
</clipPath>
</defs>
</svg>
