<svg width="24" height="24" viewBox="0 0 24 24" fill="none" xmlns="http://www.w3.org/2000/svg">
<g clip-path="url(#clip0_555_556)">
<path fill-rule="evenodd" clip-rule="evenodd" d="M12 0C18.6262 0 24 5.37383 24 12C24 18.6262 18.6262 23.9998 12 23.9998C5.37363 24 0 18.6262 0 12C0 5.37383 5.37363 0 12 0ZM15.5117 19.1826H8.48828V18.0004H9.80801V10.7816H8.48828V9.84102H11.7711C12.6002 9.84102 13.416 9.74141 14.2221 9.53809V18.0006H15.5119L15.5117 19.1826ZM12.4725 4.1168C13.0164 4.1168 13.4441 4.27402 13.7559 4.58477C14.0643 4.89531 14.2201 5.32129 14.2201 5.87012C14.2201 6.42637 13.9549 6.92109 13.4207 7.35469C12.8834 7.78828 12.2604 8.00664 11.5502 8.00664C11.0164 8.00664 10.5922 7.85723 10.2672 7.55801C9.94199 7.25508 9.77949 6.86348 9.77949 6.37637C9.77949 5.7625 10.0447 5.2332 10.5723 4.78418C11.0996 4.33965 11.7328 4.1168 12.4725 4.1168Z" fill="#FFD954"/>
</g>
<defs>
<clipPath id="clip0_555_556">
<rect width="24" height="24" fill="white"/>
</clipPath>
</defs>
</svg>
