<svg width="239" height="160" viewBox="0 0 239 160" fill="none" xmlns="http://www.w3.org/2000/svg">
<g clip-path="url(#clip0_438_878)">
<path d="M238.527 85.0376C238.527 117.401 218.031 144.976 189.322 155.468C184.955 157.068 180.447 158.252 175.857 159.005C163.232 161.077 150.288 159.901 138.242 155.586C109.351 145.18 88.7051 117.512 88.7188 85.0217C88.7188 43.6379 122.255 10.0752 163.623 10.0752C179.257 10.0524 194.503 14.9473 207.206 24.0681C226.17 37.6659 238.527 59.907 238.527 85.0376Z" fill="#ECECEC"/>
<path d="M189.322 155.468C184.955 157.067 180.447 158.252 175.858 159.005C163.232 161.077 150.288 159.901 138.242 155.586L141.701 141.695L141.91 140.862L148.969 140.889L184.433 141.016L184.887 142.359L189.322 155.468Z" fill="#2F2E41"/>
<path d="M65.0648 0H0V73.6801H65.0648V0Z" fill="#E6E6E6"/>
<path d="M63.7911 1.55878H1.16016V72.1216H63.7911V1.55878Z" fill="white"/>
<path d="M32.5327 69.6126C34.4716 69.6126 36.0435 68.0396 36.0435 66.0992C36.0435 64.1587 34.4716 62.5857 32.5327 62.5857C30.5938 62.5857 29.022 64.1587 29.022 66.0992C29.022 68.0396 30.5938 69.6126 32.5327 69.6126Z" fill="#E6E6E6"/>
<path d="M31.9394 26.5365H11.7749V28.6009H31.9394V26.5365Z" fill="#E6E6E6"/>
<path d="M42.2085 32.7227H11.7749V34.7871H42.2085V32.7227Z" fill="#229C8A"/>
<path d="M39.2212 38.9478H11.7749V41.0122H39.2212V38.9478Z" fill="#E6E6E6"/>
<path d="M54.1578 45.0084H11.7749V47.0728H54.1578V45.0084Z" fill="#229C8A"/>
<path d="M46.7564 50.7802H12.2153V52.8447H46.7564V50.7802Z" fill="#E6E6E6"/>
<path d="M92.5201 119.892C92.7676 120.147 92.9946 120.42 93.1991 120.71L125.001 119.931L128.711 113.147L139.675 117.412L134.272 130.062C133.836 131.083 133.08 131.936 132.119 132.492C131.157 133.047 130.041 133.275 128.938 133.142L93.007 128.798C92.1595 129.872 91.0053 130.662 89.6981 131.063C88.3909 131.465 86.9925 131.458 85.689 131.045C84.3856 130.632 83.2387 129.831 82.4011 128.749C81.5635 127.668 81.0747 126.356 80.9998 124.99C80.925 123.624 81.2676 122.267 81.982 121.1C82.6965 119.933 83.7489 119.012 84.9994 118.458C86.2499 117.905 87.6392 117.745 88.9824 118.001C90.3257 118.257 91.5592 118.916 92.519 119.891L92.5201 119.892Z" fill="#9F616A"/>
<path d="M135.325 81.1505L150.208 76.2691L154.579 70.2696L175.851 71.5294L178.974 78.5304L190.317 83.8943L188.574 116.293L185.591 146.613C170.257 138.666 141.639 144.725 141.388 144.824L135.325 81.1505Z" fill="#229C8A"/>
<path d="M138.506 125.003L123.368 118.942L123.432 118.672C123.497 118.4 129.94 91.4547 130.796 87.1246C131.687 82.6135 134.943 81.3662 135.081 81.3155L135.182 81.2783L141.173 83.1033L143.804 103.793L138.506 125.003Z" fill="#229C8A"/>
<path d="M171.193 145.28C171.548 145.272 171.903 145.291 172.255 145.339L193.307 121.471L190.858 114.137L201.437 108.991L207.033 121.556C207.485 122.571 207.596 123.706 207.349 124.789C207.102 125.873 206.511 126.847 205.664 127.565L178.051 150.979C178.262 152.331 178.056 153.715 177.461 154.947C176.866 156.18 175.91 157.201 174.721 157.877C173.532 158.552 172.166 158.849 170.804 158.728C169.442 158.607 168.149 158.074 167.097 157.2C166.045 156.326 165.284 155.152 164.914 153.835C164.545 152.517 164.586 151.118 165.031 149.824C165.475 148.53 166.303 147.402 167.404 146.591C168.505 145.779 169.826 145.322 171.193 145.28Z" fill="#9F616A"/>
<path d="M191.626 123.794L182.844 103.121L186.269 88.7216L189.96 84.0555C190.23 83.9398 190.522 83.8815 190.815 83.8843C191.109 83.887 191.4 83.9507 191.668 84.0714C193.03 84.6195 194.187 86.2998 195.113 89.0653L203.343 112.526L191.626 123.794Z" fill="#229C8A"/>
<path d="M146.064 62.6092V47.0239C146.055 44.2813 146.586 41.5638 147.626 39.0265C148.666 36.4892 150.196 34.1818 152.127 32.2361C154.059 30.2903 156.354 28.7444 158.883 27.6865C161.411 26.6285 164.123 26.0793 166.863 26.0702C169.604 26.0612 172.319 26.5924 174.854 27.6335C177.39 28.6746 179.695 30.2054 181.639 32.1382C183.584 34.0711 185.128 36.3683 186.186 38.8986C187.243 41.429 187.791 44.1429 187.801 46.8855C187.801 46.9316 187.801 46.9777 187.801 47.0239V62.6092C187.8 63.353 187.504 64.0661 186.979 64.592C186.453 65.118 185.741 65.4138 184.997 65.4146H148.867C148.124 65.4138 147.412 65.118 146.886 64.592C146.361 64.0661 146.065 63.353 146.064 62.6092Z" fill="#2F2E41"/>
<path d="M162.644 65.0515C171.094 65.0515 177.944 58.1963 177.944 49.7399C177.944 41.2835 171.094 34.4282 162.644 34.4282C154.194 34.4282 147.344 41.2835 147.344 49.7399C147.344 58.1963 154.194 65.0515 162.644 65.0515Z" fill="#9F616A"/>
<path d="M141.127 48.2707C141.132 43.8907 142.873 39.6915 145.967 36.5943C149.062 33.4972 153.258 31.7551 157.635 31.7501H160.75C165.126 31.7551 169.322 33.4972 172.417 36.5943C175.512 39.6915 177.252 43.8907 177.257 48.2707V48.5824H170.675L168.43 42.2901L167.981 48.5824H164.579L163.446 45.408L163.219 48.5824H141.127V48.2707Z" fill="#2F2E41"/>
<path d="M161.138 67.1673C160.829 66.7485 160.645 66.2509 160.606 65.7318C160.567 65.2126 160.675 64.6931 160.919 64.2329C164.219 57.9501 168.84 46.3407 162.707 39.1811L162.267 38.6673H180.075V65.4243L163.898 68.2809C163.734 68.3099 163.568 68.3245 163.402 68.3247C162.96 68.3247 162.525 68.2199 162.131 68.0188C161.738 67.8177 161.398 67.5261 161.139 67.168L161.138 67.1673Z" fill="#2F2E41"/>
<path d="M32.4758 5.73853C30.9993 5.73845 29.5558 6.17657 28.3281 6.99748C27.1003 7.81839 26.1433 8.98523 25.5782 10.3504C25.0131 11.7156 24.8652 13.2179 25.1531 14.6672C25.4411 16.1166 26.1521 17.4479 27.1961 18.4928C28.2402 19.5378 29.5704 20.2494 31.0186 20.5378C32.4668 20.8262 33.9679 20.6783 35.3321 20.1129C36.6963 19.5474 37.8623 18.5899 38.6827 17.3612C39.5031 16.1326 39.941 14.6881 39.9411 13.2104V13.21C39.9411 12.2288 39.748 11.2573 39.3728 10.3508C38.9976 9.4443 38.4477 8.62066 37.7545 7.92687C37.0612 7.23308 36.2382 6.68273 35.3324 6.30725C34.4267 5.93178 33.4558 5.73852 32.4754 5.73853H32.4758ZM32.4758 7.97976C32.9188 7.97976 33.3517 8.11121 33.72 8.35747C34.0883 8.60374 34.3754 8.95378 34.5449 9.36331C34.7144 9.77284 34.7587 10.2235 34.6723 10.6582C34.5859 11.093 34.3726 11.4923 34.0594 11.8058C33.7462 12.1192 33.3472 12.3327 32.9127 12.4192C32.4783 12.5057 32.028 12.4613 31.6188 12.2916C31.2096 12.122 30.8598 11.8347 30.6138 11.4662C30.3677 11.0976 30.2363 10.6643 30.2363 10.221C30.2363 9.6266 30.4723 9.05653 30.8923 8.63621C31.3122 8.2159 31.8819 7.97977 32.4758 7.97976ZM32.4758 18.7701C31.591 18.766 30.7206 18.546 29.94 18.1291C29.1595 17.7122 28.4923 17.111 27.9964 16.3777C28.0324 14.8834 30.9827 14.0609 32.4758 14.0609C33.969 14.0609 36.9193 14.8834 36.9552 16.3777C36.4588 17.1105 35.7915 17.7113 35.0111 18.1281C34.2306 18.545 33.3605 18.7653 32.4758 18.7701Z" fill="#229C8A"/>
<path d="M32.563 67.446C35.6386 61.8054 43.0064 58.2333 49.0335 61.4531C51.7464 62.9021 53.903 65.4654 54.5876 68.495C55.382 72.0144 53.708 75.3702 51.98 78.3269C51.0421 79.9318 50.0143 81.5039 49.238 83.1967C48.4343 84.9497 47.8598 86.9757 48.4649 88.8827C49.0097 90.6007 50.3757 91.8503 51.8715 92.7687C53.5224 93.744 55.2784 94.5289 57.1059 95.1085C60.8678 96.3605 64.8357 96.8743 68.7921 96.6216C70.7585 96.4879 72.7082 96.1725 74.6165 95.6793C76.6464 95.1614 78.6384 94.5049 80.6717 93.9983C84.0665 93.1544 87.9372 92.7349 91.1563 94.4299C94.2837 96.0773 95.6833 99.5226 96.1161 102.874C96.9155 109.064 94.4634 115.486 90.0361 119.82C87.912 121.9 85.2391 123.618 82.3278 124.321C79.7876 124.934 76.5259 124.895 74.5044 122.994C72.2486 120.873 72.7793 117.472 74.5709 115.235C76.8577 112.379 80.7319 111.694 84.1891 111.624C88.1218 111.545 92.0508 112.131 95.9813 111.767C97.8998 111.617 99.7822 111.163 101.558 110.421C103.119 109.733 104.543 108.769 105.76 107.574C108.187 105.215 109.823 102.072 110.637 98.8043C111.617 94.8745 111.403 90.7443 110.643 86.7969C110.237 84.7615 109.715 82.7511 109.079 80.7757C108.817 79.942 107.501 80.2986 107.766 81.138C110.108 88.5715 111.415 97.167 106.889 104.069C105.016 106.996 102.098 109.097 98.7303 109.946C94.8132 110.92 90.703 110.439 86.7208 110.294C82.9343 110.156 78.7764 110.305 75.5306 112.512C72.8678 114.322 71.0054 117.765 71.8103 121.016C72.5864 124.151 75.5966 125.741 78.6073 125.986C81.7662 126.243 84.8748 125.182 87.5278 123.523C93.0464 120.072 96.7158 114.002 97.4837 107.567C97.8838 104.214 97.4766 100.602 95.9572 97.5586C95.1566 95.9111 93.9104 94.5212 92.3602 93.5467C90.8145 92.5984 89.029 92.1315 87.2359 91.9664C83.162 91.5909 79.2479 92.9907 75.3833 94.0615C73.4091 94.6347 71.3855 95.0213 69.3392 95.2161C67.3531 95.3808 65.3556 95.3483 63.3759 95.1189C61.4115 94.887 59.4756 94.457 57.5976 93.8355C55.7573 93.2661 53.9953 92.4689 52.3525 91.4623C50.9032 90.5349 49.6498 89.2064 49.5785 87.3962C49.5011 85.4333 50.4901 83.5972 51.4307 81.9423C53.289 78.6733 55.5845 75.4758 56.0691 71.6489C56.4935 68.3012 55.1475 65.0017 52.8232 62.6141C51.6583 61.4022 50.256 60.444 48.7039 59.7996C47.1519 59.1553 45.4836 58.8386 43.8036 58.8694C40.355 58.9682 37.0531 60.469 34.5166 62.774C33.2586 63.9179 32.1999 65.2637 31.3842 66.7561C30.9641 67.5264 32.1396 68.2149 32.5602 67.4439L32.563 67.446Z" fill="#3F3D56"/>
</g>
<defs>
<clipPath id="clip0_438_878">
<rect width="238.528" height="160" fill="white"/>
</clipPath>
</defs>
</svg>
